<mxfile host="app.diagrams.net" modified="2021-06-16T12:54:45.891Z" agent="5.0 (X11; Linux x86_64) AppleWebKit/537.36 (KHTML, like Gecko) Chrome/91.0.4472.77 Safari/537.36" etag="U8S1PtmOuBtwmDya6O0w" version="14.7.8" type="github">
  <diagram id="Qgb9cSx8mkFLYwExwWoe" name="Page-1">
    <mxGraphModel dx="1422" dy="1868" grid="1" gridSize="10" guides="1" tooltips="1" connect="1" arrows="1" fold="1" page="1" pageScale="1" pageWidth="850" pageHeight="1100" math="0" shadow="0">
      <root>
        <mxCell id="0" />
        <mxCell id="1" parent="0" />
        <mxCell id="Ob93-fBjF6r9dra6HDRD-6" value="" style="ellipse;whiteSpace=wrap;html=1;fillColor=none;rotation=65;" vertex="1" parent="1">
          <mxGeometry x="190" y="80" width="410" height="300" as="geometry" />
        </mxCell>
        <mxCell id="Ob93-fBjF6r9dra6HDRD-5" value="" style="ellipse;whiteSpace=wrap;html=1;fillColor=none;rotation=90;" vertex="1" parent="1">
          <mxGeometry x="209.99" y="420" width="480" height="217.5" as="geometry" />
        </mxCell>
        <mxCell id="Ob93-fBjF6r9dra6HDRD-2" value="" style="ellipse;whiteSpace=wrap;html=1;aspect=fixed;fillColor=#48CFA9;" vertex="1" parent="1">
          <mxGeometry x="380" y="290" width="140" height="140" as="geometry" />
        </mxCell>
        <mxCell id="37nVRaay9l07B6_D7lVV-3" value="" style="shape=image;verticalLabelPosition=bottom;labelBackgroundColor=#ffffff;verticalAlign=top;aspect=fixed;imageAspect=0;image=data:image/png,iVBORw0KGgoAAAANSUhEUgAAAZcAAAGYCAYAAACOMK/YAAAgAElEQVR4Ae2dO6xd1dXvd5GCIkWKFClSpEiRIkUKihQUkVJQUKRAwlcfihKFKxEJRZGCIhcouVJAshSkBOSPzyLhOhBLdkRIAlhfAOUkvoaTG1smNsbg2ByMH2BjY7B5CSLd4lz9js863mfvtfdejznmHHOu/5G21j5rrzUf/znmGHOO1xyN9CcECkbgww9XP//uhQ+/8uaxq99YOXTxW//a//Z3jvz3mz889PvT/4vP/p0r25d2vPqbWZ/nHnhlzx9/cngfnz///NifJp87sOeNe6uyuB5+8uxW6uBzcvniFuql/o/f+fgLBcOsrgkBISAEykPg6tXVz11c+eDrJ5Yv3b68+9S2Z37x8u9/9+NDR/7rP/Z/+p+37Vv19Pnf/3P57d/+8MC/EFYIrv2/OrEDofTq0lt3nn7pvZs/eOffXy5vhNQjISAEhIBTBFZXV2+4cu6jr7L7YHfw1x0nfv34Pf/8xyPfW77sSXiEaMtD/+P//D8E0N5tR/c+/+jKL19+9vxdleBZXV39jNMhUrOEgBAQAn4R+OS9T74II4Whwlifvu/oM7t+cGAlBNMupQzwQEV38Ikz95x58fItqP78jqhaJgSEgBBIgMA7pz/+GjYQmOXD333haikCIHY/Hv3+39+UwElAwKpSCAgBHwhg3JYwiWMHqgTO4afO3Q3uPihArRACQkAIBEAApoaxGuM1xuzYK3rVd12QPXbX/z2NAwGqNGxYAYZXRQgBISAE4iAgYXKdmXsWbHjSYc/CtiUPtThzQ7UIASHQAgEYk3YmeQiUecIOJwFifnCm0K6mxQTQo0JACIRDAI8u7CbEksxjWPotT6GjXU24uaKShIAQWIDA6urqZ4k6f+pnR/9CHIYER56Co8u4satZfuz1+88effeb2tUsmCj6WQgIgcUIELBH0CLGeI/R7l0Ypd7pJxQf/vbzHxHciSqUzAiLqUhPCAEhIATWEbhw8spNeBWVGP0u4dJPuIzjx4KDTAkXTr1/oyaPEBACQqAWAQzzJGHEXXWcgeh7OGZcMpaPbz10CLWp1Ga100s3hcCwECBTL4Z5GEPJjE99iycgybKAfUZBm8PiJeqtEFhDADuKB8P8Q84yFg9LCP3NPFs0cTSvHbh0q5JtivEIgYIRYIKjtlASyHir+GEJq9m4koaGYwV0pk3BDEZdGx4C6MBRfRWRemXLbAYmRu4fG1zYOWsHl+bhzUT1WAgUggBuoqwWlWnYP9MdomDkvBoWPXJnLoThqBvlI4DqgXNQiEcYItNSn/MSpnJnLp8nqYeZI4ArMee7K9gxL+YqYXh9vPBafPPY1W9kPhXVfCFQBgIctsUhUUrJcp1JiWHnjQUZADjSuowZql4IgcwQYIWHO7EYad6MVONXP34sltiJy8MsM8ak5uaLADEqj9/zz3+IKdUzJeFSFi6oeXFMkeE/X56lljtHgPxNEip2jJM8aqS+AeM//uTwvnkfdoysqqsP//M8HlCUIbtX+HHClZ6DzRSQ6ZxRqXn5IMCKjSSSsqm0Z1gwJJg++B1+8uxWgkiJGEeliK3q6tuffslyRfzhh6ufpw7qok52nceXzt9BDrelB4/v+sNPj7xAgKF2W83HliBgcMxnBqulQsAhAjCiTpmJBxRsCD7sNmDWB584cw/CA2bO+TMOh7S2SazGEUIIIAQgaiB2RfRLLuX1ggfBfHHlg6/XAqqbQkAI1CMgFdhmhgKD5dRLortZ9Z9YvnQ7jIWdQT2CZd0lCSRCk77jSaXdznX6gCZwwy9rxNUbIRAYAanArjENbBeosmCo8haqJzIEK2lUDj917m52bUPOGYfKeP/Ole1DWWzUU4TuCoEZCHRWgRWQWbgSJieXL26RMJlBIA1uo1pDrYZKbYjn8pDqCNWozpRpQCx6pHwEUO8MzQtMwiQOXQ9V2ODIgZCVZ1kcOlMtzhBgC88RsbWeQoUZ5FlFs5rWziQtEVbChowOQ3CXJp2MDi1LS3OqPSICrKZeXXrrzpKzFWOAxw7A6hGGFhFeVdUQAVRHuPQyTiV7pCFEiY9pCIseEwJ5IrCmAiv0SGGMqgQT4smVkxtwnpQUttUseHAOYCddxLk/NXZIvOxkzwtLNyrNAQJMXs4Vr1WB1UyEnJ7DRZhzOTRxHRBaoCZcOHnlJo5tKM3lmZgoBWAGIhIVkx4B1ELofnMSGIvaCtNZ3n1qmzLXpqcv6xacfum9m4klKclGg5u7dtfWlKPyTRFglVSKbQW9PGoTHVFrSjJuC8cBhZia3T86eGzR4iOH34kLUoS/W3JTw2YhgLGU1VEOk2xeG7GjoKvGy0uxA7NGe3j3YcosNHJ3BIC+1+NiPjO8UVSPs0OAVBTYIeYxbe+/VXYURTxnR35RG4xqieDf3OO0aL+8GqOSjipriwCutzmv5rANyeDZdtT1PAiQdJP4Ge8Lp1ntY94iKDWaQsAVAqzgCBKcRbje75OWHubgClQ1JksEcPJgLqBy8k73de3DeUE79ixJr7xGk96ddCZ1hOr9HitNGTXLo0kPPcI1HXfmHB1a8IbES84DjmrDQBEg0j43F01WlM898MoehOJAh03djogAmb45qC3H4EyEoxxZIhKLqhqNmDAwaO87k/H2IVRQV+jsC1FwCgRg0tg0chMyuF5rIZaCYgZYJwd55ZTOnJ0VKzBF0A+QWB12GSHDTiYndRkLM5x1HMKpJpWCAGlOcjFUMnk5LldCpRTqK6sf7P5JiZSTWpmYmLJGQb1JjgC5wXLxBkP4kZqFyZscODVACCxA4JP3PvliTt5l66ljFHS5YFz1cwMEcDPOxX+frMQ6v6LBoOoRdwjgwpzLPKOdyk3mjoTyahD+7n/46ZEXxg3jHr/jOkmKlrzQVWuFwDQCxFvlkOiVqH6pnKfHT3caIMB23Xv8SqUC0yqqwYDqkWwQQA3NAV/ejf7wB2kKsiErHw2FYLy7TEoF5oNW1Ao7BFjgETHvUVtQtQk+oUBkOxooqmQOSvK8YoKYOe2xKNDVGSEwBwGi5T27/5OX7MyLl2+Z0wX9NHQEXjtw6VaviSdRgRGvIi+woVPpMPtPfAxekF5DAWgXGTuGOTrq9VwEiB72Srg4FejUx7nDpx8HggDzwLOTzYE9b9w7kKFQN5sgQHBUpUP1dJUKrMno6ZkhIsAuwauWgbgdnBKGOC7q8zoCEACqJk8CpWoLBCoVWH9SxV2Ug6D4YE/D1ZWjmknnwQcmRSYDPtACuC/6EFlevdPkiucTdWE7oA20RR5+/ceWPHkx3ZYfum3fajU/F12fvu/oMxrj/mOcZQkIFo+eKKzGlMeonqQYMxgzAgKnBs50RyAwjqhKMPry8eyQMcmUaC8nf3KmztKDx3ft37myHYGF0CN2ib7ivYjnVD0qw74LTXi1xTCuioUZGH2yovCot4UYh+o3zy4NfTqre4QrDJZz2lkBgssj31u+PMmYh/g/OOz6wYEVcEGwsisCs6ELH4SwR48y2jTUOT0wsTIasZKAWXljTOs5i24ofUCYaBylTGZcji0gpXlOyQu90c14e9j1Qtvs5DAss7sji/dQ1Kv00+NRGCwIUIeWPrcH3T8Ei7eoe1Q4JaZuQX2F7z+qKyY8TE9CpLnOflxohPgOg2O3zm6QMUHAI+hRK5XGFBCq3oz9tAdbX2lYqz+j0QhVmDfBgjESJpzzACGwKyGCIZw+eZvYIZhzyWWwe0To4I5fiss784r8X57GjXnBTjLn+a62TyDg0caCvjy3VSOBbOi2UWmh88/JcO6JyXhvC+PK+GL3wp6Tq1qN+YXQ9IQ34QWywUww6Fz/hcA8eYWhnmDC5oAnTAX1Ca63rAK9BplOM4+/NXYZnX43nerKc1ty3t14C5BGgyIvshw44II2elq5oPP27NVD3ACeWmDmTYXomfFm3bYt3YRpbrsbkkuya/AyVqiPFQezgHl7/hn/dw/ExIof7x1PajDagv6Xo5s5/MjTxPMwZmpDe6HD7gavR3bmqFC98QYWdjGDLhfREJnNPfEEb+Pltj0wzUWDG+N3mLYXLxG24qgIUBPK6N6eecagl1LqgL72bju6F3rztFtH6OF44gVnPCndMlE1bBoBsht7IB6C3VIb7945/fHXyJ3mzXPGw/ioDfEELDsGdu9ezj7BHduLDRHnnmkupjvuEGCX4IFomEwpjHaszFBLoJ7g+GMx0HgMVFg3wxqnFnYPLAJT2h3gFbTFw7ihaXHHTNWg6wiwKgqu7ulg8FzXpX72estsv1XqLmwnwfvfIlmfh0mqNjRj8F5wYiHIfGEngUOJ7UyZLh3Nghd7Y4nB1NOIZ3jHC5GQfDCGkQ5jvNRdeTFSLwzdcztQJeP6HjNdCjYhD96RCFov9tkMRYBNk1m5e0hax6Sw6eG1Uok6JrCNCeiZQahtEnohaAA6ZwEVwyEAHuLBLonmQVH8lly0Rdle0rpY6UwJZMTjxmMW5xAMRGVIEDWhAVRn5AyztNFQtod5hpoutSNQCxZc5qMeiIGtLIbJkAijViNfF26KSvYo5tuE+Q7lGVb2OAOQhijknKvKYu55yOjBri2FQ1CFw6CvHohgbQsbMJU2bsO4JXoxMA6FYamffgR4m9MeUYWjJg6d/BXegrdlarogk7jlTm3QAmRe5zmxL+XgIwBCZJBFn4ynDNHNKfujuv0wWI1F+7HgJE/UxyGZcawMH/MEKv1C2M3jhfotIAK47KWcgHiW9FktEYuC/hg9soeYnJRYqu72jNQvZukThqJGxmMzlNdVskwfYyEQqOkCsk8VNQsBmHrKWA4Mfh9+uPr5We2bdx8dKlHK8wK35q1i/DKVkhik+lIKnaE2Qzj03c1wxERqTNhFzeMt+q0nAmwPUyaeQ7B0IVRsKaymZJwX407NpIZYPxmcYc59DOTYQlNjl8tRHT3ZfJrXUw4wPvBtBAuCkLNQPLg2pp4Uql9C1QMNsLjjOImubr4p+Q/4ofGIEfOThrsnrBVGnYpA2xzuQ1wKW3EPQZ2p8FK9EibeaYBUSV3cmVM7Eq1rT2TgDyWL1uws333hagqCJfljk+00eZFY2aS0B6XAJ2WdCHA+TDi8avjANIiDqPugGsF1dfyDDWzyWQyoVXnVFbfQqr7qmrLvqjuMAEfNvp5AsxHDRiOROg5G9pdAkiWlnaVJpCyrHxiavL66T3ZwxhUb7zkYPZOH3R+nYqJnBmPsViwymgj6QKTXqBhUpbSLpKm0lTbjWo4Aoy+VoGL3q/il7jRiLUwJWlw3/i885MyDgJH9pdH0nP8Q+bqsCauufHYgMLS61kFcMBFWs3Xv6t51JgJDxV6FQwMMF9zIPkD+JJhyHb6l38PbkL4jNMFjbff04PFd7MAkgK7TTpR5NObyS30Y/xmPRYuY1AJG9peeXALpHIXAJtLKz4u8x/YjobKZAbDqe/q+o88Q1cyqHYwQzG0cIHqSSlGvEweF0Rkh/PKz5+9igcXuGLqD+aWYE0OrszL+zzsGgHFK6bAj+0vHaY9XxLx4ECtiR70Fc5xstoTKvlVW1RxdC7MjkHVdgDTSVU/iqf+7I8DOh50ftgLGgjHRjmfzgicUf0DIYEvFUaduxBiLlOn62WXVtUv3ZiDAljPVimAyCSWqi5SxNaEmSZtymFD0GbdN9NBEO3cNHJ0xxLptgABjxFixe0QNyU5HtsAwQocdI8GU7FYmh45dZqodJeMbKhvBZL+K/B+DbhtmGOpZGGkFKEIFT6FQZXsuB+8nMjCjgtFupKKAMq4s1BhTbDuswHGaSMUIPc+Bpm3DexQswXWcQuAXqQQ5u9ZFNqLxtg72eyo7C4cSATrqhhyFStO0MUwADOwwGnZpIsphTjXUzqh6oQN2qakYY1Om7u05doWTHlskzkzVThYNkwJvmJQ9o9cwuhR2FiYYqzuMpqmIw6peVFwQHlt6jo6t29bPGA7dHhACOF/ALNEasLiCbqxosqRywQreUZFKKq0LmFYL5Kotuq4jgNSFCcYmPIxxpQkV+kQkMcxCHluaYl0QYBGCqgeGhSeggoPn226wceFZBh9LxU9YEHRNbdOFRrJ5ByKOLVhKqY+JT7Deq0tv3TnU2JFsCD3ThsI0CRTFLgnzlN1mWtjA3NGCMAdThSvgCJUpidk0G2k7NJ1vUxvJLAFIbAluiOuqrk3GRZtRUqlCYDMC0B40mNIVd9b8SHkfwYvmIJUAZpG5eaQG/F8KdVhK4utadyVQxnW8AyYbdd0RAqiE2NUwl4e2UOw6n63eQ6gpe/JoNEp9qqTVAIcqVwLFEQdVUxohQMAhJ61ih0i1eg81/3ItBzV5o8Eq9SGMzfiN2w+g/fGrfdVc4xgQd4K6QTuUUil/OP3CVoNjALYIFkrjdK7v03abkJjUZRoZDOWldNsLOYghysIYyGpj0nd+MMSgjg4CAeyrOO+QBTvEvFEZswUUC/dZaWuKJrYhGvHrJgLGUNJ1KL1K0eSuztUgQMAyhu8UsW11c7HEe+BbA33Zt3KMgg9FfOxSSLeCuqDsUVbvhMBiBFCdocLBxVnOALN3Il35Dy7ki0ehkCcw9nUFKuf32KXgUaNdSiGErG4ER4C5QY67oSWLteRr8B0EePDB8lYgOsChpQcnl9egjWveiFDtyQKBK+c++ip22ThOP+F3DJYCo23ZHNSXxaD3aSReI22ByfV5ztmQ6qsPtehdITAaserG0QVVMirldvzA3lO0XXvSCDHUjUWnhmElYq9TTUtM9A//frkRiy0KgfAIkNwWN/0cnQBChit0EWhP/ezIX8KPiJMSUx0A1mUg2r4znlfICdxqhhAoFgESa5LmRLEz7XZCRWpSSjXis1NB1adzUYrlY+qYcwSwZw7Z+7TNQpiEms6Hs13zSjXiowMmp1I7NPS0EBACFgigikYlba96b7dbaMP8YzxLyi0L/JOUuf9XJ3bEAK1THVvaEwqrJALAkoCpSoWAEJiLAEkblx97/X7lNavnbagSi3BNhgmXspIgZcWZFy/fMpey9aMQEAIuECB3IXFlsstMCxliiVwMUp9GEOPRaUdx2zQgqcohLudf+9/+ThHSvs9g6l0hkCECzFuEzKb4ug4ai1T8x6JesMj6lFoMbRbAxCqTHRfb66wHIUNmoCYLAQsEsP0STKgjm68t3LMOrMw5hQNeFbKrWExxlSkE0iKAZycJHUtR13ddbGOTytLLFX/qrp1O+R7xKoefPLtVKrC0DEC1CwFrBPD0xOMzJb9JXTdhFNY4By8/R79z2izX4uCkoAKFgGsEcGEe6lHr7N6y4nmok1JL5Db1sz3EYO96BqhxQkAImCKAtgV1eBveEfLZVOlh2L2ZAhuycM5lCAm6ZVm0NUu9Y8gBU1lCQAhsIECQIUeNW/Idb2VnkQuRRnoDrq49bAdxT9ygKH0RAkJACKwjgIfokIz+LLLdD/7Sjld/U8fMPd1jVSJPMPekpAYKgeQIcIojh2154l8WbXFve8Ew5N29DwmNv3tyqlUDhIAQyAIBMjATE+Kdt/UVOuzU3A7IX3ec+HXfDlq9LzWYW7JRw4RAFgig8i8h48gsHksYhsuFN0bx9qfExUnxIjVYFnNXjRQC7hEg/u3wU+fu9srrZgmOpvcPPnHmHneD4PX4YvzXXUpjdyOoBgkBIdAUgatvf/qlHGP5FgmZ9ZxjNzTFwfw5mLdHSY5zgSLtzYdfFQiBwSJAfFxpqf1dxfxh7FokEWP/zjnbg6V4dVwICIFoCHB+TElHuHO0SDTw5lXErsWT5MZwf3zp/B3z2qzfhIAQEAIhEUBDgrdV7EW0VX2nX3rv5pD4dCqLQESrDrYtl1TaZ47oMK9OA6mXhIAQ6I3AieVLt5eQ0v/p+44+0xuMPgXg/73pAJ6EB3zRDgVG9hlNvSsEhEAIBK6c++irJZx+mTQljJddCxG0WWX2DEHBKkMICAG3CGAu2Lvt6N622hdPz+MQlQzglBlEq0FAsCjxZDISUMVCQAjMQYC4kVwj+/EATsJb2fpVDD7VFVUYnhpzxlY/CQEhIASSIoBx/JHvLV9OxSf71JvE63Z596ltfRrd910Ey7sXPvxKUqpR5UJACAiBBggQdJnjse9kN2nQvbCPPPr9v7/ZV0B0fV+CJexYqjQhIATsEcAB6plfvPz7rnwv1XscomaPznoNZ4+++81UHcXNjzTY0TqrioSAEBACgRBYi4f51Ykdqfhnl3pJSByo+4uLSXVmC4LlwskrNy1uoZ4QAkJACPhFwGsuxjrhA99l12WOJpW0CRIKdS40ngsSLObDqwqEgBCIhEBOAoajn81hoZI66WZ9TyldzIdWFQgBIRAZAY95Get4OTE75tCkCAyKqvMzR1AVCAEhIASuI+AlGL1OqFT3iNX58MPVz19vdeBvFB47IIiT35Q2P/BAqjghIARcIZCDgKGNZqDFBgCX4yQRomYIqmAhIASEQD0CLz97/q7Yi/dqZ9LkSkaW+pYHuBvz/GhAlstxgEFTEUJACGSDwGsHLt3qWcCQmSU4mCSGbCLdQj2DFA/eCRUoBISAEHCOQCqnqSa8m8wsweEjx0yTykM8kzQbZ3DkVKAQEAJCoB0CXr3IyMzSricNnibHTAjBsagMshxHCdhp0Gc9IgSEgBBIhYDXVDFkaAmGCcGLi4RCqN9dHK8ZDDkVJASEgBDohsDq6upnPRxrMsnbg4aG7I+UC+fPPz/2p27DoLeEgBAQAuUhwJEieM1OMviU/wdTjaGiinEWAelddJpkeZNDPRICQqAfAnjNevMgC+I1dubFy7fEkJJJDqXpN+Z6WwgIASEQBYF/7X/7OzH4cNM6Dj95dmvvjsdIrsY2C/1i78aqACEgBIRAoQgsP/b6/U2Zv/Vzf/zJ4X29YY5hUIqScbM3EipACAgBIZAOAdJgPX3f0WesBUeT8lHT9doQXL26+rkmFfV55g8/PfJCuuFSzUJACAiBfBCAoROu0YfnhnqXbAKdkVs5dPFboRoyq5x3Tn/8tc4N1ItCQAgIgYEhgDHdg4G/l0uytQtyEL3dwAhL3RUCQkAIkIZl1oI91v1eLsnW268Ty5duF5kIASEgBIRAOwQIEYmVNWWesOrkkkyq+3mF9v3t4e++cFVpXtoRlJ4WAkJACFQIkM2kLx/u+34nl2TrzJz7d65sr0DSVQj0QYBD7K6+/emX+JCq6M1jV79RfYjTIkZg1ufwU+fuJklg9eHMoslnT/zj0u1VeeNXVm1VvdWViOo+fdG7QqANAksPHt81U0Bs2bc687fbwvzWybRhbW/ptJ1qg7qezQYBPGBgzjBunEhg7qyIYPjQIVmyn/rZ0b9AyLt+cGAFdQA7X+uJ07d8dNK0lXbjQko/WFTRL46UoJ8kAaTf9F8H42VDsm4aysIq5Vzo5JJsaW/h0DE3o6OGmCGAKzuLCLbvMFKYKh4mMNrHtx46BOO19Xr5m/nKra8AqnsfZgE2YES+PQQSOyy0CaQC0e7IjGSzLPj40vk76ugo1r1WLsnW9hbAyHIU1ehNCLDjwJWc3QbMDya4d9vRvSxMyBUXi7iHWA9CmV0cuyJ2RAhu5hU7oXcvfPgV2TM3kWrx/xAvmGoeoF1oDLClveXhbz//Ua/Izsa90IOhECChKLaLNQHyqxM72HnGSGaaarKUUi9jxO6Hc0EQPiwCEDyh6ELl+EGAcbXVAsy20ZDFpTESm+wtgY1CvQJvGvdAD3ZBAAJd24U8eXbrcw+8sgei0Q5k9qTKVQgxpowtY4xti4UDNp8uNKN3/CDAAiIFTbayu1jaW5RHLD0xDkaIBF4YpZi4MetEq8BOBzUbu1SEjpwM0s/Xpi1IGfuCl+bCdmIstCRojLwLG6EHgiAAsV049f6NeCaxY9ROpLxdiOVcrcrGwQDbDsdirO1yNIeDzE+LQnClr8Yt5pV6F/YHrx6rRrXSzS1sqR4YR6BOkKTSwVrRj8r1Ixx3/+jgMRYs8At2wuO0qO/pEGDxnsI1Gbvewl6zJbaaxJwNs7ABeqARAujISZ+DfQyhLUHih/FazR/P5cLQ8BTEhkPcjpx2Gk1jk4dinME1SYu4zi/sDA9Nvhjqf4zFCxugB2oRwOWXrSdGWG9nanelj4cCRQl3rV/v2QlkFjvYb2B02Fllu6md1iY3WXimWGwS0DmzQ7K3zIQm6g8cCsTq7+ATZ+4h4BBDqxihHSMUtnGwRdhgtyEQNOqEGmBlqKli0zX2uJlQ86NVgyCsmRXrhxF6awzvqBaGK0zyjKi3mjMll0sMDnmxUO3OXfGKN3RCAAEem35YOMxsrKWnAecPzKx4gD8woVAXYOOyVEXGJjDVF2cXkBfO8xcNqHCIMGenjnfjANmBSZcJdo5JJyyMZ3aE9B1WjSG/1MyKB/IDdhMmELs4K5xV7tCY+3zGnSM9kPATTzRyVskxoDtzBL+Y449Tx8zWknnWqjFD3PpWthOMmuSBssK2/HLLY6Dlj1kYIc+uBr6E+kyCZibrrv0B/hNbK0KqqNrGsGKwIHr0q7UVFniTeBO84lB30W8LPFVmGMYlHPPCEVskdhqSc8I4C2Qfwbtkaeqomz+1GVhYFdQ9HOJe6Sn2IXTUfhD+cI3xeTGqEHStMtKNOe74aARQNQfnyAUVSFBlzPyAjMkUfAyS1WQpNVkl+XSwU2mHko7JWNGsys1nTMkWQPCmzrmZYutrNyzNHZPzhNCJqVZYGn8Y+KkKM72ByzAud7Kh5MN8JieA/i937GCkpKSRfeY6g4X/xqJ5+OL1mte/WTYg98h87CjoEkneF2uQautRlt8sT5asHUtlJzAdS1RBqKnl2jwaWWql6mh7SrgwEHUPhrjHUbdTFWZwg13K8mOv3y+1V91KVx5cIeaGyqijrbD3WBTmvsDtyy5jpoya8hizDLjJybODtk7tUix2DBZlajVsuhqOIQg851vz3LYmY4PK5kn9kWcAACAASURBVNWlt+5EE9GXWef2vuXmYRL7qZhGqzTNHDyWw0DgVYHbXmy/8MmB0f9hV63CU3hO0gCaCE5tHFIyTcujVCbxJY3VBs8nwHHygVD/z00JsNGCdF8gMFRfVsI1FI4qR0xSNBCWBrDL4Mk6hPNo4HOx6GeTO7JlkjOCCdOJjtk1s1Nhq5giNfXaIEstlr0KK9ZkVT1hhUodniyCyUQ+m2Pk/wsu23V9D33vzz8/9qcNtI4vnb8jdAVVeXMzZW60IP4X9K7JBItsIxIsogGXNMDBe1M2g/jsyaRGNDQVX7a8IsQ2OkDGYqvKPMe4QEhW/Va59qvNIBhrB+mSydeNbUyHAuJlcvVy3WDsE19Im1OHa+h7qBs3qmYbE7qCqjwMSRsVOfvCEcFVO3XNRBhoxZ+NMMh9TqHZwCZTiuEfbU2sVDAb2RIsdXFzTydLLGws1YG5Tyy1X8I2Nxqw2tmQLxDvshJcmEnPEmNcN+xXltJso5LEgqSuera9MYBWHX4YtRUD0hj7GWOrsSAQ0bMmpo7HTd7DTdgKn/FyWbiPrr796ZfGb4b+TvmTHfT0v7IYl88UQtO0yhs2zWCr9bxonsdfaXcM+l07edhauHg/JCxevjClS4lB1CXXoV2XL6GG+3JuMTKWMY3jc28tBMUyxoXK5klRD7/FjFwdB1/ffTEKjYfGowsNYPTn6PKcUlzFCBjH225kuU3iZEsPAmReGyAKpc8XY+nCWPSO6KaiAXIzejcBVHzQMo9khQcaoREBQ9WN0FfydFUd8nzV7kVMIjTtq7zh0RT22zVDtmdmNxqNLENPKrpfEy6WjDUX4aLdy/AYQTUJdNXYh6YBmLdnW3OM+L61Q8MkXK4tM0izH5rIVJ4Yl2hgmDRA5mWvMX7YiKzpcm1jcfipc3dbVZTLzqXaxT6+9dAhKyxU7jCZjMZ92OPOLsHbkcuWG4qK3td4P5Gn1Y3Q1zW9W8W5M7iS5gFQQuOg8obNYDT+wx5/VER45XphgTFyjK3lFyNrsRXx5yZcGHz81mMeCWqFvcodNkPT+PsZf+KTcFn2ksT3wqn3b4xBHyOCXawqylG4IGDeOf3x1xS572dyzqNPJi27TfLjQW/kToKm+bArrz4cb4s6YPJzYvnS7eP3YADVO1yrsrg+84uXf08d1YdTVqmbD27389qp3/KgJ+txWleTfSblLsY6cL7CUMJlxihfOHnlJgmYNAwBYyiMGyYOUyeVBEwfIcCWnpUXE8RrIkF07OyAiSGjzRhQ9+9c2Y4XETEGEkRp6Kpieqmv0EFKO0w04UIKAyuwYQ4zeHcWt0lsGSPgyAp/j+Wyyv/DT4+88NwDr+zh8CIcSvDUgxGvC4ykq7qYhElacnTxrx24dCsJBRGiCFPmDXp6LW7KFULMgZSp/GPwhhGEbFVR7sIFRkMMDAzQMnO0Ff6pymXngecdaiTO00Z45JaDKaaQmVcXx3GzyAFDhDGLQfBNNbZh6lWePXBkd/7BO//+8rzxt/otzDjOF/4SLg1HDyKwFMQxBjtUHdg5mBjYN1D3IHxXDl38FraqlNv9hkNZxGME6ZFdA+yXHjy+C5sT4xJqjFXOfMYZCh+ch1DzxibKGE5LI9QUoYCaLKeEncvkoDOhWZGXPpGr3cea+mr3qW2ktcDegepqEhP97wMBbFAIeMaKHSPzL0aSwsl5r//bCSbUn/CVmFRkyfer8Zdw6Tii6EtZNbKCr8DM6VoJD4yLMKIj//3mD4koRgWj3UdHonD6GrYddpY4FrAwCsNYpNoKOd9ZrOL8EYuELE8frnAZWa5sSty51A0+21qYMxPXgycQbcDmgX6eM8Bxqa08rVDvefWyqsNW92wQwAYGzaLalONAu51GxTwtroyJzYhvLjWGin9kAVBV5lCEy+ZhG62d7okH0JoL6q9O7IDJs1LoIsh5h5Um3kPgSVl4FBH8WrnnsqXG60gqq8mR0P9NEGCxgbce3mrlpkDKZ6eF80aTcevzjIRLH/Scv4tBFmEw66PdhfMBLLh50CbBpSxiYhh+q8Wortd2UHimWqeLkXApeAKra0IgFwSww2FfRIUml/w4KjSEuqUmInvhQgBiLhNI7RQCQmAxAuyoUcMScxPDKDzk3QzOQlbONVGEi6UxD1vBYnLVE0JACOSKAI4BCBqpz2x2NJxFTyB3aPqIIlzCuCXWAyvhEpokVJ4Q8IkADBBXdlzbS48Bi72bwuMz9KhLuIRGVOUJASFgjgAOAdhopDarX3R3EU7gGXLgoggXEqh16WyTd7RzCUkOKksI5IcAXk+kme/iht+ExwzlGXaDBMKGooAowsWyEgAJBYbKEQJCIF8EcATAvdmS35QuaLCPh0p0GSPb+wgdqeWg5Dsd1HIhIAQsEMDFlqwRHrJZWPI+i7JxBw8xJpa29qrfpoeFUUkIIFSGEBACZSJAMlTSJlUMye/VT4Q/2T/6UkPmwuXaYPQFQe8LASFQPgJkc7bWovgVXO0M/+z4+sa/xAiGHbE9tQQdz5Hyp4Z6KASEQAgEEDLEdljyJO9lP3TbYmFDHrg+eMfAwFy4WKYw6AOu3hUCQsAvAiTSlPF/tpDBWYq0PF1GkF2PtXDBO3BEimfLiiRcugy/3hECQgAEsMn87seHjljyqFzLJoykC5XAk637vBaGwjkf8yvqZ8iScOky/HpHCAiBcQSI8ZCQmd7JdDlgLIZwIYB2hO/5fOEy3aE2z0u4jE8RfRcCQqAPAvArzjZqw4NKfpYTZa9eXf1cG0xROVpjgkpzZF0RBro2HdezQkAICIF5CJDHjBW7hMy1hT8ZEObhNfmbNc9HcOGUYS5cQvhkT4Kj/4WAEBACCBlsxkPPyIxbcZvdCypG650LB82N8DiwrAhXZ00DISAEhIAVAng/wcws+Zj3sl9+9vxdTfHlWev+rAkXa+MO0bdNO63nhIAQEAJdEUBLgg3CmnF6LP/xrYcONcWN83es+3Bgzxv3jj5575MvNqpoSzfDPnrRpp3Wc0JACAiBPgjAz8i/1YinNQhWzKmcpvbt5x54ZY91vzY0VtYVtdEH9iEsvSsEhIAQAAFUPzFSnFjzzjbl79+5sr3J6Fses1K1d0NNZ+11QSBUk07rGSEgBIRAKAQ4gnlIsTFExXO0wSL8YmSj3oi/sd5G9s2Dswgs/S4EhIAQqEMAjzL4z1COXj65fHFLHQ7j96rdheX1wskrN63VyXbKsqL1LJ6fGe+gvgsBISAEYiHAiZgx0sxb8tEmZa/Fl8wB1dqBq2rjRsJizmeublpdT7/03s1z+qyfhIAQEAKmCOCy/NcdJ35txeO8lDsvKwo7Cut2riWtrEYyRlANHgpVfboKASEgBFIhAL8r2WV5w1OrBmDUZtbChSOUN6q2DqSkM22jSDcapy9CQAgIgcAIfPzOx1+wtjVbM/FZ5c/Llnz4ybNbZ70X6v5aAGU1XngYhCp4XjmvLr11Z1WnrkJACAiB1Ag8/+jKL+fxrJS/NTk0rK59m9RSEwBb29dpDwJsU7Ux8vNs2i5tql3/CAEhIATSIOBZwNQJjyb3ZtldYpzyidpx00jGCKwBFHzPN1Wsf4SAEBACiREoTcCcefHyLXWQxrA1TZ2QGcuLQjEvdUOue0JACKRGwPpU3iY7jlDPTKmmRqPmqb56psUhtmjTWB584sw9oTo2rxzFvGyCXf8IASHgCIFSBExdwmB2M/DmrraceXy9+u23Pzzwr6nhjOGiVjVgI+/MVCt0QwgIASGQFoESBMzaMcMTMJptIMaSGu/ddnTvRLWj0YVT799YMX/rK94MSmY5NQS6IQSEgBMESN+fc8oY2j6ZZ4zdjDVvJ53/1BDC7K0rHi+/7dGcUw3WDSEgBISAIQK5C5jJFPzWCYrh7zPDTdhRjAsAy+9I1imvAkNCUdFCQAgIgbYI5CxgNjITj0YjUt9Y8vOq7DePXf1GLcacZlY9FOO6KMlabSN1UwgIASEQEQHycT387ec/isETQ9aBe3UFU4ycYrSdzAdVnZuuMU4omwRvlj/2pobpHyEgBIRAQgRyFDDjpgecqCZ5b+j/52UGGHHucegKF5WHHnDKLzohEalqISAEhEAdAo0FzJj31CL+Z/n7eALLGHGMaL7qcFu7h47OsrOzyq4L+JnZSP0gBISAEEiEQMyQjVn8sun9ceES40TOpQeP75o5LKRmadrwkM+xnfrkvU++OLNh+kEICAEh4AQB3G1D8j+rsirhgjE/hlv1wk1CTI+xcVDZUk36ZTuhJTVDCAgBIbCBAGr83gkgI6jOKuHCQY3jvNbq+1TCyg3E1r/8+efH/mRV+aJyN50DMNkw/S8EhIAQcIIAx/h6Pza5Ei7kc1zEe0P8vjAwPsaRx/M6otQwTmaPmiEEhMBcBAhS5BDEefws5W+VcOGoE+t2YNOZCxY/Xlz54OvWDZlXPrrBmYE4C1uvB4SAEBAC8RBI5QQ1j4dWvyFcYtlbxmNqZqKPPjF1wBAHl8nAP3OI9IMQEAKOEEhpSqgESd0VLZQbe0s1Xn/8yeF9dY2NeY+tnOJfqhHRVQgIAa8IsBBO5Qg1jyezq4phb0HbtNDeUg0e26l5jY71G4E/VZt0FQJCQAh4RSBGBHxbvotwiWFvaXV8/dmj736zbUesnudsBa8EpXYJASEgBCoEYh0V35TXIvBixLe0Ol04lhGoKUi1ZwRUI6qrEBACQsABAgShe/Iei+UqjV2nFfyxMyQvEjSNvBFa9VAPCwEhIATCIuDFpLCIn4b6nZ0Rm5FWKMLMQzUgVDnYYGTkbzWMelgICIGICJBlBG/XUDzPRTlzsgm0srdU40Aov4uO3bZvdbwdHNUpAVONkq5CQAh4QwA78TjPKvl7K3tLNVCkN/AKyrqAuaFqq65CQAgIAS8IFLl7mVjkV7Khtb2lGqTf/vDAv6pCvF3xzGit66s6pqsQEAJCwBCBIexeOtlbKsw5ycybUBlvz+4fHTxGfp+qvboKASEgBDwgMITdSyd7SzU4nvPmVEIG1z/FwlQjpqsQEAJeECh999LJ3lINztW3P/1SxcS9X/duO7oXO1HVdl2FgBAQAikRYPfyyPeWL3vnnV3bR7B9L3wf/f7f3+xaeez3aGvvDvdCSy8LASEgBK4jEOPs+th8lvrQGCE8r/e0wzeP8S6LwGS7JnflDoOtV4SAEAiKAMeHLOJXOf5OcuPeQF04eeWmHDtPhgEZ+3sPvwoQAkKgJwI5aX+a8vrqILKe0IxG3sB5aMznevx7HTAcnfzBO//+cm8QVIAQEAJCoAMCaFLqeFPO98ij1gGK6VdyBwf9IOo9Gfynx1Z3hIAQsEUADUrOgmSy7Y2ONG4KaSngcKDPwSfO3NPbENUUOD0nBISAEBiNRjDkSSad6//BQz92/eDASq5gTLabxHLHl87fIaO/5r0QEAIxEODYkEk+tEilP/m8h/+Jyg9+BP2BPW/c66FzIduAkGHQr5z76KsxCEx1CAEhMEwEvCYCbstPn/rZ0b8EH8FSVGOzwMS7jJPbZJcJTjomBXJmN0G+fHD35HPmxcu3kFWi+hx+6tzdeLXUffbvXNmOs0f1YfFU91x17/CTZ7dW5cIoqjpxFqENwVdzJqip0FQIfPzOx1+YxXtyus8cMMGwJNXYrAHF+E/WZRiI1GYmZFRbKJPvwqn3byTLKgQMU8cJA+aPTz3Cn5P1coh4xrZHW2n3n39+7E8E0tEfFi8nli/djmBityyBVEsKxd6MdTLkLN7W9/564GS7g8GajibG8L4NzOl9mARpZVjVsirWrqYppUw/hxMF7osIbXYBMFyYLxMuxjnfnumuEkRgwhxDABFfhsCdRlJ3ckVg6cHjuzzT4aK2PffAK3vMsEcFsKgBpf9OzA87G1QurEAlcK6RG6twdh4ID1bouK8zmTgawVucVE40ymqRoy9Y5KDKA1sEj46bMGNzZgUzdjnR3mRbmdtm4FBwSS51k+B1/R9VDUyUlSer8tcOXLr14soHX8955YnQrOwZlS2DVfWa0Njx6m8w7EELxR3pOhag25UeYr2Hmhq1G+PCxGe8TCe/Cu+FADwhFm2ErgceZ24mGJpqrO8gsfJE7YHwYcdT6d/xFce2cHL54pbKOMy1MhDDKJp82C2Mvz/+HfVKZYSmvso4XQkI7BkICdRTrI5p58Pffv6jvn3W+5uP5o6JB6pcaA17FWMvgdNLHgR9mbHoQgseXJY52ysoGHWFSTWWjnF0IUy9o/Fi0cBCQsKmjqPFvZfrfEQVGwUpqcbEsHKdJGr3vlUJmyhssraSHNXI0EttZyxuln7CmhiQhOeQaKASNthtlBrJgmNeLzPHhTnestd7YPwNz6AhTT71VcJmKDSAzQ0vPwkaGyaKjTM3WgqWAbkppBgNcwNJ7ZWQEA00pwEJmqbcsPlz2L5yokGCl5v3LtCTuNvmBJLa2pypNMHKgwdLk3aOP5Njm8fbn/K7BE0YxpmbcAmeAbkJjPg8o6udR/CazGEZ+jys9ZuwjkUDuDuT8FVuzk045eZnchIuZM5IFqsnw36hDG1Lof2yCJAcMFYwH2K3ormpbubTWf6Xk3AhK0QykElBwSom1oop93q0k5PQyp2GZ7Uf3TxBu+ZR3Mm4XZiKcxIuBGSH6XXHUuoOwZlFgLov5ioaKJsGiOMgi4dy7tUzVNL15DAHcNiq70HEu+jkhp7VNgdiURvLZurexpe0R6Q6IqNHRHbkvipSLYUdq7+thi3v2jwxT1LZdKRyTyVtMTgqU8xcNLBvlYUnqiAJmWvcNLxwCT/Pdv/o4LGmvN/8udJPqRSTCE/AwnRYmErIXGPDORy4SA46c6HRpoIcJLIY2rAY2nDH20ZVEgLPSsgM0Y2Z1DohMLQsg/ASd04ZnPlh2WmVLcEgGnBCAwHcr7HJYPgfUi4zjrb2TsNJgiab7GI4E8Q7eGqfEwZlEXOiMk2Mu83mTLfdEitlN8bjJkyuxzP0sxmWaeYonn5uhf3xpfN3xAWvG0HHbWMaQlEfhXtONEBCx9JVZRyN7nlMOEywh+y0fRWpl+N5BZ4HXG2TkBgKDZC/jAWqLZdKVzqnOXodS4Lhr15d/Vw6dBrUjPTzCqDaJUYtGvBPA6QdKTEI8/F7/vmPOvrzkLmDY7EbsPe0j0AUGOvqQNQ9/xNbY6Qx8kADj3xv+TJOQmm5WbjaSZXVNNg8trCBXydLUNkWYs/bPw8TR20QAxcNLKYBmDEeZW35j8fnPRvzyaTgEbPaNhGN21RKa5ItnmTCSBgNmQbIAMLKv5bZZHITtZPHMYRPZ5c9Iafsnx4HXW2SQBENXKcBsi5no7qpEXhewzQ4MqGmub5vQQh4f2iCXJ8gwkJYiAa60wCZenPcwcALvY47qbt8S5IZrUNfmgLU2AaxFH1Und2ZlLDLFzviYdylJ5nB/6rb5OpKR3OzYwHBsmpjdlfiXhYdhZwO9HwnmDDT2A2ZBlDl5CRgvJ7hkvwwsL4S7eTyxS1DngjquwSBaCA8DWQRlzEajVCJeXRueu6BV/b05e0u3p8VPKRJF37SCVNhOpcGAiSdnFt+xPxurtOVrHNejylfsIV/8t4nX3QhHPo24uLKB1/3QpBqh5ivNQ3I5hePxl5deuvOvvzJ8n0O3rKmt7blH37y7FbLPkcvW6dVxptwbYmttOdZmWHr44wh9PP7d65sZ5WLYZWob3TN1efdCx9+hYSJk58LJ6/cxDM8z3t8KIMP5eFqj2qBOmAgHlUfpY1rXX88R5d7XFRzWJnbzMddpRLbMKWFkYCpYxBd7sHMiR3AWLr82Ov3k/CQyZwq+R4GZgQVkdisDFlMEZshd3x7mkfQd+VLlu95zFRy+qX3brbsc7KyD+x5494ujETv2E9Q7xizOyBNBUKEQ5dy8hZiYcWk5iAmGM6gbJARbDwsNLzFa7A7INOwp3nFQiwZ87eumAAopeSXoFg04VjtP33f0WdQQcGUU+1GLOcDCV7xpGTVrTnRf054i9lgIbGIzmP+jtao9PNyRmkDivoTcUyCGFJd2EhY1SNMitMJN5BSrLxRp2HDkf2m2zz1ovKBfr0tGNAaNSDD/B/53Y8PHRkS41Rfp5kFDJR0HmRxQM2VP1WH6wE7fBwJELaPfv/vb4p+pumnDhNUpx7UpXF3LbMj8CuMWLgNZsGGF07VcV2bTZxScMIIzwq9GD/7cDKltiSYJU4CqH2608BiBtS9bF/0i5dfLZCRbnrctUA/kbrvoxpcRJMTdARjY/I+Rgxqm9VXbCiswvHm8kF9ebaCHR44yutytkBLHcMRd9cyG4dqLnqzRUWZeZwhoEmymDgqIsnxitrrxPKl2wezJY8yc0YjHByI/Fbevun5k9IjytuuBdUz7vGRyNJXNamyJufIqKfa7HjXxQTXLsV+roVRmU0z6Clac7D7bdom3H/tka+vwRs/W959alt9Swdwl8mRn8//cPTXTSc0z7FKwq1Wxvk0Exc75nB2MvPnYIrVOm6+njQxOILkePZN0NnDoCiKOd/VIxOKDLXZHZUalIp9FIZahmwFQ3dlJtA29ogQl9VmMWb9LOro2Bi4rI/kc9Zgq/zwAozcWsUHZrmcMfMbhUpyyO7+BN/ORyjsr68duHSrJ/6CrTNsDzMvbe+2o3s9DZDaMlsYwbhSu3xmTu7mzUfljA3Ak6om1pyi3+YAr1eA6slTLBK7VqmmJ0afdBiPfG/5ciwCVD2zhccsbBgfVA4wronh079OEcD+kJ9dsz1tjtMsWUBiDQcq4fG6U39P7YodC/fW9RDsk3pwVP/0xGY1xCQqMcdXayLN9AVvTNBynqGmijFMpOzxZN/C7hOj39nWQeZbS8JT2dPCYx4mbPnxRMqWoNTwDQS8BfjNo7s+v8WgV5wnPB0ERi4zjlTeGGx9mUYAHeZwXCrbMfo+E67Lu2sG+6urn5seJd3JFQG8iDyttrvQ5aJ3YtgcyJSwqB0xfz979N1v5kqTUduNt0vpEyAm4bWtC+xj6q2jEpcqG2E3a0sTuTyPA4N1fIc377BBB0t2mc8AlgtBl9ROYo5iqBW60ITeCYdAqfOL3XY4lKZLWovLc3QIGM4acrCZHqe5dwBsyL76KQQW9pUU0c1zCUE/miDA/CJNTwo6s6zT8kwXMCOGxLL9bcom1Y3izDpODxjdEP302xBYqGdJhS+DYEdCzfQ1vP9Kcv/HqG25ive224vlFZcpeS9u9lA8XEIJiS7lMCl1vspiWizxiZLsL6S+sRojdkSe7MA4FFj1dVDlcibBQxllZu3C4FO9g2CRKmxQ02mqs6UEWVp5iVGup/yH6ydufnZqIHWjPQKsqmGCqRhwqfWiclRq/Pb0WNobOHDkTuNLDx7fZTEuqIo9hUYwZ62EqAV+WZR54dT7N3paPeQ+GWk/KscsBl+NNEfAEwNtO7dwRLHIHoFLs7ddHUl+zYlhiBWcXL64pS3h6fn6QE0ShQ6RhtTnegTIJJzrXDnz4uVb6nvV766Lo9jHzAG0p1+P9PZcBLyd9pbjhETFSKLQuUDrx0EhwHk8OdLy/p0r2y0G6sCeN+71hAc7S4vdmQV2WZeJftXTwOfWFkXfZ03+Zo3PTe0Mw7WIxmd+eJrTeKnJNmpG9psLJmmcp2AmT4S4qC0EplrGAmweKf2XEwI5BS0jCC0YLrEjnlyOmc9Kox95Fnnz4ljE1L38bhnBHJkEVF1gBEidUtGpZ9d/BIvFYXUeBYt1OpvAJFROcd78z6uJ6fX6+NZDh8oZffUkNAJLO179jVfardplJVjIKuxtx8L5LNIyhKbyFuV5i5ytJoHVtc+K8uVnz9/VAlo9OjAEvAsXHFEsYjzYBXmzN6H2t7AnDYyk+3dXKWLq3Y3HBRyrMnmI9ae1kkv4408O7xunGU/frTJJeBQsyvPnbJZ5O7zH08SkLWTAdTZkao4zBLwFDFZzaEiChb4qz5+ziYFukhxkFUHqunk3c/ipc3c7GzI1xxECqGDMbQ5bNtNkkzmKu7FF7juPOxZS6Fv01RGZ5dsUgozYUjYh2qE9o2NQ86XrGC33droi8xODtkXgIH31ZmOxclSIQTuDqQPJX9IZFaGEoMUkHQxRDaCjf91x4tftae1vq+3fWbx7YQdFOhoL2DliwHyHNpaypQk+tAeBZ9FflRkYAY9b3iZEZvUMif0CQ6ziCkMAGrGivzblsjC0isUiGLFNW2I9i8ArjJzK7o4EzPUVInrrskdbveuDAHMlFiOdVw9xWFbH9j7/6Mov59Wd6jdF3/eh3ITvSsBcEzASLgmJMIOqPXiJoZYjrVNouHD08ZbduBJkCLzQ/VV5ERHIX8D012tLuEQkuMyqSn3MMYZsq0Sq2BlxCqiYuaer0udnNlFmNTd/AXNdxdVlgqDHnoWN7g8XAZhvSucXzhSyUoMx573YkSbnLCETSutS0LwbuoAh0WdBw6muBEAgVeAxAo2D/wJ0obYI7BjePMIqAYMKUmldaoct75tDFjBWHjh5U8RwW58qZRL5y6zc4klv5FUNhnBRWpfC59tQBQzMpPChVfcaIpBCsOz6wYGVN49d/UbDJrZ+jCBhUqdUOwRvVwmW1kOa5wtNBUyfDMTeiJssq3mOllodEoHYZ5agnlp+7PX7LTzBwAXbBQGXXtVg8AFlOA5JwRmUdeHU+zd6XulYCCfOSc9gaJI0ESaFcfmd0x9/jRU2nxPLl27Hk4kr/0MzOScVfHXprTvDMOFmHozErYCn1YAyFt7zCeIVZiVYrXBVuQEQIFXMkATMgT1v3BsAtuyL4EwQGO3+nSvb0dGjsmkjzGHQqDlgHAefOHMPKhnPRlpsEWTFbtPHPs+Cp3U6E2yIrTzdOiTN7IMB7+IwIa+w7NlF9w4MScAgSIe4imLHhgcRrq9knu3LNOreR+Cg/qAeT7sbBF8sl1zoi7gZS4ZK2cu7zZ4o4wAACfdJREFUT22rGwNP96xyo3XndHozCQJDEjCstJOAHLlSVFz09Xc/PnQkNtNB0HD2OXQVudsb1eF6zs4sRt8R2AhV64ULY+ohm8A8TBl7dsUbA6EvQgBGQCT7PMIp4bf/+o/9n1oFrnmgIuwiqICY5KnHizbEPloaoUJaEcbZuv/UgarVyrV4nJ6Ii7HadYbCCTys1YHjmOh7RggwMVFthCI2r+WUmHoCD0CPx/QiYGLEGLFgiCVU6BP2hBiBuTgEeBzXybmt81gyYvSpmopOt9vZFv1StEwSq/X/VvmcYo8bq2bv4wXjwfYRGhtsO8SsxFoQIVQIgozhdYjgYlyp03ou9C0fW1NKFWhoulJ5xggwaXMg7K4Tg76x2jeG0bT4My9eviUnbz+EAAZvvLe6AMN79BlbUiyBAn2hjsKIHmOngt0G+413FVg17/AaLFnN3IVO9U4DBFBn5ELkFbG3ucKYc50YMOm+wj9lkCyOBqiWWMSgp69ia7iuHLr4LXaWh586dzdeR6gxr7lLN4svaUMD856lTmxG1ob6aiqCQ1u38Hntt/4NAR9D4Fb46FoYAmx3WZ1YE2qq8nf/6OCxrivpVEMN002F1xDqxcaBgIs1vrnYVcbHHrd2z7FNscZO9fREAL2+90jgccJv+x3h6Sk2Y95woRZq2z89v9geiKcT9hTLiPrJcc3JrjJOQ0sPHt9lGcsziZP+LxwBiMnrUanjhN/1ew5GSXZYOdlYuo5FzPeIcsedOKZ6Jze7yvh4KMtF4Yw+ZfdC6PrHidXTd+/ulCRA9IRXrm1hl0IsEKqvWPaUas4Sr5JjPBmLGguPvwoXXYXAGgJ4WZW6gobxYNPwONQl275iCCoM0ESPx7axYZvAcSEnY/34eKASj7mz8zj31KaICOBlhTF8nAhL+o5R15sdpq93WEnj07QvMHQ8zmLEpkxOP+YIu81cPS6hN9yiJ/ul/4WAOQKsyGJmm23KUEI9B1OwPI627QClWfnGdf8NMXbYUXBzThXHRL24T+e8GCDZZyr82s4LPV8wAqiRUCeFYAwey4BRpFj5TpKM90j8lGOHvYxxSmFHYZxweGEhwhkuKXEIUTcLxhj50ibpW/8LgVoEiIdJkYE3xGRqUgbCExVHykmHmgUm2qS9Q3gGtSyR8wRepnKNxX6D6qgEGyQ7LWxDtRNcN4VASgSY4Oi3c1YHLGLKqMqYgLG9jKpxJYq7ZHzn4Y9gJXgPj8XU9jAOXEP1VsqOHZVrzBifip51FQKtECDte+meTUxGUpSkEDKofoayg4GO2DGun3Z5QytCDPxw7ESZ8wTtzN86nDjJ2TuKtg9MLCrODgGYLkyh9FU26hB2a7FdNVGRlZg1ATzR+eMyTB/tKLRZyYwrO9WYiTJnCo7bFmcaaPMuC5RSsoM3G009VRQC6MNzDBprM0l5FvUIBvfYqgXwnXveR4eVbNu+d30e5kbbWYSwG0ut6qomHnYUVG8I71IXR9irUO1VfdZVCGSJAFtu9NNdmVCz90K5zPYvB6a07rX0mVgDBqPAuO1VHQmTXsuEvHNlO4zbG2MbgkCp5hFzMYU6N9ZcUD0DRICki/jPV0Re+pUdG2ePxHZjRp2EuoNEjKkCXamXBIeolC6ufPB1j8xsSAKFuQY96hjiATLeoXQZV17iEUoXLJP9Y9VOPFBsQQNdsXPEyYI4DOxDCB12V+xy2gp7AhRhUsRzoNKiLHZMCBF2a+xIPAoScID2aCMJWEt2m5+kPVS2JJz0Oi5D4X3qZyQEWEHBqCYnwhD+X/OAShyfUTfMrOTZ9Ux+cmVKi4VJfxXofzq2aTGXnr7v6DMpFjR19KV7QiAaAhhwh7iLGRegxM3gCop3lM4h70d6i4VJWG+r8XH09p3dJbu0fojqbSGQOQLkMHr8nn/+w9sETdEeXHElbBYTNKo+bDkcQ7x/58r2Iam55tElKjDsfLnuNhePvJ4QAh0QOLF86XZWXPMmz9B+Y2eDfQR3XVSJQ1Rx0GdW4diLiIFJk8DT/65nLSeYg9igDlNfrwgBewRYcZGrCaY6NEHStL/jAge3Xlbw2EvsR8e2Bmw9xO1UuxF2s0PJRNB07OueQ9iefum9m21HR6ULgUIQgFnij19qEFsdk+h7DwcJGDLBnHimsdpH8MC0PZBFJTxwk6681vA40261264IwSsVmAfKVhuyRAAjN8kK+zJevb9vFXsOtgnUbLgQ457KLgFmzwdXZXYO1Qe34knPscn/GR+eR2VXCQ1cfSt3Z4SdhEc34TGPZrHLeclokCVjUaOFQIUADExG2/BMah4D02/+8MaNXWfZV1xBVyEQCAFS+rM6ZgUuxueP8WlM7MYEml8/6iFaSqFA01bFCIF8EMDoj86+lbHXebCbGLMdY84Z25RHO+TDEdRSIRAYAdKhE+NQyoFNOTNBtT2scEQFjENGqhM2A09VFScE8kQAzzK8ZqQuC8vgJDDi44n3HPbFPGeiWi0ECkUAdRk2GRn+4zNFCaJ+mBMAGfssoELZgLolBGwRwKNGLsz9GJ4Ehi1+qHNx2R5i1gXb2a/ShUAEBIjDIBhTdhlbRjksQdQvmzKOKMQCxT4aO8J0UxVCYHgIyC4j4ZJaAJJBAS9HsjcPbwaqx0KgcARkl6kTMv1W4qmZtvf6yVCwHqNyQ+HTS90TAkIABGSXqRM0Me6VL8zYpZDjTZ5f4jVCYMAIYFDFlVleZjEES7l1YNfj8Lv1+BTtUgbMU9R1ITCFQCVoyOHkXd2i9qUXVGTtJhEoLvAcYDZFULohBISAEJhEgLgDMgfrcKr0TDyVIH3otvq+P7710CHsKMpMPDlr9L8QEAKtEJCgqWeyqZh+inpZZLDYUFxKq6mjh4WAEGiKAAdwEafw6Pf//mYKJqc64wk6DPOMNWPelD70nBAQAkKgNwIXTl65SYImHrOPIVixtxF4izehEkf2niIqQAgIgb4IoDpDD4/HkJJo5iNwKmHCSZyKmu87C/S+EBAC5giQeub40vk7yB+lo379CBsJE3PSVwVCQAjERIBVMatjVC6KqYknbCRMYlK56hICQiA5AuSYIuBuefepbY/f889/EDMRw6ZQeh0SJslJWw0QAkLAEwIE4ZEu5PCTZ7eSOuQPPz3yQja2mwTHSD/83ReuEm/y3AOv7CEh5GsHLt0qm4knilZbhIAQcI0AQgdnAZhnloJnRiBikx0Uu7ndPzp4jMO0lh97/f5Xl966Ew89CRHXJKvGCQEhkDsCpQgeYoaevu/oM/t3rmzH4+70S+/drGDF3KlT7RcCQqBIBBA8V9/+9EsEAKJu40MOLD4vP3v+LlRJfHAwwKNt6cHjuzjDnQ8OB3i48eliC6re5Yp6jzJRX1EPdVI/O7Er5z76KscgFDkA6tSgEfj/aNkIRRUfeo4AAAAASUVORK5CYII=;" parent="1" vertex="1">
          <mxGeometry x="390.14" y="300" width="119.71" height="120" as="geometry" />
        </mxCell>
        <mxCell id="Ob93-fBjF6r9dra6HDRD-4" value="" style="ellipse;whiteSpace=wrap;html=1;fillColor=none;rotation=120;" vertex="1" parent="1">
          <mxGeometry x="307.5" y="90.31" width="410" height="300" as="geometry" />
        </mxCell>
        <mxCell id="Ob93-fBjF6r9dra6HDRD-7" value="" style="shape=image;verticalLabelPosition=bottom;labelBackgroundColor=#ffffff;verticalAlign=top;aspect=fixed;imageAspect=0;image=data:image/png,iVBORw0KGgoAAAANSUhEUgAAAggAAAIICAYAAAAL/BZjAAAgAElEQVR4XuydB5wdVdn/f+fMvbub3guhJCEQCNI7AlJEmoAKIlgAxQovoKJY3lcFUcBXEEUF0T/4ShMLnQhIlRY6oUNISO892c22e2fO//OcmdndJLvZe/e2Kb/5EJJsZs6c833OzPnNc57zHNV629YGPEiABEiABEiABEigCwFFgcD+QAIkQAIkQAIksCkBCgT2iWgREH+WilaVWJtuCNBO7BYkkHgCFAiJNzEbSAIkQAIkQALFE6BAKJ4ZryABEiABEiCBxBOgQEi8idlAEiABEiABEiieAAVC8cx4BQmQAAmQAAkkngAFQuJNzAaSAAmQAAmQQPEEKBCKZ8YrSIAESIAESCDxBCgQEm9iNpAESIAESIAEiidAgVA8M15BAiRAAiRAAoknQIGQeBOzgSRAAiRAAiRQPAEKhOKZReYKSTjIjTQiYw5WhARIgAQSRYACIVHmZGNIgARIgARIoDwEKBDKw5GlkAAJkAAJkEBsCXTnkaZAiK05WXESIAESIAESqBwBCoTKsWXJJEACJEACJBBbAhQIsTUdK04CJEACJEAClSNAgVA5tiyZBBJGQNbMyEwlDxKIAQF215KNRIFQMkIWQAIkQAIkQALJI0CBkDybskUkQAIkQAIkUDIBCoSSEbIAEiABEiABEkgeAQqE5NmULSIBEiABEiCBkglQIJSMkAWQQEwJMIgrpoaLcLXZpyJsnOKrRoFQPDNeQQLlIcCXaXk4shQSIIGKEKBAqAhWFkoCaSRAxZNGq7PNySVAgZBc27JlJEACJEACJNBnAhQIfUbHC0mABEiABEgguQQoEGJhW7puY2EmVpIESIAEqk6gcuMDBULVjckbkgAJkAAJkEDtCHS3tXN3taFAqJ2NeGcSIAESIAESiCyB6AiEynlJIgufFSMBEiABEiCBqBKIjkCIKiHWiwRIgAQiQYBfUZEwQ4oqQYGQImOzqSRAAiRAAlEmEC0RSIEQ5b7CupEACZAACZBAjQhQINQIPG9LAiRAAiRAAlEmQIEQZeuwbiRAAiRAAiRQIwIUCDUCz9uSAAmQwJYIFLpWnRRJoFIE4icQohXDUSm7sFwSSAYBPq/JsCNbkUoC8RMIqTQTG00CJEACJEAC1SVAgVBd3rwbCUSOgHzky6FgAKNglIGCOLgBYwyg/D/7/+/7YZ0J9hZ++VJ010JLLb/XmtGb0SsinkACXQlQILA/kEDKCRgRBv6QDRm6Efw/kAz+GF7C4OoLkI1LturACo/OgisuEFJuZzafBIolQIFQLDGeTwJJI2AADwo516A9p9CSM2jJAS1t8megPR82uG9DuFYG2QzgKIO6DJBxFBqyBvUZIOvA/kz+PaOTBpbtIYF4E6BAiLf9kln7Er5Wkwmk51aFbvvgw9+fKBA/fnD4UwX+3z0DbGgF1jQrrGgEVqwHljcqrGpSWN8CrG8Fmlp9QdDuKuTyQM4FXK80qlIDR/sOAxEBWvu/Zxz/V7+swYB6YEC9weB+CkP6GYwYCIwcaDBysMHQfsCgfr64CKc+fJ9El3Ya5c9fdJkaUXLDABD9FKXZkFenkwAFQjrtzlbHlcBGisAGCQBKB7/7Y6SngFzOYGmjwryVwKxlCrNXaCxZC6xcr9DcLgJABn+NvOsh7/kiwPWUFRHVPpQy0DK+WwGhoLVBVodeBV8YDOuvMHKQh22GA5NGGkwcA2w9zFgR4QRTFaIRrEDoCJvYSEKUHENRbS68HwnUmgAFQq0twPuTQBEE7JDXGVVorzQesHKDwnuLFV6dp/H6fOCD5Rqrm3zd4B9G4g838itsGljgwUBXfRgNKmiDI/16+r8FQZIiHIIGdwY5+vESdY7C6CEGk8cY7DUe2Gu8i0mjgUENQRnKj6rQRsNTMolS4BQJPVhF9EiemmQCFAhJti7bligC4vpvaQc2tCs7PfD+EoWX5wHvLtJYtFahNRcO+WG4ob8qQdwKdsi0X9YySHqAEZ+/zB2EA7EJ/lrgIFpmstYRYisYeAG6hi8GzbBKSGmoMMDR+KKnQ1Bog8ENChNGGuyxncFe23mYNAZ2yqJfnUxl+FMdyTyoapJp19q2igKhtvx59zQQ6OXd3TlrEI6E/rjtGj8mYMV6jRWNBh8sU3h3icLbixQWrAZac7UZzONksiH9gR3GGOy2jYddxvnTEmOGSIyD74Ho9K/4QsOXUuQaJxuzrpUjQIFQObYsmQQKIxAKCGPsaoJVTcCcFRI3oPDBcmU9BbNXSHChTBmE3gEOYoXA7bpwU1ZOjBtqsPNWwOSxBjuOEfHgYexgP97BHl3yPhRSPs8hgSQToEBIsnXZttgQWLMB1jPw+nyN95YC81cpLF0HbGgLRYHvgmc0frEm9Yl1CAUb22Ds8soxQ2CnIyaPlfgFD3ttZzBsgB/fQCdCsZx5fhIJUCAk0apsUyQI2CyEcijVmUGwS/Bde85gxlKNJ2covDxbYfFahbUb/NwDNVhMEAlmtahEfVZWSRhsNdRg34nAMbt6mDzWC+IVRFBI/IaEcPoBD/Td1MJKvGctCNROIDCmphb25j2rSKDze79z2YEsQ1zXBjz6lsL90zXeX6pt4GGbB2i7QIEPRhVN1HGrMEhSkjhJToY9tvNw6v4eDppkbHBjhyrgFEQtzMN71ohA7QRCjRrM25JAtQhYt7aRYEOF1rzC7OXAfdMVHpyusabVX1XQubSPIXLVskv39wmnIsJ/NTYng8QqnL6/i8N3AQb3k6kJBjHW1k68ezUJUCBUkzbvlSoCMlUgcQRvLdT49xsaL8wBmts658M79joIPQdBwh9G0demm3Tdk6LrRIKYRWIVPrWPh0Mnexg3FBjQwKmG2liJd60mAQqEatLmvRJIwNiVBZ1J/Aw2tCnMWKIwfT7w5HsO3lnk5yjgEV8C4STRpFEGR33Iw8GTPbsaQqYjxA2kuuSUiG8rWXMS2JgABQJ7BAmUSCCMGmhsAabPV3h2psaLs2WJop/CmE7pEgFH5PJwEiLrKEwcZXDIZM+KhV23lo2oyrAfdkTayWqQQEiAAqFafYGxZ9UiXdX7iFlb22EFwYNvaLyxQNmshnmXSXeqaogK3sz3HvgZKFWYr1oZyOqHCSMMPjLZ4LQD/VUQPEggSQQoEJJkTbalcgRsQKGv8jo2DTTAm4uAG590MH2ewtoWXxjwSBeBhgywzQgPX/iwh4/vYdC/LvgakFTQVltIn+nYQSpdcNjaWBOgQIi1+Vj5qhAIXu5+SmT/Rb9wDfD7Rxw8+IZCu6ehmbmgKqaI2k1EAki/0EYhkzF2WeS3j/Gw01jZN8JPciXbP/g5FOhhiJr9WJ8tE6BAYA8hgUIIGIM2F1i2VqYSFP76gsbKxnCfQd8FzQQ6hYBM4Dk2IZbsRulHm4wdYvClQz0cvauHUYPDXacYiZJAyye+SRQIiTcxG1gOAovWKEybqXDXK8quSsjJRoh2uoGu43LwjWsZfq4Lf6tq6QsmWKqa1cBhOxs77bDHtgZ1WS6LjKuN01xvCoQ0W59t75lA4A2WvRCem63xwGuyOkGhqY1+AnabwgiIdtxmuMFnD/Rw7G4GY4eKF6Ezq2ZhpfAsEqgdAQqE2rHnnSNMwHgG7yx2rMdA9kpYvNavLCcSImy0iFUtTLw0sB44copnhcKu25hgj4eIVZbVIYFuCFAgsFuQwCYEmlqBf72uccfLGrOWKbTng1d9x1JVehHYaXonEAa1yu91GYWdxhp8+TAXh+9sUBduL917MTyDBGpGgAKhZuhjfOOE5HToaIa/Fg1GeVi0WuPaxxQee1ujuT3cVZGCIMa9NTJVl/CEof0Nvn64h9MOzKPOcWDC3ArsYpGxEyvSSYACgb0htQTC+EL5vd0FXpmjcOm9GgtWaT+irFchFJ5UHYS9Vqc61eBd+kggnHJwlMHnDvRw/tEuBtTJpBUDXfuIlJdVmAAFQoUBs/gIEzCAZ4Bl62GnE/7ylIPWvF2e4HsUApXAuIMI2zBGVbN7dijZu8NPzPixXVycf7SHiSPBuIQY2TFNVaVASJO12daNCEhswevzNW59TuM/72p0aINAIIQTDMRGAuUhEPqA/JUMWgH7TQS+caSLvcbLVtLluQtLKZYAfXM9EaNAKLYv8fz4EghiDWTgb2oHnnhX4ZZnHby3RNlNlXiQQHUJGLvJ067bAOd81MWBkwwyDvMlVNcGvNuWCFAgsH+kiIBNa4OWNoPbX9D4+wsOFq9VvsuXBwlUmYA/1WCQ0cCUrQy+e5yLfSYAWnIz8yCBCBCgQIiAEViF6hGQzZSuelDj7lc1ZDljp3ORYeTVswLvFGZgFBJ2LwdtsPNWBlec6mHHMVSs7CHRIECBEA07sBYVI+B7DeQ13Nqu8L1/OHYJoxw2Ky4PEogAgcCZYEXCLV/Po3+9bPQUTDewn0bAQumsAgVCOu2enlbLSgUYLF2jcPm/HDzxbui/ZWBSejpB9FsabAxtN3zcf5LBVae5GD4o2ACSAiH6BkxoDSkQEmpYNssn4HkGM5cr/PZhB0/P1JApBm6wxN4RPQKdezSIWDh5H+BbR7sYOTB0I0SvxqxR8glQICTfxqltoeQ4eH+pwnWPaTz9vqRM5qdYajtD5BsebBkdZOCQBEpnHJzHWYcYDO7HDZ4ib76EVpACIdKGTasbvNR2+3EHC1YB1zzsTyu05fzkNEUdpVajqJvxZBIICAQBCWMGA+d+1MWJe3moz0jnrW7mTtqDBCgQKt4HOMpUHHHXGwQfW+tbFX5+n8ajb2u05QtJm1zVWvJmJNAzAQMYJYmUDHYcbfD9Ezzsv72BjZ4pVuSSMwmUQCAGAoEDbAn2Td2loTP2krtkKaMD1/Vfqr5PgW/X1HWImDbYBi0aZXMifGSywY9PcjF2mL8eZ/Mjje/INLa5+p05BgKh+lB4x5gRCJLbG2WQcxX+9ISDPzwm31vcBCdmlmR1exj+zznSw1cPc9GQDcSuuBiod9lfKkyAAqHCgFl8FQgELtlcDrjvNY1fTHXQkhO3gcdkB1XAz1tUloB8Kw+oA375mTyO2CXICU6BUFnoLN0SoEBgR4g9AXmBeh7sSoVfPuBg3kr5ygq20eVnVuztywb4E2Tbj/Lw28+7mDiazgP2ieoQoECoDueK3IUxzX62OTneXaxw5YMar8zV3HipIr0tjoUm7wk5ZjcXl3zSC5Y+co4hjr0yTnWmQIiTtVjXLgT8eQWJO1ixTuG6xx3c+5pCu0wt8CCBPhOItqjoV+fh/KMMzjjEhaZ3rM9W5oWFEaBAKIwTz4oaAasPPOTzCne/4uCqhzQ2tFEcRM1MrE/5Cew41sNPP+lhj+24qVP56bLErgQoENgfYkcg3CZXG2DGcgdfu1FjRVO4MyNFQuwMygoXRcDRwEl7ufjhiZ4NXuRBApUiQIFQKbIst3IErPfAoDWncOFfM3hqBkVB5WCz5EgRCPr+uKHAd451cfSuBlpWPMouT5xyiJSpklAZCoQkWDGFbXA94JZnNa56yOkIVEwhBjY5ZQS6Jvw6elcP3z3Ow7hhsvRRIhI45ZCy7lDx5lIgVBwxb1AJAq/OA86/JYu1zZUonWWSQNQJyCZOwH+f6OHY3TxknajXl/WLI4F4CQR60eLYx8pS566mX9es8D93OHj8PZtDGYozDGVhzELiRUCeiSOneLj0ZBfD+hsoPgjxMmAMahsvgRADoKxipQgEzlUD/O0FjWseUVjfIvqAi70qRZzlRp2AQb86hT+c6WLf7V3uNRJ1c8WwfhQIMTRaGqvsexAU5iwHfnyXg+nz/fXqsqKBX05p7BFss3WfGYXPHeTif04KdiUjFhIoIwEKhDLCZFGVIyCpZl3X4IYnNW54SqO5LRAGvkKo3I1ZMglEnMDIgcC/v9eOhgyfg4ibKnbVo0CIncnSWWHRAW8tVLh8qoM3FvBFmM5ewFZvTMBftSDPxrVnujh8imc9CtTL7CflIkCBUC6SLKeiBJrbFG5+VuGPTzhoF28qDxJIPYFw0aOH43YHrjotT29a6vtEeQFQIJSXJ0urAAH5Tnp/icIP/6kxY6l4D+hBqABmFhlDAsbI6gVg2ADggQvzdukjDxIoF4HaCIRqLles5r3KZRWW00FAvpFyeY3/e1rhusc08pIThgKhrD0k/A6V3326Gwsw++/2Oer6864PlgSLBlfZU/ySNi2nsEpHe7OkwtpQm7NuPDuPA3eQB4QCujYWSN5dayMQkseRLSozAf/LSPIcKKxoMjjzT1nMX8l3X5kxdxFi/h/9bHyb/N8AGcff60ImvOV3LxQEwY6a4bAuV9oSjOT/lSj7TW3GwatSNvz6EbLTo2e5k3KlKKerXAqEdNk7Nq0NN2QSgfDX5zQum+rnO7Bfqnz7ldWOduCXQcUA/bLANsOBncYaTBrjYeJIgzGDFYYPlIHf9zW4LtCSU/CMwYZWhaY2jeXrPcxfpTF/FTBrmcKy9UB7XkSC18WTQMOV1XCbFHbAJA83nO3afRn65r2pZO1YdhwJUCDE0WppqLOvENCSAz712ywWrKL3oJxmr88AA+oNhvYHdhhjsOd2xm4fPGkUMLBBvkKDIcZfah9MMQQ1CDYM8v8hCKO3IsO/xjPAikZg7nKFF+coTJ+nsGC1n9iquV2ERTlbwrJCAuOGGfzlKzlsPYxCjL2iPAQoEMrDkaVUhIDBva84+OEdDr0GRfINXf7+N7/veclmDEYPBrYZZvChcQZ7T/Sw69bAyIEGWrYErNDRlgfmrVR4aQ7w0hyNWctgBUM+r6zGsNqiQvdOU7HDBxhc8ikXH92FcQhpsnsl20qBUEm6LLskAs1tBl//SxavzuPw0VeQQq5fHbCjeAnGG+w13sPu2xqMGRSsobdOgM59ACtBujP4EWhsUXhrkcK0mQovzNaYuRRodzsjGPraTl4ndjb40iEezj2KaZfZH8pDgAKhPBxZSpkJyPAlg8iFf3XQ1Bq4sst8jyQXJ/zqHBEEwMc+5GGP7TxMHOWLBRtIGE4PBBD84MLKzVxvGqvYmgPeW6Lw9AyNB97wpyDsrBKPPhMQJ9BRH/Jw+adda2ceJFAqAQqEUglG6Pq4LxDzv2R996jMU19yt8a9r3JpY89drOtyQn94D53LO48zOPPDLvYeD4webFCfrXVH3Xy9sQiCpjbg3SXAzc86eGaGQrurAeNBKW2XS/IohoDBHtsq/PzTeWw/Klns4v5uK8aKUTqXAiFK1kh9XTqXyM1eCXzn9gzeWwpo49hoeB6bEPDXEwLwB1WjFEYOMDjrUBef2tvDkP6wsQV+DoOI0rPLJjUa24Bbn1X4w+MOXPFlePQaFWsxeUK2HWbwveM960ngQQKlEqBAKJUgry8vgeDD5x8vavz2EY21zX7xXNndHWZ/WkC+teuyBgdu7+G/jvIwZZyVDB2LDDbPRVBek5VaWtfMC0+9B1x8d9bmvrDTIDyKIGDQv07hnCNdfOlQ8cIUcSlPJYFuCFAgsFtEh0CwfK65TePn9zmY+pq/ZK7vWfmi07TK1cRg2xHAJ/Y2OH1/16bc7ZrJMPKbXQbejdDJIb+/Mhf436kZm1bb5YdwEV3HV9ef2sfgouM9DOmXrGmGIkDw1DIRoEAIvK98lMrUo0rhGQiENxf4AuHtRUn9BCrPjKrWBvuMB754qItDdjQ222HcD/GJeJ7CK3MVfvOwxpsLJB4lqf2g3Nby1fQ+E4D/Ocm1ya5kaqmy4aflbgPLixIBCoQoWSPldfFT+Brc84qDXz2osa6FA0O3EwuS8bAOOH53D2cd4mHSmGRMwHR4EYyxe25Mm6lxzcMO3l/auQwz5Y/IFpsfTtWMHARc/AkXR0yRnwQpywmOBPpAgAKhD9BicUmUA9N6AChVXt8M/P4xB7c/r0te9hZDBAV1rQF1wOkHuPjcQQZjh3pdgg0KujzCJ/meldBubTngwTfEk+BgRSPFYm+GC5NiyXLHCz7m4YyDPTRkAg8CAxJ6w8d/74YABQK7RYQIKJs459L7HLw6lwOCb5jwte//rX8d8IUPuzjzYA/D+m+ywWKELFmWqhiD1rysbNC46RkH7W53u0qW5U6JK+STe7v49rEeRgyM7gKWxEFPYIMoEBJo1Dg36Zn3ge/+LYNGSY7Ew3pRZPMd+aqud/wAtAuPdTGwIflwglyPaG1X+NwfM5ixONyoK6m+ofLZdJ8JHn52iovxI/wVQJykKR/bNJVEgZAma0e8rZJd75ZntXUp8wj9BzZtFDJK47ApBj/+RB6jBqUj7KxrK5+eoXDerQ5ybjjYUUBu6RmZMMrg15/LY/Jo2e8iGTEqfCdUnwAFQvWZ8449EFjdpPDTex08+racwAEglAiSAGn3rT1cfqqH7UcG621ShEe8KLLc9dybMnhmZooaXsKbYmh/g+vPcrHbtpJPIuFTUSVw4qVbJkCBwB4SGQLzVil8+UYHi9eG8oCDgTiIRw0G/vdUFwdMSu8ufTLIPf2+xgW3aeTy7Be9PbQZbfCnL7nYf3tfUDJGsSsxTlH11n/Cf6dAKJQUz6s4gSdnKJx/SxaufC7ysASyjsFFx/krFtL+kl/bbHDuzVm8Pp8CoffHw+Dqz7n42If8CASJY6nlUZ7MH7VsQTrvTYGQTrtHrtXyApHUytc/oSu6q2DkGt5LhY7e1cNPPuFi+ICumybHrRWl11c8CDkPuOlpxqgURtPg4k96OHlfA0czBqEwZjxrUwIUCOwTtSMQbDZkv22Mwtk3ZvDi7DDqunbVqvWdw4WNkvDmV6d72Ht8Hko5Nf8KrC0Xn8prc4FzbsmgsSOJFt3F3dlFqHz3WBdnfNhD1vEAuzsmDxIojgAFQnG8eHaFCLTlPBx2RR3Wt4RL2Sp0oxgUK0Oho2Bf7l8/wsWQftpGosuRduf6/FUKF9/l4MU5CSRRRq0jfejcIz189TAXdVmZZOBBAsUToEAonhmvKBMBcRuH/oLXF2h8/nqNzjC8NL/SDCaOAn7yiTz2m9i5uYUlklIs4ZLH9S0G1z/u4KZnuRR2i4+hAc48xMO3jsmjPpPSTlOm91Sai0mfQCijSk9zxylH28NEOPJ985enFa58MFOOYmNfhmy69On9XFxwlIch/YPdLFPebwMt2bFXx2X3O2jLx97UlWuAAU7Zz8V/n2hQn/VsoCIPEiiWQPoEQrGEeH5FCdjQOwNccFsWj7/Dl5jAHjfMX7lgI9CJZLP+9+xMhZ/e42DRmjA2fmNI8dFSlY3tP3Y3Fz87xaBfHQVCRV9iCS6cAiHBxo1D02SaIe8ZHH1lFsvXczQUQXDwDh4u+7SLkQOZ4aa7PjxjKSAehFfmyIqX1M669DbDgCOmeLjyNBf9s4QUh3dhFOtIgRBFq6SpTgaYvxr4+NVZmy0v7YdsxiSBZV89zAPs8jSKpk37xIpG4Bf/cvDQG7LDAAl198zIo3TgJA+/+0IeA+pVME+V9qcr7u2vvhymQIh7n4lo/QtxnoZ64PV5Cp+/3klxujd/msUoYOwg4JozXOy6tdCRKQYKhE27eM4Frn7Isft2UFP29AJQ2GuCh+vPymGgCAQeJNAHAhQIfYDGS8pHQKYYXl8AfP568YOm8zA2Wb78pyC78N14dh4Zh8s9t9Qb/u8Zjese02huk7M4AG7OymDKVgZ/+YqLAf1IKJ1vltJbTYFQOkOWUAIB+QKUPRhOvDqT7imGwINw3pEuzjnKsx4FPz0uB7/uutf90zV+9ZADmW7g0T2BiaMMbv9GHgMpENhF+kiAAqGP4HhZeQjIENieB075bQZzVqZzMPRlgP//m76Wx74T6DjvrXdNm6lsoOLclPaZ3viIwhw3FLjzvDwG9afM7J0Xz+iOAAUC+0XNCITDoMiC26ZpXD7V8YfJVH44GwxuAP59UQ6D+6VTKBXTEd9dDFx8dwZvLyKrnrgNHwjc/80chg4ohizPJYFOAhQI7A01IxAmv5HF/htaPHzvHw7+M8MJ3Os1q1ZtbmyA/Sd5+POXZd8FDnq9GWHxWoUf/EPjlbmSUZEel+54DWoweOBCF8MGeOxTvXUo/nu3BCgQ2DFqRyCYdw+HwwWrFH5+n4On3w8XNKRjoPT3aVT47jF5nH0YB7veO6RBYwvw3b9n8MwMie5MRz/pnUvnGdKLstrDI9/LY9RgLgUthh3PpQeBfSCCBGSgXNWocMs0jfunK6xuVsi7yqbXDacdOjaulZ+pcOZeviHlnK4DhYFRMXkxGoNsBrj/23lsM4zjXSFdU3JmXPR3Bw+/qdMd3LoFWBmt8Oj32zFqUCFEeU45CRSyzLuc96tUWfQglI1sKifOy0bPFhR4FDwP+GCZwuPvKrtr36omZQMZ23IKrXmD9rxCuwu4eWV3OfRlQZhLQLa1lS2f/GWDcTik5xy6o4c/nOVBaRcK3Jq3N7uJIPz5vQ7ufFkj58bDzr21qdz/ToFQbqLpK48CIX02L1OLyy+IOjZvsp4Av/zmHLBsHbB6A7CyUWFlk8K6DcDqZmBtM7ChTdlfTa1AYxvsuvjWnLIb+fi7RUb/6F9vcNnJeXxsN2k2kyP1bjF/b8ffPqxx87Pa2pvH5gQoENgrSiVAgVAqQV5fZgIFCA+7fwOsCBBhsL5VYX0LsK7ZFwnrWxTWbjBY16KxrgVY0wSsaVb2z42tvojwNpqO6L4JNn+RzVIbeil6GIgKqHIPd7DlH7+7wQ8+7mLYQN8T0hfPR2Rdmn1m03u3uvEpjT8+oa1A5BFdgRDZvslO0ysBCoReEfGEuBFwjUE+L9MRQEs70Nyu0Nxu7Jdmc6uIBV8wrFgP65FYKh6KJoW1zcaKDYl7CAMHN45q8El0feH5URDhTwsn5cdMALtua/C94z3suZ0HR2Iq7JRJXwa8Co7EhTerqmf+7XmN3zys0djaF15VrWpNbkYPQk2wJ+qmFAiJMicb03VgN0ZiEfwo9zBOwfOUjVBwXWPnrv41y7gAACAASURBVMUTIbn9RRSIoBAvw6pGYMla+aWwcI3G0rXGxkFI0GRrLpgGkN9suaF/odiB3WCHMcCFx7j48I4GGcePodBSIse7AjqywdTXNK64P4O1LQWcnsJTKBBSaPQyN5kCocxAuy8ufV93VcHa3U1kdLVLHjrXUHbENohMsIEJMqhLIKA/dWCto/y/B9si2DLskB/8QAREU6vB8kaNhasVFqwGZq/QmL/KYNk6heWNynorCjm0AvaeYPCDE1xMGev5GsZoeMoLhEyyFUI5XM6yf8Xj72hcfI+DNRuSzauQPtXdORQIfSXH60ICFAhp6wvUKmW1uOCUVRfN7RI0qbB0LbB4LbBorcKS1QrLm8QjoWxshAiDyWMMjt/D4LCdPTRkAhHC8a1omwj3lz5QNrnWisYoAiyHDCoay0YXUCCUxo9XAxQI7AUkUBIBGapk2+Eu3ghbnngjlPVI+MGUClobDO0POHY883dwtPMJURzfSmJS+YuF+vR5Gt+53cHy9ZW/XxzvQIEQR6tFq84UCNGyB2sTMwIbOWTsrIYfS+Cvfuhy2J/5PwxXcVpdQHHQJ4sL27cWKnzzVgfL1hMipxj61I14US8EKBDYRUigrAS6m8Pp20qHslYrYYWJx2bmUo1zbnKwdB0FAgVCwjp4RJpDgdCbguJWMBHpqqwGCXQSEMk1eznw9b9k7GoTHpsTiM8UAwOjotp/KRCiahnWiwRIoEcCMqTMWwl85c8Olqxlamp6EPiwVIIABUIlqLJMEiCBChMwWLpO48w/OVi0hh4ECoQKd7eUFk+BkFLDs9kkEGcC4kGQ/BMUCD1bMT5TDHHuicmuOwVCsu3L1pFAIglQIPRuVgqE3hnxjC0ToEBgDyEBEogdAQqE3k2WdoFQ+1RVvdsommd0Bo1SIETTQqwVCZDAFghQIPTePdIuEHonxDN6I0CB0Bsh/jsJkEDkCFAg9G4SCoTeGfEMTjGwD5AACSSMAAVC7walQOidEc+gQGAfIIEKEWCClwqB7bVYCoReEaGyAoF9v3cLxP8MTjHE34ZsAQmkjgAFQu8mr6xA6On+FA69WyY+Z1AgxMdWrGkNCTAiuobwu7k1BULv9qiNQOi9XjwjPgQoEOJjK9aUBEggIECB0HtXoEDonRHP2DIBCoSy9BC61cqCkYXEg0DQ3Y3dq1r+YqBkD+uNMh7Lz2WPBG+jPa1lF8bwXGO3wJafwP7MFmH/5wFGy18sj45rAOQM0NiisL7F34vh4rszWNEYD2zVriUFQrWJJ+9+FAjJsylbRAJVILDxFtahWOjUCArGuFYkhD/zBQDgKREJBkrJOf6/tuQMVm9QWLdBYXWzwppmY1Mpr2oE1jQDq5sUVtl/B9pdIC+/DNDcbnwxwWMzAhQI7BSlEqBAKJUgryeBNBIw9rseIgHESSDeANcoePJzT/7s+w7a8zK4AytloJfBfwOwbL2DFes9rG3RWNlosKpJY0OrnOvBs14H/wj9B9arAPEwBN6KQHJYH4XoA+7V1G0PpECoxYOZLG8yBUIt+hDvSQIxICCDvnytyyAvv9rs7wo5F2jLGTS3y5e+/3W/tlkEALCi0f/z2maN1U0e1rdq+7Xv2dE+mE7wJyVkyO8y/eALDn+sD0b9YIrBn7swvrchEAMd5208rxEDqtWrIgVC9Vgn9U4UCEm1LNuVbgIyxsqQa934drK/09UfDszBzz1PXPVAUyuwLpjf39Dmz/OvbPI9AGtbFFYFQmB9i8G6ZoWmNgXXE4/BpvEH6UYfldZTIFTfEklb7USBUP0+xDuSQMUJhO75rv56kQitOdi5fHHtL5U5fnH/Nyn7a+0Gme/3fxdx0NiqrAdBdESX7Vt84RF86fs/p4+/4gbtww0oEPoAjZdsRIACoaIdIlnzURVFxcLLTkCmBJasBeavUpi3SmHBKvm7PwXQ1CYCABBPgXgP8q7q9Ox3TAV0deT7Ln4VaIFwZcFmixfK3goW2FcCiRMIfJ32tSv0+ToKhD6jS+iFfAhrbtjQBOE6gY2+37vYxx+kNYzy7OAt3oBZy4C3FzmYuQx4f6lMGyi05eWXH0cg8QPiEeCRfAKJEwjJN1nkWkiBEDmTsEJpJ2BDA4KoffvBLisDlII2BjLdL2H7cs6y9RqvLzB4YRbw2kIHc5b7QYUqzD9gcwvIdICsDKAqSFu/okBIm8XL395ICYSkBXiU31wssRYEqt0v/YB/qxKQy0uOAJkGUDZY8N3FCtPniiDQWLhaVhQEXgQbkOjTCS6113ddG1ALdrxn7QhQINSOfVLuHCmBkBSobAcJ9JWALAe0qwcageWNCnNXKLy3ROGdRRqzVxq05UK5IosEw2DBzp+F97ULCiVmQH7AGMK+miPW11EgxNp8kag8BUIkzJCcSmz8tc2Ahk0t2/l135nhRzICLl8PzF+hMHulwgcrgA+Wacxe4ScX8nMI8CCB4ghQIBTHK+1nd+cppUBIe69g+6tKIIz+zxuDJWs03lyo8NYihdnLgUVrgaVrtV1VIAenB6pqmsTdjAIhcSateoMoEKqOnDdMKwHP+PkHnv9AY9osYOZSbZMPrWuRFQZdsgdax8vGeQbTyozt7jsBCoS+s+OVPgEKBPYEEiiFgB3Xg1iAYEfC0EtggwaNn3PgpdkK97+m8eJchdZ2ZZccurJZAQ8SqBABCoQKgU1RsRQIKTI2m1oZAn6khZ9uUMRB3tNozwFzV4koUHjsbY0lazW8YKkhfQOVsQNL3ZgABQJ7RKkEKBBKJcjrU07AjxSQ/QxkqmDZOuCVuRqPvCU5CvxUxbK1sb/kUHfkMuDCgpR3myo0nwKhCpATfgsKhIQbmM2rJAFjUxRLCuO3Fyu8PEfj+Q8UFq2RlQfiJ/A2WmEY7lbI4MNK2oRlhwQoENgXSiVAgVAqQV6fAgJdMw74f27LSUpj4IUPNF6dp/DuYmBds2a+whT0hrg0kQIhLpaKbj0pEKJrG9YsKgQ6UhYYNLcpvDJX4eG3/CWKC1cDLe2dmxhFpcqJrEes0mpUO//m5hanQEjkU1DVRlEgVBU3bxZHAuIzkJTHL87WuP15x+YtWNss0wvBvgiKyQrjaNek15kCIekWrnz7KBAqz5h3iAEBbWAjBuySxeBL1cYWKuCthQpXPajxyhwN18ieBwwxjIFJU19FCoTUd4GSAVAglIyQBSSBgL9BkggCY7dOltwFs5Yp3P68xoNvhEGHYZhhElrMNiSdAAVC0i1c+fZRIFSeMe8QBwJBwqOWNo33lgAPv6Xw4JvaZj6U5YmyVFG2XKbvIA7GZB2FAAUC+0GpBCgQSiXI6xND4P2lCo++IzkMFD5YroJMh7GKjEuMLdiQ0glQIJTOMO0lUCCkvQekuf3BvML6FvEWKEx9zcE7ixVacgw6THO36Fvba79qYdN6UyD0zZK8qpMABQJ7Q2oJSPbDNxco/OVZjRfnyNbK2k+ZzImE1PaJJDWcAiFJ1qxNWygQasOdd60xgQ1twL3TFW56xsHitYDnaQBuEG9AjVBj8/D2ZSBAgVAGiCkvggIh5R0gFc2X9Yr2UJANFBeuVrj2UY2H3lTIe+Iz4OqEVPSDlDWSAiFlBq9AcykQKgCVRUaHQDj4i0ZoagVemQNc/XAGHyxT8GyCo2CrZk4rRMdorElZCFAglAVjqguhQEi1+dPReM/Abqh096sObpumsaG9a5SBSAj5OxcwpqM3pKeVFAjpsXWlWkqBUCmyLLemBMJQQ0mHLJspScKjJ2dou8nSxgeDEmtqKN68YgQoECqGNjUFUyCkxtQpaaiReQPxChi05xSeeE/hz085eH8pkHPpJUhJL2AzmSiJfaAMBCgQygCRRUSHgD9hALh5B39/CbjhSY0VjYDxAw54kEBqCNCDkBpTV6yhFAgVQ8uCa0EgnDD4zcMObnjS30OBuQ1qYQnes9YEKBBqbYH4358CIf42ZAu67L64qgm49jGNf7zg+MsXufMi+0dKCVAgpNTwZWw2BUIZYbKo2hAQfSDLGOcsV7j+PxoPv6mR8zijUBtr8K5RIUCBEBVLxLceFAgMYo9v7w1q7nkGM5Zq/OmJLisVGG/QJ7vycegTtkheRIEQSbPEqlIUCLEyFysbErDBiMbPgjhjicLvH3Xw3AcKbTkqg1j1ki6KpDPfZecPexIs3Z0bq3ZXobIUCFWAnPBbUCAk3MBJbF44aIg4WLJG49L7NJ6fpdDuMt1R7Owtc0PKnyJCEC/SKfE6Lb3phBE9Hb1bmgKhd0Y8Y8sEKBDYQ2JHQInnQHlobde44FaN52YruBJz0GWQiV2jkl7hHkd08QT5m2N1PSXMbilpLYKVqxsR6thBwwqM2nuNoihYKBCS/lBVvn0UCJVnzDtsQqCHd37hnIxBU7vC9//u2ERIod8gii/pwhuVnDPFsyMbZ2sNaEk/oRS0khUlsu9FMDlgPOs2MMZDJpPBuOEOhg3UqHMM6rIZONogm/FTYNdngH4Nm3qHZAkr8OTbbTaNNo/NCVAgsFeUSoACoVSCvL5wAiWM4CZwRYu4WLNB4/ePSvpkJwofj4W3P4Zn+sO5v6FV+P/OOQGgPqtQlwEasgoNWYP6jEHG8TCsHzBuhMagfhkM6acwYqCHUQPzGNigMHRABoP7Z9C/3kOd40LD/9UhHgrkJHU77+YM/vNe7T0IBVa5qqdRIFQVdyJvRoGQSLMmsVF+jsR1zQo3P6txy7Oy6ZIKphWS2N5otMnmkrDxoMLaw9CBDoYNUBgxwMPQ/grbDM9j5OAMRgxQ2Gqoi9GDNYYP0uifycFReTt34Iu70G/k28xYb4L25w86Iw6LajQFwpZxUSAU1Z14cjcEKBDYLWJDoKUduOdVjT8+EaRPtg7oEtwSsWl5bSoqA/uAOoOthmew01YethmuMWGEi5GDgLFDDEYPcTCwLid5rIMs1v6XfOh18AMLu4z+/jYZsvjE/936JLp8/RfpCKiZQIhJl6NAqM1zk6S7biIQYtLzk2QBtqVHArY3Bl3SdYGnZypc9YCDuSuLdUYTclcCdqpAeZBgz44R3QYJ+pMIMv8/eayDvSdq7LWdh62HiWfAYNgAjXpHvALFHJV7p9RMIBTT/BqeS4FQQ/hxvHU3jyo9CHE0ZFrqHIawK4MPliv8+K4M3lzgB6fxKIVA8O0eKDD5TWYBxgzycNiuDThyZxeTx+QxsN5D/zpjBQOMDtRaKfct77UUCFvmSYFQ3v6WxtIoENJo9Zi02R+/DJpzGpfc7eBfb4g3O9xfoUh/dEzaXI1qWn1l0w8YOA4wcZTGZw9SOGEvDwMzORtv4Ccm8Fcg2NUGNmYgWswpECgQqvG8pPkeFAhptn6E2x5mSvSMwW3THPzyQR2MWdEapCKMsMeqZbTB0AHALuOAkw/I4sPb59A/m7dxhJ3TOn78QOfqkehxp0CgQIjj8xenOlMgxMlaKaurfMQ+O1Pjwts1NrRFb4CKsjlkYO/8+vdr6ihguxHAnuMNTtzLwR7beWjI5CPmFyicKgUCBULhvYVn9oUABUJfqPGaihMQD8IHyxS+/88M3ltsnd0Vv2eUblBqaJ9/fThNIKsOFA6YBBy3u8F+E4G6jB9sGGeqFAgUCFF6ZpNYFwqEJFo1AW1qbAWufMDBva9q5L0ENKjaTQhiCPrVAYfspHHcHh72nWAwrL8kJQqmEuKsDoI2MFFSzx2LQYrVfuiSdz8KhOTZtIwtKvU7triq2PXxkoEXwJ0va/z2UY1V6zs38SmutL6fXd1W972ePV4ZBBJsO8zgrMMzOGJyDiMHGUjsQZIOehDoQUhSf45iWygQirFK7EeOYhpbg3ODDDqyffPl92u8PFfDgwdtl9jVoD4xvaVrPBy+SwY/PMFg3JCcFQZJxEeBQIEQ00c0NtWmQIiNqZJfUXnht7Qp3PCUwo1PytSChrE5+sUpno6jFA0qmyENbvBw9hF1OOOgNtRrmZsJck0mUCFQIFAgpOOtULtWUiDUjj3vvAkB1wAvzVa49F4H81b6M+X+DgyyN2Cy3OPlNn7GAT40Djj7MOCQHfOoz260tVK5bxeJ8igQKBAi0RETXAkKhAQbN+pNC3MdyJevJOhf26Jw5QMK97zqRL3qkahfKJnqtMH+kxS+fLjCPtvl4WgvFbtcUiBQIETiQUxwJSgQEmzcODTN3y1Q2Ux9j7+j8aM7HaxvSaA/vELGyGY8HDpZ4ZwjDaZs5dl0yGmhlw6B0HXDq+I6EVcxFMeLZ29OgAIhTr2ilAnqyLbTb1TOBb7yZwcvz0lPvEGpJqnLGHxiHwdfOqQd40fYHRWSsX6xQDDpEAgFwujmNAqEvrPjlT4BCgT2hBoT8DcOmjpd4Ud3ZpjzoFdr+ILK8zx85sAMvnN0Owb3sxsrpO6gQOAUQ+o6fZUbTIFQZeC8XScBG3oAhda8wQm/zmLJWtLpzUnk5z/y8JGdNX5+soeRgyQjYriJQrr4USBQIKSrx1e/tb0KhL7PgFW/MbxjvAj4KxQM/vZ8Bj+710lFYF2pFnKUwd4TNX54ksHk0e12h8WOfRdKLTxm11MgUCDErMvGrrq9CoTYtYgVjhEBhVVNwH/dovHmfEmjmEI/eRHWEjo7jgW+cxxw0KQ8tCRAEpdCirmde3MGT77HftNdN2IMQhEPF0/tlgAFAjtGTQnc9YrGlQ9orGsRRzlf9N0ZQzwtkglixCCDLx+m8Jn9XDRkZMVCTU1X25vblbEK59zk4OkZaQbRsxkoEGrbRZNwdwqEJFgxpm1Y2wxcfLdjlzdKkiS+5ruXB5IjwnGAT+2r8K2j8xjWL+XiQCamjIFRGZz2e4V3FrPn0IMQ05dgxKtNgRBxAyW5ek/OULhiqoMFq8JIF77oN7V3uG3zxFHAb8/Q2H5ku7+aUWZkktw5CmibhwxO/BUw1/YfHpsSoAeBfaJUAhQIpRLk9UUR8APqgLa8wu8fdXDTswquK4mUZT0DX/TdCQRZ0virMxpw/C7NsFknU38YSOiFUXU44WqDeSvZb+hBSP1DUREAFAgVwcpCeybgD3DvL9W4bKqDl2YHX8J2x0YOfptzMzhiioPfnZGDMm6qAxI3E08mi+OvNphPD0K3jxs9CHwPl0qAAqFUgry+KAL2y88AD76hcNn9DtY1i6+8t9X/Rd0iUScPH+jhui9msdu4lqBd/FoODewiixN+RYHQU4enQEjUq6AmjaFAqAn2dN9UghOvfczBX5+TqYVgYsFOqtOD0LVnaGVw2kEZfPeYNjRkGMXZlY1MVbWbfjjpV+1YuIabe3GKId3v1Eq1ngKhUmRZbrcERALMXq5w0d81ZixJ8r4LfU8x5sskg62HKVxxKrD3+JwfncHAxI4+JQKhTQTCVe1YtJYCgQKBL9xKEKBAqARVltkjAdcDHn9H4fv/cGygYqKOss2UKHjGwyn7O/j20XmM6J+3a/45E9PZWySotcX1BcKSdRQIFAiJepNEpjEUCJExRToq0poDrnxQ42/P86Xeo8UNMKQ/8D+fMDhu17xd9SG/uNKjq0AA1rb3x8m/asbyxmw6Hp4iW8kYhCKB8fTNCFAgsFNUlcD6FuD06zKYtyrwmVf17vG4mQRxHjIZ+O8TXUwY6cWj0lWupUwxrGwZiNOuacayxkyV7x6P21EgxMNOUa4lBUKUrZPAuk2fr3DmnzJw7Yq9svnkE0Uq63g44xCN847yUO+4iWpbuRojPWf+mgZ88focljcmOZal78QoEPrOjlf6BCgQ2BOqSuDaxx1c96imu3wL1LcaqnDR8R6O2VW2cubRE4E3FmZw/s0eVjZxuqo7RhQIfHZKJUCBUCpBXl8wAXGdf/76DF5fwMyJPUMz2GcicPmpGtsMbS+YbdpOFA/CI287+OndGrJslsfmBKorEOgNTGIfpEBIolUj1SY/La6s0VvZBBx/VRbNsp2AkgwI/s95dBLIOsBJ+xj8+CQPWcXMiT31DYlBuPm5frjuERdNbexB9CCwD1SCAAVCJaiyzI0I2Oh7Azz+rsb5t2ZkryHKgi6ElFJ2d0I5BvVT+NYxwOn7tQWQKKC6fZyMwVUP1+Gv04C2HB84CgT2gUoQoECoBFWWuZlAkO0H//cBjZuflcyJjEHoqYuMGujh2i9q7DLOH/UoD7on5ZoMfvBP4KHXJWcEHzgKBPaBShCgQKgEVZa5sUCwL3CDL/wxi9fmc8jbvHvINIwIJ4Othxvc8a06DMq22G2dJf8Bj80JrGltwDdvzuOlOYAmpG67SEYbPPL9PEYPYg8igb4RoEDoGzdeVQQB0QerG4FTfp/FisYiLkzRqTINI16WIz9k8LsvhKsXuAV2T13gvaUOfnyHwtuLRERRRXXvQTB49PsuRg2iiyVFr5KyNpUCoaw4WVi3BAzw6jzgnJuyDCjrAZAfl6HwxcMzuOjocOdGRmv01J8eeTeLX/5LYdFqjwKhh9eOIx6E7+UwepCiJ4qv5j4RoEDoEzZeVBQBA/zzZYVfTHXQmuPXXk/sPM/DLz+XwYm7Myx/S/1L/Cq3PpfBtY8oNLby67gnVuJYmfrtPCaM4E6gRb2veHIHAQoEdoaKE5BX+JUPOvjrsxo5Zg7unrcxyLsu7rywAbuODT0IFTdNLG/Q5mZw9YMKt03z4Fm/C0Vnd4YUgXD3BTnsMIbBrrHs6BGodEIEAl2xEehLPVbB84Bv/VXjiXcdRpx3Q8n2XqPg5tvxzKUDMbJfU5TNWfO6LV2vcfn9Co+8paDDfbBrXqvoVUBSmf/zv1zsvBWnYaJnnXjUKCECIR6w01rL9c0G59ySxWvzhAC/9rrtBwron8nhuZ/WIwNOMWzpWXl1fhY/u1fj/SWuZNhgj+pZmuMvX/Gw3/achum5P/HjckvPGgVCWkftKrZ7/iqDC27LYuZSCoSesMtrarthLh66SP7EF3p3nILVsnj0HQc/vUdj9QbxvHAtaLd9yndL4Xdf8HDkFGEUhT7FwbiKr92y3IoCoSwYWciWCIjn4L/vyGDuKj9Sn6kUu6e158QsbvsqNxbono6/DLTV07j9+SyufiAPz4g3ih6pnnjJcHzZKQaf2oc7gvIN3TcCFAh948ariiDw6NsKV0x1sHQdPQg9Dn5QOOxD9bj2800c8rp1H9hMEVi1wcGvHsri3lfcYOkeBcKWvFLfOdbF2R+RUE4eJFA8AQqE4pnxiiIJ3PGSwjUPO1i1gfPFW5oLPX6vBlx5KgMUu59e8N3Ts5drfPfvWby/hMthensMRVKdfoDBT06STb96O5v/TgKbE6BAYK+oOIEbntT40380NtjYO76pevIinLRvA644mQKhWz4GEEf50zMbcP5N7fCMU/F+G+sbBAEbh+4E/OGLOYZyltuYKQmnoEAod8dheZsR+PVDGjdP02i3GYQpECgQ+vCQGIN2V+GP/8niD48ZZk/sBWEQo4iJoz3c/60clNJ9gM5L0k6AAiHtPaDC7Zed9iSD4t9ecJB35cVe4RvGtngDehC2NAFj0NiqcdYN9ZixWObUoxCVH+3OJlMMdY7CMz/KY2A9eUXbWtGsHQVCNO2SmFq15YCf36dxz6s6iDpPTNPK1hDfW+kLhMs/1civ427ICqM3Fg/AWde1IOdxeqGwzuf3rNvPyWP3bSkQCmPGs7oSoEBgfyieQBHzb02twCX3OHjoDWW3NOYMQ08TDMBJ+9TjilO4iqGnDnnFAw245elw9ULx3TZ9V/ii4OJPevjM/ukM6hSHJaVR33s+BULf2fHKAgisaQYuuTuDR94OciAUcE1aTzl693pcfToFQnf2X9tah1Ou8bB0bUpEZhEifIvPiwE+uY+Hyz7NXAhpfa+U0m4KhL7SK9cD3Nf7x+S6FY0Kl9yt8cR7ms6DHm3md6YDdqzDn78o6QFjYtwqVdMYg7tf74eL/5GDBwbbFYNdetYOoz3ceX4eWceP3GD3KoZgus+lQEi3/Sve+mXrgZ/e4+DJ95j1bsuwDXYcrXD3t9q5JC0AZVMjySZWJoOv3Ai8OEf8xQqyCRGHud4eXZ+RB4Mh/RRu+moOk8f6PBko3Bs7/ntIgAKBfaGiBBatAX56r4Nn3hcPAl/s3cOWoVBhq8EeHvk+oBXdwZZTsJb/xXkNOOf/8mjJ+Vs7i0dBcZTrZWZBepQIAgcNdR5+cLyLUw8QpGFWRfoRKvriS0jhBQsEBnskxOJVbsaCVb5AmDZL+/vF8L20mQXCVQy5vIuXL+uPwdkNVbZSdG+XcxV+dFcGD74O5L1gzyF2pAIN5vcsrQ2O393g8k/n7fbYFFcF4uNpKFggkBUJ9IXAgtX+FMNzszh3vOVPPoN83sXU7/fDjiO5YZPPymD6/Dr84B8GC1dTWfbl+Quv2Xkrg2s+n8M2w+UnZFkKyzRdS4GQJmvXoK0UCL1DD5dhGdfDdV/K4IidbU7q1B/N7Qp/fCKD254DWtpTj6MkAKMGARcdn8fH95DljhQIJcFM0cUUCCkydi2aSoFQIHVjYJTCeR/L4NwjWgq8KNmnTZ+fwRVTFd5eyLmpUi2ddYBT9vNw0XEuGrKllsbr00KAAiEtlq5ROxetUXaK4ZmZvmuT3y49GcL3I3x0F41rPt+eykjzICbRTi00tTv4y9MObnraoDnHnlPq4ythsPuMB370CRc7yWoGHiRQAAEKhAIg8ZS+E1i+Hrj4HgdPvae5hqEXjMYAO2/l4eZzshiQaZFospQJKlmUp+xSvDcXZfDjuzRmLfV/RmHZ92cwvHJof+D7x+dx0t4UCKXTTEcJpQsEev/S0VP62Mrl6xUuuUfbPAh80W8ZonzljRzo4dqzHOy2dQ4iGFK1mk9ScUOhsQ34/eN1uPnpHLTsQpg6EH182LZwWbhS5tT9PXzzYx6GDSj/PVhi8giULhCSx4QtKiOBNRsUfnK3xuPviAeBEqE7tDL+yRpQ+U7uXw9840iNsw9pS5c4sBML2TM8sQAAIABJREFUPoOX59XhW7carNngJ/axR7EuBH64bNzVLEqDHUYDl57sYs/t6EUo42susUVRICTWtNFo2PoW34Pw8Jv+FAOPLRNwNHDMbsDPTvFQ76RvY6LmnIMf/FPj0TfT4D2pZnYZX2xlHIPvHOfhtAOkf/nCtHj1xac4LQQoENJi6Rq1s0W2e75X477XHLiS6KZG9YjLbeV1PWUc8PNPAzuPyaXOi/DPV+tx2d0ucvmUbMpUtY4Z+GcMsM9ED1ee5mLMYGqDquGP6Y0oEGJquLhUO+8Cl0/VuOMlB3mPUwyF2E3mhy842uDU/dwgPXUhV8X/nFkr6nH+zXksWOXY6QYe5SPQOb1nUJ8BLj/VxbG7ilNBUi9TtpePdLJKokBIlj2j1xoDXPmgg9ueU2h3uVytEAOJ1/fEfSSxjYfh/dOxL0NzLoOf3KXw0Ov+Fgy+lKRIKKS/FH2OAfab5OHPX3ZhJ/5SFQlbNK1UX0CB0I35qzkzmIbed/0TCjc+mUEzs+EVZG4PHnYYm8VPTsphvwnJFgh2gQKAW5/P4nePAE2tvijwZ8b5ZVtQhyn6JGNDD/74pTwO3pHTDEXjS9EFFAgpMnatmnrbcxrXPuZgbTNjEAqygQEcx8PXjsziS4fkMKAuuSLB84BXF9Tjyn8ZvL3Ig/HE7e1LdAqEgnpL0SfJbpiivXYaq3Dr13MYUF90EbwgJQQoEFJi6Fo2c+rrGlc94ECSJtGbWYAlgtV9Eqz4s1MMpozNJ4pbGDcvv89fncGvHwIeextwA28CpUEBfaTkU6STAd87weALB7mQ1TM8SGBTAhQI7BMVJzBtlsIldzuQtMs8CiMgg2dGefjyEVl847A21GeC+fiYI+yIKjAGa1oyNp3yP14wWN9KWVBYzyjPWWHQ4sRR/jbQu28TlBvz/lUeOiwlJECBwL5QcQIzlih89+8OZi/j0rVCYduUw/Cw9TDgqs862GPr1kS4X0LvQXte4aZnM7jpaWB1cxiWyM/YQvtHKeeFK0RkCifjeDhmV+DCY12M5bLHUrAm8loKhESaNVqNWrYeOO9mB28vllcSP1F6t05n8hqtDA7cQeG3ZwD9nHyQ2Kb3EqJ8hrTuvtfq8ZuHXCxf1zVIjn2jGnYLN8VSQZKkwQ0GXz7Mwxc+7HGnx2oYoIL3KHeAPQVCBY3FooWAgXwtnnuzxnMfOH54egKPSuaj0wr4+hEOzjuq1fKzX4Ax2sgp3AfAGGVjKR5+bwAuvaMVa5r9vRdKP8r9Wiy9RnErYethBj86ycUhkw0c2S8rbg1gfStCgAKhIlhZaFcCEjT9P3c6mDpd20A0HsUQEGAaIwbkcdlp9Th4Ugs6HPHlGFuLqUofzw1NLkmzHnm3H664N4fVTfJTJxEekT5iidRlYo0DJ3n4ySdcTBgRriRhEqVIGakGlaFAqAH01N3SKEguhOv/o/0UujyKJGDsl/fOWwGXniLL01w41j1cyFFJ30Yh9/eTGqxvU3jk7Qz+9LjBwjXhFyonnAokWNHT/M0y/f70uQM9nP8xDzLtIMLU36uBR1oJUCCk1fJVbLe4xGWzpv+5M4MWJksqmrzNKWg81GWBI3dR+MYRBpNG5yFTD1E/ZFpheZPG3a9o3PmiwZJ1Cl6wnDHqdU9b/eQ5bcgCFwWbOVlPVQz6WNrsVM329l0gRODDpJqgeK++E5AXz6ylCmf+vwxkd0cefSfQvw44aleFrxzuYeII2e0xmm7gMB/i7BVZ3PKswiNvAWuauZSx75av3pUjBwE/OzmHQ3cK7hkKOj661TNCRO7Ud4EQkQawGtEnIINFSxvwqd9lsHA13zKlWcygoU5ZT8J5R3kYPyzv+/AjloHKg8azs7L48xMuXl8AtEo1mT65NNNX6WqZcpgyzuAXp7rYYUznFEPEuliVaKT7NhQI6bZ/VVoffk2ef0sGT7zLte6lQTeQF3h9VmHXbQwuPSWDCSNag8G3tJLLdfWq5jrc9IzC3S97WLPBr68c/lw3BWK5OFeinNAx7GiFj+7i4pJPuhjSv2NzjErckmVGmAAFQoSNE82q9WFuySi7reyfn3Twq387wS59HChKtq8x6F/v4RenN+DInVp8rnaJmm8jZSQxlVexgdlm47Npof2dF10vg6dnZnDNv13MWmbgyrJGTmKXbOZaFdCvDjjzEBfnHuEho6PnpaoVl9jctw+v6k3bRoEQG2vHt6L+QKLx+gKDz/8xC9kshrPR5bNnQ8bDyQdkcPr+LrYd5iKb8Qfu4H9BpFkFotGNgqcMNrQozFmVxd9fVHj0TRdNbSJSNBS8su7KWIb3Xfmgp6SkbYcbXHishyOneMg4KWk0m9lBgAKBnaFqBDa0AcdclcHqDfJ1ywjpksGL0BIngVHQ2sOUcRqf2ldjv4l5bDfCoE57MKoyUiznaSxbpzBvlYPH3lF49C0XK5vErkGdrOeARi7ZxhEoYL/tDS46zrVxCXFYORMBZImpAgVCYkxZm4YUksMu/HaVcy+4VQYUiUPg4FEOi23qi+lfZ7Dbthr7T/Kw53iFHUYZjBjoBtM6hd6xY5JiowtEaqxtyeCDZQZvL9Z4ZQ7w2jyDVU09lEsTFwo80uc52uDEvQwuPMbFiIGRriorV2YCFAhlBsritkzgjpcULr47Y+fJOT9dud7iaA8TR2UwYaSLXbZW2GkrYPJYjdGDZGtff0nBxlEgQUJkG0no1ytvsmhszWBVo4u1zcCrcxVmLDGYs0Jh4RoPzW2ynZSCptirnCFrXHKYJrt/FvjqER6+dpgbuRUzNUaU6NuXLBAK+YJMNEE2rigC81YCp16XRRO39y2KW7Enh+O8ZMjrV68wpB8woN7DiAEG24/JYugAja2Gehg7KG+zMvqLCzTa8h7eX1GPpWs8zFuRw6omhXZXI+8ZrG5SaG7zpZ0cfphD4G3g6oRiTRSL80Nri82HDwD+9MU8pozz41sYZhwLE5ZUyZIFQkl358WpIyABbLLc8cXZfL1U3PhdXPySiVFcAzKH7MgWCEpDK89uzLPpkfcUXA/wPAPPrkCRkENZphj+ObxIljD6KyXEj8Aj2QQMPOw1XuHmr+ahJQtzspvL1skbo/W2rSsQ3ky2JNA9gVweuHmaxq8fEsc0XzHJ6yf0KSbPpn6LwmnBa8/I47Ap0czgmVT2RbWrjLE/FAhFkefJpRLwjMH0eRrn3+JgHdMul4qT15NA1QjYaSstSx6Bqz/rIstlj1VjX6sbUSDUinxK7ytfIYvXKPzsXgdPv0+3dEq7AZsdQwLh2pZthwP/70v+UloeySZAgZBs+0audfIV0poDbntO43ePOsjnu/jDOOMQOXuxQiTQScCXCCMGKFx6ch5HTKFASHrvoEBIuoUj1r5wX4bnZyn87L4M5q6UCvqpehn2FDFjsTok0IVAuORxcD+Fi453cfI+EvjKI8kEKBCSbN0Iti3MALyyCfjlAw4eeF0HCXl9mcCDBEggugTk+R3WH/jhCXmcsCc9CNG1VHlqRoFQHo4spQgCfjS0xt9fULjmEY11G/zlcxQIRUDkqSRQAwIiCcYONvj9GZKAiwKhBiao6i0pEKqKmzfrSmDOCuDHdzl2VYOsseZaevYPEogwAbtzJ3D4zga/+VwOdRl6/CJsrbJUjQKhLBhZSF8IeB5w7WMO/vKsRks7PQh9YchrSKBaBMRfMHqQwS9Pc7H/9vQeVIt7Le9DgVBL+qm/t8GMpQoX3p7B3BX8Gkl9dyCASBMYM9jgvz7q4eR9XSim1o60rcpVOQqEcpFkOUUTkG8QSen7u0c0bniSWVeKBsgLuiXQuXuov624xLfwKI6AMbI/h6wt8j17k8d6OPsjHo7d1UOWUwvFwYzx2RQIMTZeEqouL6IlaxVOvTaLNc3yItdQCJdP0auQBBtXuw3hShmjZO8JD4P7we48mXOlJuxTvdkjXHDsiwRg7wkezjnSw74TDepEx9sTyLE3jkn4dwqEJFgxpm2QpEnh+/ovTwNXPpCB7D7of7PwBRRTs9a+2kEwnfSgbYcb/PwUF3e8rHH/dGbu7M04viiQoGEXjtLYf3sP3z3Ow05bGbvRl4gD+3zG1itTw3wrNbx1b3bv6d+rJhC4hUtfTZTw64LtgtvzCp+5LoNZy8KeQoGQcMtXrHm+HwoYM8TghrPzmDASeGOhwuX3O3h7kYIVpjx6JCAioc5ROHgng/8+IY+th/qrF/hkpq/TVE0gpA9taS1Oo6B64A2Fn9yVQUt7aex4dfoIhH4n+32rgEmjDS75pIe9tpMdhgxcT+GeVyW9t8by9RKbID+nCJWe4idQ9g9xDAxoAI76kMFFx7kYNiB9fYkt7iRAgcDeEBkCazYAV/xL2+yKRj5ZeJBAAQTCTYQkpE7G/MljgAuP9XDQDi4c8YsHLoPGVoXfP6bxz5ccux8Ie1gINyBoxOsCnLyvwZcOdTGgvgD4PCXRBCgQEm3eeDXO9QxemqNx2X0OZnPZY7yMV9Pa+l/ANtp+K4NvHOHhIzt5aMh2DoDyr6IT5q0CLr7LwUtzJRiWh0/AWEG+w2iDMw52ccJexrIjH/YPCgT2gcgQkBd4cztw6zSNG5/S2NAWLLMy2vd98kgogb5OqIXbB/kxBxNHGVxwtItDJ/sDnH90lh3GHrw0Gzj31gxa2tI+BHZOzHxoaw9fO9zDIRuxS2h3Y7MKJkCBUDAqnlh5Av6XzOI1CpdN1XjqPZlq8CDL1biqofL043UHXzyGEmDsEA8/OsnDwZODpXjdNMYOh0bBNQa3P+fg8qmZDuGZLqkgrZXnCsgYhd3He3ZKZrdtDLJMRxKvx6DCtaVAqDBgFl84AYmelg8+efVPm+ngknscLFwjHlBZVlV4OTwz6QTCOXPZ5MvDwHqFP5zlYp8JXme4fXcIZMWMArTxNxc/92aNJ2dIwKKUk6IOJhysU87B7tu6+NVnXYwbImyY7jzpT06x7aNAKJYYz68YgY5gM7vWGrjhKYU/PZFBc3sMFxBXjBIL7pg8UAbbDQP+93QXu23tD/69DfMdE1XGYNYyjQv+6mDeypRtNW4MGuoUPryDh0tP9jB0gHhWgiUMvRJk/0sTAQqENFk7Zm2V7Hc/vy+D+18DPPtm7+31H7MGsroFE+iINghUQEYDu25j8L3j89hju4KL2ejE9hxw73SN3/xbY22L379kSstOZyXMo9CZfhoYMcDgxL0Nzvuoi4asn1KZBwl0R4ACgf0iugSMwfL1Gj++W+OZ95kFL7qGqlbNZGrAs+l+D9je4BtHuth9W+MvZezLYYAVjbKjqMa90x205f3pLf/oY5l9qUe1rjHAtiMMTjvQw6n7ehjY4OdAqHl8Dx2E1eoBRd+HAqFoZLygagSCd/V7SxR+dp+D1+Z3bh5TtTrwRpEgEHrA67IGh+1s8LXDJP2vB61LGN6MhOoB7ywGfjHVwfT5kjMhmX1MnASyjPHsj7g4YheDQXXJ1ECR6KwJqgQFQoKMmdSmeC7wwhyFX0zVmLXc/7Kz2iEQEHSRJtXyHdsG2QZmtMLH9/RsnoNthgd7A5Sh6XkXePBNjasf1FjemBzvgZ8s0k88PWWch28fI4GcXZeAlgEei0g0AQqERJs3OY2Tl/hj72hc+aBjl0FCybefhjJe4uaLk2O1UlviK0Bxgsv/v3yoh3OO8NCvofwTALLT428eVrhtmoN2twSvRKlNLtv14g0BPG2wy1gPV53uYvwIQHOmrmyE01AQBUIarJyANspQkXcN7n5F4w+PO1ixHvDscm4d453lEmCYCjUhlAZaKQyqNzj/KA+f/bAHHaxwKXeIgOTfaG73cN5NWbw0NxQlFWpcFYqV2IKMAxy0PfC/p+UxpL9/U+5BUQX4CboFBUKCjJnopgTeZvnS+8eLCjc+5WDpuiR86SXaaiU0zkBWKmw/Gjjnox4+OsX1txu2SbMqcNgUHAbz12icd4u2SyDjfAzuZ3DsbjKt4GFwgywB9blFLh4wchWKs9XLX3cKhPIzZYkVJtDuAne+pPDH/2SwYl2EX34V5pC44m0iI38Y618H7DdRNg3ysNf4KmT4CwYq+e2FDzQuu19j9vKQcEUkSYXMZzBmMPDp/T189kAXw/pJEqgIrFSoUGtZbGUJUCBUli9LrxAB8ST8+02F655wMHdF173q4/QyrxCc2BbrL7ob1GDwib0MTt3fxaRR1Z03l8A+15N4F4XfPeJgzkrrmI8N0e1GGJx5sIfjdvcwtH9EljHGhh4ruikBCgT2iXgSkBe5AZ6dqXDtow7eWiS7+jIlczyNGdbaYNgAhQs+lscRUwxGDQp94pX3Q4erYiTqX/pRax749xsOrntCY9HqeFCdMFKmFAwO2sGzHhh/TiHwHsRH48QDdkpqSYGQEkMntZnytffWQuC3jzh4Yba2iV/kK9C+FuXlyCxx0TO9TCXI/ovW9d0pDvadYPCDEzxMGuWhLlvjEc0ALTnYoNg//sexCZWi6UuQzq6w/WgPvzjVxU5jFTKOv6cJDxIolQAFQqkEeX0ECBgsWK1w1YMOnnhXWxexqAQrEviijIB9ulahc9tuBV/Q1WeAz+zv4dyjXAwOsvv5g3HtjBfuCyLLa294UuHPT8meIFFz2ftLGfeb6OK3Z+YxuF7bzat8arVjF7EOx+qUQIACoQR4vDQaBMKX+bpm2CWQ/3pdYfWG2g4w0SATvVr400CeFW/ypbvDKOCsQzwcs5uHetkXwOqHcKCr3SAn9Qi3/xCR8Ot/O/jrCw7a26ORd0M8Yw1ZD0ft4uK7x3kYOcgXC6IL/ARJ0bM9axQ/AhQI8bNZWWscLn0qa6E1Kcz/Ms3lFe57TeGv0xzMXK58bwKPyBDw/ToaIwZ5+MiOHj57kIddxgXfu8Gg5s+ad3oaalH5TaMe2nLGioQ7X3asJ6GWh2AaNgD4xN4ezjo4j1GDfXHQkXeSqxZqaZ5E3ZsCIVHmZGMsAQO8vlDhb89rPDVDYU1z6HDlZ1Vtekjo44HdaGmvCcCJe3r46C4eBverTY36clcRBtc+5uCfL2psaKteToGNxYrBVkMUPneQawXCiIF9aQmvIYHCCFAgFMaJZ8WJQPA1JYFlj76jccdLGjOXypbRFAh9MWPpawj8YNEJIw1O2NNYYbDj6Gi46gvlYcRvD3/q6oYntRUJEsRY6bn+MKNkOHew9TDgm0d7OHxnfzdGHiRQSQIUCJWky7JrQKDLcGYUWnIGs5YBf3/RwYNvaLTal3rMj9JH7KoCGFgPG2Pwqb1lB0aDfvWwKZMlVXYcJJudFumY31dYth7481Mad74s/amyLfBv60/MyG6MPz7JxR7bGdRlqmpC3iylBCgQUmr4NDVbPv5kXfu092WzJ4X5q52OLYD8uHQGNJbaH4I1Ixv53WXo3GO8h3OP9LD3eA8NWQmeq+yAWmo7Crle+pN4En7/iIN7X9Vok4QcZZQ6trQg0jD0IMgS0J+d7GK7EQxALMRGPKc8BCgQysORpcSAgHyFSbDZ/z3j4B8vAKubFCRCnSHf5TGezW6gFOodYPwog7MPzeO43Qwcu4mCXa5fxmG0PHXuayky5bChXeGXDziY+prvmSqb9LHTGT6vrAObNOp7x7vYamgZ79HXhvO6VBGgQNiSucv7YZCqjhXJxgbLv1xj8MFymUdWmDZL2e2j2/Jle71HsumVrpRWBsMHADuMMTh6V2NT/Q5pMPBkS27Zmtuqg2Q8UPbjXoAq2GDFax5WuOfVDJpay5eYS8SW5IQ4fncPX/mIwbhhUU1+lAyblv35SAgWCoSy9wwWGFUC4Vyyv7OdQXte2SyMj77j4JW5CjOXiYchqrWPWr38N6CjAcn//6FxBh/eUX55GDkweDsGgiCSuwiWjLNzBBDvwY0SuPiSxorGMghNA8vw0wd4OG1/D6Ml5bQtNiajTkyqWXIXSEEBMRQI7H0p6JdVaaJ8CYr3uy0PzFiq8PIcZXfye3MhsLa564teEvvI9r9p2xUvzEWw6aBnMKQ/sMs4g73HG+y5ncEuWxsM7ZesaYRCO6FQam03uOsVB7dM05i/yp8fKCrcwg88sLeUpEfnHOHi43t4GNSP77tC7cDzyk8ghgKh/BBYYkoJ2HTMfoCi/C5JlRatgfUkPP+BwjPva/t3r0sSmnTNAm+0yM6mRJYphAMnGew53mDiSINxQxXqM777256dtix+wfJH2VK5tQ14/F0Hf/qPxqzlxXkSwsDEyWOBbx7j4aBJklkypc8lmx0ZAhQIkTEFK1J9Av5GN/Jy75KGzgoCSYqzZgMwfZ7CQ29qvDxXobktmHiufkVrdEeDhgwweRxw6A4e9ptksN1wYGCDQUPWQGtfWkn65DC+oLhhsfdmRT3TZ8fqjWApYnseeOEDhd88rPH+Um3THhd67Lu9h4uO9TBlnAdHyz4Vsq9CuYkWWhue1zcCyfL4UCD0rRfwqlQRMFizQeE/72k88LrC6wtUkEmvy+u7S+R5MGwGifF917GkFwYk73PlXvgbrde3t/UHbn/FXLia3p8o6Zwu6cxyGC72lOx8+050cehkg4N2BEYP8j0Elat5cjpTSFYSc131gINpsxU8T+wu9g9cLPb30B4KQ/oZu1nVmQd7NoVyUVMTyUHHllSRQKHCmwKhikbhreJMwPcyyJi7ar3CGwv9mIU3FgDLGx20tBuba0ECH13X/67suvdf5+BduWG2I2Kg60dMmODHLkGE/erPan8HRUm206/OYORAZacOdtvGYMrWBpNGGdQ5XaZfgipXruZx7hcb191Ss8x9+89eoTHtfYXX5gMLV0uKZgVJm1CXMdh6qId9JgIfnWIwfqRcItembY4mObZPYksoEJJoVbapvAS6JK3xZyM6gxVdo7BgtYc5KzQ+WK4wf5XGsvUGjS0KTW2yDM7P5tjarpD3JM4hUBllHm1lcJEiM46/30FdFnYOu18W6J81aKgDBjUAIwYajB0CbDXUYPwIYKshIhCAjMQRdHgcgu+L4FPW/s2UbwlfeY0TsdKsSgv5bTx11e5KfzDIG4UBdQb9s13cMoG6k+kuTitEzKYprg4FQoqNz6YXRqDrPHPoaA/D93w3fqfzWLREYyuwpklhRROwqklhbTMgW1Gvb1FobDNoaVOQwUKWVLbmFXJ5PxBS5q83nbOWr/5skFZXa6DeMVYESAId+XlGfpYBGmTAqYP9NaBe4gRg19HLZkhD+8uaen/lgQiFzZYddngZwlCCjtYFzvDYLLArzKCVPGuzhR9d5WSna2czR0FXG1SyfiybBIogQIFQBCyeSgJ9JSDDhAgBScgkyyrlz1Yk5P1sjjJgWIGwyQ1k5joTCgQl3gHJTOgLA/m5/F7nKGQzxooG+TvnsPtqJV5HAiTQlQAFAvsDCVSLwCZf6nb1hBzhLpOScdA6mLvMP2wyI9HpuQjDDIMVBLJk0yaA2ngKpFpN431IgASSR4ACYVObRmyVSqHRpsnrmslqkZ8joEuO3nCm2sakdfVLb94B/QBHWY7ZuZLAPytcphmkMpZ72HPKHOCQLFOwNSRAAgUSoEAoEBRPIwESIAESIIE0EaBASJO1a9LWiLlkasKANyUBEiCB+BGgQIifzVhjEiABEiABEqg4AQqEiiPmDUiABEigjwTogOsjOF5WDgIUCOWgyDJIgARSSICjdwqNnqomUyCkytxsLAmQAAmQAAkURoACoTBOPIsESIAESIAEUkWAAiFV5v7/7Z0JmFxXdef/976q3hep1a21tVuSZXmTbWzZGLAxYGKWECdAkmESloQMH0sggSQkQ4AwCZOBGSDOfBBmhgSI+UIIMGAmbHawiTfZlrBsedFi7Wvv6r276r073zn3vlfVLbVcXf1qP+9zu1vdVe/d+7u33v2/c88inS05AbFKl3wIpAG1RkA+dPmOuAiEfMnJ+4SAEBAC2QRkHZL5UGUERCDkPaByN8gbnbxRCAgBISAEyp6ACISyHyJpoBAQAkJACAiB4hMQgVB85nJFISAEhIAQEAJlT0AEQtkPkTRQCJQjAdliK+6oCO/i8parEQERCDIPhIAQEAJCQAgIgfMIiECQSSEEhIAQKDYBMQgUm7hcLw8CIhDygCZvEQJCQAgIASFQ7QREIFT7CEv/hIAQEAJCQAjkQUAEQh7Q5C1CQAgIASEgBKqdgAiEah9h6Z8QqEgCsklfkcMmja4qAiIQqmo4pTNCQAgIASFQKQQUAJLC5XqIQCjXkZF2CQEhIASEgBAoIQERCCWEL5cWAkJACAgBIVCuBEQglOvISLuEgBAQAkJACJSQgAiEEsKXSwsBISAEhIAQKFcCIhDKdWSkXUJACAgBISAESkhABMIM+MUKrSrWdUo4s+TSQkAICAEhUNEERCBU9PBJ44VAhRAQTVwhAyXNFAIZAiIQZDYIASEgBIRAdRIQYbqgcRWBsCB88mYhIASEgBCoegIum5EJMxsppzzCLEfKgH5llLKZj6LXERn7C/pVpR0iECptxKS9QkAICAEhUFQCrAMMLfP0PwXjREB2JsTZmiESCjAVKg8AEQgxTbNyT5kZUzflNEJACAiBGiOgAK8eSDRBJRphdAN0ogkm0QBo+n0jVF0blNfE/zb+OJAahZnsBSbOIBg/C6THSVdU3CECoeKGTBosBISAEBACcxPINv/zYz+b+A09yRsFu01gf2+f+hUv7KqhE6ppKdDczV+6cQXQ0AXV0AEkW4BEM6DroJQHKG2/+CQeoD0o0O9oiyGAMQEQpIBgCmbqHDDZBzPVBzNxFhg/DTN2AmbsFP/bTA/ye6hNym1RGN6v0FCKzkWnLY26EIEgnzMhIASEgBCoHgLGsAigXX8rCsg3IPy3gqrrgGpdB9WxDbrjSqB9M1TLaqi6dkAlrb8AuxLYrQETLtzzJUTXde/J3ppQyrgtCgWkJ4HJfgQj+4GBZxD0P4lg8BkrIkwq2pqb8FCSAAAgAElEQVSgNlCjii0TRCDMd9Dl9UJACAgBIVC2BIxOQHmNgNcElWyCalkLtWgrVMcV0Iu2As0rAfr7rOXWGRpm/d5aI9z6nEefrcxgqcCOC9aaYS0C7twg6wErGPsrsjxMnIU/sAfm7MPAwNPW2pAeBvzJrPPk0Zx5vkUEwjyBlfTlErJTUvxycSEQDwH5IMfD0Z2FBEGyzW4HNHZBNZMg2Ay1eBtU60agoYPN/+EaHAoDWrqjBTv0QgyXbV6s3fM6f1vAmIWWBCcA7FmtRYB1g2uH/ae7ZugFSX9Lj8EMPYfg7EMwvY/DnDsAM3G6KEJBBEKsM1VOJgSEgBAQAnEQYLP6LP9/XsdpDSVfgOZuqNYN0G0boVrXQ7Vv4q0D1HcAJBrc03ocbSntOUIrRgBM9iDoeQzBqZ8hOP0AzESPc35cgIC5SOdEIJR25OXqQkAICAEhcCEC7sk72r8nbdC0Errreqiu66DaLrG+Aw1LAa/BGQOcw0FoGyiRc1+hBtSKJgBT/fBJJBz4KoL+PTb8sgCHCIQCQJVTCgEhIASEwMIIhFEH8JK8XeCtfj3Ush1A4wqo+sWAJofCCxxsq7cLZqm8/xfW89nvzmReyraqmGAawdmH4T/1GZj+p2a7VMTShMIIBPYitR6XdmuHwjcoJCTI2mOxWzByCAEhIASEQO0SiKIFaEHntUPzd3gJqK4bkNj8diiyGtS1zS0KahSfCVLw9/0v+HvvAlIjsVMoiEBwIaY8wMZrhG7ogqHGpycAfxzG+FW0PxT7mMgJhYAQEAI1QYCfjd3/jFHQSsN4DVAdl8O7/IPQy24CVEIeJueYDWRRMEPPIr3zj2AG9sQ+ZwoiENhukGyFXvMGeJvfCVDMaTAN07cb/tH/i+DsI5wgQhk/9g7JCYWAEBACQqAyCEQpi8nCXN8B1XElvI2/Dr3q1Zx8iJ0Uw2RGldGloraStxyCKaQf/UMEx34AxLymFkYg6DroNa+Hd+UfQTWvijJW8XZDeoy9L4Oj3+P9E0wPFRWoXEwICIEKJlAYZ+0KBlLZTefhTLZCdV4Lb/Ud0N2vAeqXZHICcPds4iI5LkCALAgA/L2fg//clzilc5xHQQQChZp413wCeuVt5zmJcHeoU+OnbKjGsXtgeh7nrFHZjpgyIeIcZjlX2RKQBa9sh0YaVhgC2f72evE26HV38lqh29bbtMVy5E4gFAgHvwF/z18B0+dyf28OryyIQNBLb0Lipr8FKGnFrJU+Sk5Bs8SkYUYOw5z+OfwX7kZw7oCrmBUmyc6hB/ISISAEhEAhCIh4KwRVe85kG/SGt8BbdydU+2YuhlQdEQeFQ3bBM4cC4ch34O/+BDA1GGsDCiMQlt+CxMu+xAUuZluGojhO1w32YCX/hJHDCF74JvzD/wIzNSQmpViHWU4mBISAECgPAqrzGnjbPgDd9RKuf5CJdJN9hPmPkK3rEBz9PtK7/nOBBELMSll1XofEjZ+Halnjwhtz6zZVwDJ9TyL91F/D9Dzioh1cTCsVuCC5YWQ/Kjea8iohIASEQOkJUMB7AB+KyiSvvxPeFX8I1bicGyZWg3jGxz/6PaSfKJRAiKeNmbPUd8C7/PehL3kbNNXRzvHgkA1loPw0gmP/j50uzOgRdmyMjvyrZuTYCnmZEBACQkAIxEfAcGpkclxPbP9zgMoqc0XDsGhRfFeq1TNVlkAgZbj4CnhXfgTeipt5crz4QRaCrDSZZG2aGED68LdgTvwQ5tw+mwgiU3HjxU8prxACQkAICIGSEiDLr15yNZI7/gfQdoltC2fRCxPolbR5VXHxyhIIbsuC9poS2z4AtfIWKPZOzd5jOn9fI1sg2EreNIl8YPgg/OP/iuDUvTADz7JzoxxCQAgIASFQAQR0kp3W9eo7XGOjHLsF3mLIVGssPqWY9+0v2gEDn3wQKmaLwXWGlWP7Zuht70Vi7ZsyaZbDaTKPWEaTHocZ2mdDIw9/G8HoUS5QEaZ0tsYHuqI4uhT/wyBXFAJCQAhcmIBaugPJW77OBZX47pzDfd8+LEYVkTNGB/ZDy9QmCKsyUzIlqk2A1Chn66WsvbxmpEeB9KTdpqbvQZoTC1GKYvhTcw8ZJW5KNEBRvQev0X7VtXJZaU75XLeYIzGoamRW45xlxAqgovhXuCiG4FgFCoSQvmlchuTW90Bv+m0LNKyLncNEic4RTor0KMzIUU605B/+FjDRy+cLy3nP45TyeRYCQkAICIECE0hc+xfQm98RraM5CQTefmA1gSjyLUjBTPUD42dhJnuB8RMw/HMP1NQAAhIHLAKmrZU58AHOr+OzMKAU/zABEARcF4i/wuqIYd2gGQ+vCUArGOVBKfqZvuptKelEA1DXDtXUDd26Flh0GfSirVCNS+1Da5G2wkOXvMraYohWdfrBqb26Fnib3sHOixzzmqOSzJyKYxii8TSk/kYOwX/+y/BP/CvU9JizIFBRKDmEgBAQAkKgHAh4V/wBEpd/kC3IL3bfp0XcTPTBjB2FGj8Nf/gQMHYMZvQYzNgpmNQoFFkB4BZ7t+gbWuwDsjjYRHyhCCFxwVdVWUKDLc38jD8Dz+wNcH6FofWEzhcaLsL30lu1jdIj8UBb6IlGzulAaaL16tuhW9bM2laPfzRsxUvAP/JdpHd/vEBhjhdtd4x7KYlG6A1vtTGwDZ2stDIKLk+P1sCH3/s4gmfvQtC3C0iNseIMd7mcCA1lSvwjJGcUAkJACAiBuQnoBBJXfRRq9S9Z8zwd6SmYsZMwo4ft4j/8AszoUYB+pmyAJAIqcrfYrZeUCKr7NfA2vwOqfQuQqI8yBZNxwT7GLryDvNYpwD/0LaR3/0WMpQtsPwqSKOminxVdD73uV+Bt/U+glMw2tebC9mxswYoUgtM/g9n/dfhDzwJTfWxKYr8Eu51VnD0huVGUAYEYRW0Z9EaaUOMEqmI6GyDRzAWZ+H4/2e8q+7q9+jCALfI7qFR/sowDJj/d13fC2/IOeBt+02YWpi2TGH3lQguJf/BupCsl1fLFPs5s/dFJqFW3wSO/hM5rInNPvv4D4R4Vf45SI/BP/RTmxE9henfBTJ4FJWCyFcFq/EYj3RcCNUNAPvDlMtRRSWd+aLb5D+g7P7jRfj3fmAOXCI9e5J5eK/B+bVtusxuSk6L9t4Ze9yYkrv4zoHGp2/KIaXScDwVttaf3fs46acZ4FNWCkNFW1AMN1bkd3rb3Q6+8NatIR+i9uoDZQRkZJ3sRnH0Uwal/Y8sCKVaal9aw47was3Y48hUnMY6FnEoICAEhIASqkoBi/zvv8g/RE3K81mwDpPd8Gv6+/wP4k7HSK6pAOK/lJK9a1yJx6e9Cb/wNl1DJ2phiCVdkh5ceBIN7ERy9B8GJHwMU9uJMCaGyjdPkE+voyMmEgBAQAkKgKgiotk1IvOLvoVrW5RLIkVOfQyfF1M4PIzjybeu7EeNRUoEQmZ4alkBf8ptIbH0Px5ra+NcFWBAiQNbUw6EtqWF2hAkOfA3+yZ/ApEbsfpC1esn2Q4yTSk4lBISAEBACswjUtcO75uPw1r85pvWNzm8430P6ofchOHnvrGDNhY9ASQUCNz9McKTr4W34NXhXfBhoOL9MdD5dzVSOzCTWILFgBp+Gv/cu+Gfuh0pPc87GeARJPq2s9veI+qr2EZb+CQEh8OIEjFePxKbfhrf9Y1GOhxd/18VfwQmlRk8g9cjvw/Q+ttDTnff+0guErCYZpaG7b0fi8g/Z0BC2IlhLQuwLeJCG3/sYgv1/z86MwfQgFGXXsnLBtco5y8SOXU4oBISAEBACNUVAeRzBl7jhs1BhBsYYAAT9e5De+UcwQ8/EcLaZp7igQMgO1Cim7d1mzjZcJ9zb9kHoZTcBFPFgFUKsnWfrAjvP+gj6Hkdw5HsIeh/nmFz4Ey6ygjxtyeM21kvLyYSAEBACQqCcCRTA8EkRG96q25G48QtQyeZYek/NDI7/EP7uT8KMnYjlnNknKS8LgqvmSFpANa+BvvR34a37FaB+UexrdGb7wRkp/CmY/j0ITj+A4OzDwODTCNJTceuS2AdQTigEhIAQEALlT4AWc73iFiRf+j+h6tpja7C/7ytIP/XfgdS52M4ZnqisBEJ279i5sL6dHTq8zW+Hblnn/pxJoxkfjYxcNFTkY/gAbzuwM2PPTpvbWw4hIASEgBAQAnkTUNCrXoXETX8DlWzN+ywz1kl/Cuk9/w0BhTgWoMpx2QoEm2lCcwUwvfxl8C7/AHTHFTafN/2+gIfNzDgNjJ+xIZJUPZKsChQiSdWz3K5Dpeb6KiA6ObUQEAJCQAhcgAD52HnddyBx0+ehvIZYGFGxqvTuT8I/9v3YrezUwPIVCG67gTNvqQR0+xZ42/8U3rKbMyU2Y0F8/kmi7QfK9kXpmtNjMIPPwD/wVfinfgZFpUM561IhrBkF6pScVggIASEgBEpGgCpC6vV3wrvhM1BcYmDhRzDwNNJPfAym94mC+MqVr0AI6zdnMaR9G++aj1m/hJgU2IWGyNYit1kSbFZQyp9tS0maoWc58sE/8ROb1tJFPix8qOUMQkAICAEhUDQCXInRsw7wZDUOy0EXqAEU5uhd8h+RuPbjYWzegq/kn7wX6cf/BGb8TK1ZEGayC3NcU2lNb9NvQW95F1Rzd1aKZvv62MMhZw1hVPdh9AiCw99FcPp+W4VsaggGlMXKhTyIcWHBk19OIASEgBBYCAF+2KODg9boac+zTu+Ny6BaVkO1boBJNkGlRm1FSfoaPwmkZ/mdxRHJlmzmSsaJre+N52k/SIGLNFEEgz9dkLWvfC0Isxdm929+qofirQa99fegu27gOtzhUQyBELaBky5NnIY5fT+Csw/BDDyNYPQYb0sURM4t5JMi7xUCQkAI1BoB9nYnYaCAxhXQnVdBLX859LKXQrWsAT1wRnWY/UmQyd4c+Tb8Y/fATI9AuWJIsdzP6xcjce2n4K19Uzzrw9Qg0k99Bun9XytYtF3lCISsuFSbGlkD7RvZZKPXvhGqfgkPdFEcGNlUkZ3V0sBQMajBp2B6HkNw9hHeioi7cEatfbalv0JACAiBhRFQQOt66OU3w1v2UqBzO0DWAzhH93B7Ifsi00PwD30T/tOfh0mNxrf4Ni5H8mVfhqY2xKA4zMhhpB/5IPy+XQUrF1AxAuHCk0RBNXRy9kWyJqiWtVngKdphYVNrvu9m20ZqAv7oIZiBvTAnf4qg51FgmuJTFcLkTNm1H2xZ0PleSV4vBISAEKhhAlnZ83kHwfmI2RLLBkrXQy3eBt39Wqil10O3bgTqF+dshqdwd/+5v4P/9OcA+LGAVq3rkbztW7y9kf9N31Y7pj5SauXUz9/F29vWShJLM2ecpMIFgu0LOX/oRVvhXfcp6I6rbBEm5lUAYhcZA+tXaTM0GnJenHYFoo79AMGx7wMTfVlOjy5Lo0RCxD+r5YxCQAhUNQGDICq2526qvEgqXQe19EZ4G94C1XktVMOSGQ7tuW5B08McWYXTj/4+zOkHYmGplt2E5K13cxRevmuTrd5ID5sp+Pu/ivTuT/A2CGVpLMRqVxUCwaoEwCTqkNj+SXibftNOlgLnSzhv1tBAuV/a4bLmAf5tagzm8LeRPvA1mOH9XGHSvtpzNSVjmYNyEiEgBIRADRCwvmjOcADl1UGvfT28zb8L1XF5FCXAQkIpBMZAh74IOdCxzug+zMn7kXrw3bEky/M2vZ0fYunIVajMbmq4wqjUOKYffj+CEz9xpQhy6FQeL6kKgUCDScBZSXlJ6DVvgnf5+3jLQelkHljye0tYm5vUnLMDnX8icoTpeQTB4e8g6NsNM9UHlZ6IvUxnfj2QdwkBISAEyp+AoRo9yVa+x+vuV8NbdyfQvMo23G3bhv6F2f5iuS7MJCzIMmGGDyL90HutT9kCj8RNfwu99pfdbkB+z/s2BB8c1pj60e0wUwMFsRyEXa0KgZA9brw1pTyozu3wtrwbevlNQLLNhbjkNygLnBcXeLuBCdIw5w4iOHUfOzVi5AjMxBkgmHKWBVfFMv6LyxmFgBAQAhVAwOajYatsuGVMIYrNa61/wYpXQC/dAdXQEXtfonD2sePwn/gzBKd+lv813INr/R332bDKhVoQjEFw9HtIP/yBgj9YVqFAcEmOaH1tXg1v/Z3QG95qY14LqrXmM38MuyqEctdMDcL07ULQ9wQXjDJDzwH0u6jwdAFKi82nufJaITCbgExJmROFJhB6cHuNIAc/3jpYsh268zqoto1c6Ze1QwG8vO392cCMHkF654dtTZ58Dl6ODFTLBtS/7l5A1y1MIHDDDNL//m74J35U8BWt6gSCHdaMs6BKtEAv2wG96Z3QK26OLcXlxefKi989Z1STtFOGwyLN2HGYoecR9O2COfMgF47iDF8Fnwr5zH55jxAQAkKgMARUw1KoZTdAdd0AvXgb0LYRqm6RDXF3zuB2OyF+y7C9PxuYnseReuj3gMm+PDtp7+36krchef2nYVyK/nzbzAkfJ08j9YPbYFLDBV8VqlIgnDeS5J/Q1A294S3wNr8DqGvnSRWqxEKp0DxnlHVgTA0DEz0IBp9BcPIndhtisp//Bo7hDdhzldsusZJ5o5Y3CgEhUFwC1meMll92G+R7WfQA5DVCL7kKqvvV0J3XQzWtsFsIuq7gjQwf2myS/QDwp+Dv+iTSL9ydnyO5sx5Q35Kv+Ad4q1614D6QVdk/+A34j/2xfRKOXxvNaOMcAqEIV14wqvmfgHNhL70Z3tUfgVp0mY10cDG05bP9MLNfxqSh0lMwJBZO3Qf/yHe4cJRhq4ILeWEz2/x5yDuEgBAQAkUnYHeBofhhRwHaA5q74a15HfSa10O1rIPymuwWQhHva5kifbY2gzl4N6Z3/TlUMJXXSmyTOBqo5CLU/fLDoFpCCz2ojal/+3WYsw85K0phAdWGBSEaFVeUo3UtEld8CHrVq4G6Nuf1WljQ+U4MVtthIhAW2z6CoWdsHYhT94HKfSoqTe0EQ77XkfcJASEgBIpCgJzIdT1Mshl62c3w1v8q1NKXAF5zltOdzYobWhsKrxTILyyz1Rsc+S7ST3wU8P28L+30AfSKlyFx6zdi2QoJhp5H6t47OcdOMY6aEgg2k6GzFZApa/2vcuEn1bYJyiteOOS8BpaTYGR9brJ/Tg0jOPsogtP3ceZGjJ+GmR5yFSbndRV5sRAQAkKgcATCIknkV7DoUo5AUMtfBvYzoKvaPQcXwWX/XexHNkpuZ8ZOIjh4N/z9XwHSk5ZHnubZ0A89sf3j8C59Zwz+bwbpZ+5C+ukvQAWT7M+QZ9NyHueaEgizqdB+jl58ObzNb4daeStUwzI3H4o9NXMer1kvtNEQtA2BsZNcEzzo3w1zbj/MyBFgspctC2GKZy5hXSldyxeJvE8ICIGiE7BPyzaLLIcmcliiBuo7oNvWAa2boDqvge66zhZJooyHVhkUva3hBQ1tcThhgvQYgp6d8A981ZrvfdpWWNjBTBItSL7ybugl1+QvNMKQt+kBpB58D/uj2SJShc/TX9MCgYafQwmTbdCrfwl6/ZuhO6+B8uoXNjOK9O6ZkRDuomYaZuQoR0JwNMTAHpjBZ9nBkcpRK0M10IvUQLmMEBACtUEgDOejCAOqedC+FbrjSrYWqEVb2a8gu+puCCVfb/44oEZJhybOIjj0TdC2ghk+ZLdrY3qSUp3XIXHzl6Cb6OEzzxuvy9AbnLyXczKQlcNwlmC7/VzIo3YFQhjnyimZSYklodq3QK//Fbsn1tBVSO4xnTuIzExRVVObaMuqS3+CfRTM2Alg8Bn4PQ8D/U+C8i7IIQSEgBCIjUCyFXrJ1dDLbgIWXw7V3A3VtBxINEdP6eHuqP3u/h/TQpxPP9j62vsY0s99EaZ3p93Xj9k/37vsvfC2vR8qSf4V+S3nLGTSU0jv+a8IDnwdxp/kUE+VHf2RD4Ac3lO7AuGCcBSQbIFeegP0FX/I2w9Rmk43u0upeHMYzzleQiE70wimR4CpPrsVcfI+TsxElSYNVStjmyClqybzIEVHuFPRD/yfbE/kz1/eKQQqhEAUmmfbO9sTIHz4oPsEOXjTtoG38lXsZEgPVaquFdANsT2BL5iaK2TkkuNkqh6mRuEf+Br8ff+bi+jZUMuFH+FWC3+va0Fix+fhdd/uiinlJxCo7cG555B+4j/nn7Apz66JQLgQOJpUyWYkrvggvM2/w9W3wophRS8AlefAnv82K42tP4ILj5zsQXD2QQRH7kFA1oX0WNbb7GR273Lf85zgsfVBTiQEhEAhCYSfd9BW5Iyk704weA1Qy27kwkhq+S1QjV2Zqop8XymvLcxM6GImw64Z2of0Lz6F4MxDAKW8p3Y7ORQHW+uKoTjdf+L6T0Mt2mbvuflaEEyA4NC3uM0gJ/QiHiIQ5hAINvm3huq6Ht6VfwDdcQWbyypVIIQFreyqH21COAOJgZkeAM4+Bp9qQ/Q/BUz1wpBg4EJSNL85cLmIU7NMLhWzybFMeiXNEAIXJOB2Xq3vHomBZAvQ0MX3P7XyldBdN0A1dGYsq+4s/Hq3MNr7RHk8TIShi1zVcbKXqx+mn/0iMHY0qxqkW7xjaXJYb1Ejsem34F35YYCyPy7AAhtM9MCn7YUX/rnoWEUgzHGjsA4szuzesAzehl+zSTzaN0chkfZjEMusKuLtiiIfwlZnylNnKp4ZYGqAwyZ92oIY3MtFpMiXgdVrkCpiWyv7UtkRqZXdE2l9TRCgxESUZbZxOfsPcEEkqntAD0f1VBCJZrR9UMhsQYZkwvtg+YgD+yxE9vkJBH2/QHDwGwhO/JhT2vPfQnETY5NtRV8F1C9C4uo/hd74Vpv5Niw2Nd+JRNaDnkeQ3vkRBCNHY8mlMJ8miEDIgRbPHwrL6dwOvfZNvKcEUtGzxEFl+ifMDYA+XCY9Cowchhl8jutCmJFDCMjTd+yktS64+0K09xaW3Q4VRwnimXMYUnmJEKgBAuEDwOyHmPDhh8LwGqGaVgIt67kAkm7fxBEIqm299SeouAcgJwpYnRuY4Rdgjv8Q6UPfBEaPFnzMQ62hOq5C4rr/At25fd7XjPw8qAupcfjPfRH+M3fBBH5cwRU5t0kEQg6oMlUVSRku4RKjesOboZe/HAgTLBWoaEgOzSvcS1x4TWRd8KdgJntsVASF2pzbh2BgL3/nuuS8n0eOjm4nk1WzHEJACBSfgBUHnIuA6rZEgj0BVb8Yun0L1OIrgPZN0C3dQFM3VONSwGuIPI9KnacgX2ac3yA1yo7Y/pF/sY59lPSoCDcjZq4S0OvvROKaTzqRNb+ehOGXbOUYPQr/gXfBP/d8SZJHiUDIYezCEEJ6qa1O7kE1r4ReeRu8Le8EWjfwWarOgmDDF1zfItcFR4w+hGMw04M2x8LwIVuumspWDx+CosqUC9h3y2FY5CVCQAjMQcD6ElDkUQBoKpe8DqrrGujOa4G2S6DqO6HrF8GQjwGLCHdw1JJV9tbvqMIQk0l++CCCfV8B5Q2gBxoVBAicX0TBu0OLRUMHvCs+zD4I+TzyR0UElYK/7yvwd3/S5maIcSsk11EVgZArqQu9jqIbWtZBX/pueGvfCE2xrlSJkT9wtRQWSDeVwPonBNMIJs7C9O5CcObnMH27YcbPkK0sioSIHCazqp1Z8WUfXirxvrSQaSTvFQIXIzBjXQjD9qLPSyYVO1kLjAqg6AGmcRlU57U2pTFlMGxeYYsfcQEkryK3DrIZZZLEhfHn9t4RHPoXpJ/5gt0CNTH5S81jYabFXS/agsTNX4Ru35zXxI4sCEEK0/96KzBS+K2RuRoqAiGvIcy8iRc7nYRecQu8Kz8EtG2B8uqcOSgHvTqPybfAphbv7dHWhGLTHvktmJ7HbEjl0LPAFDk7TsMElNnRt6VVrZ0iiqqoPOfP4uGVK9UWgXCzgMMOjd00sP7THn8Zut8kW6EWXwZv6Uuhlu6Aar8ESDRFZr+qs26G6YdpKtCDycghpHd/CubM/c7omcO9twDTyCgP3po3IHHjF6CoSmUeB403LQvm4D8ivfOjJbXiLFgg1Lqntq3/5CgkW+Fd8jbOxqhb1l8wtWge86Xi3mI9eTNewrz0uzAoyrVgyAQ48CRM/14rHqYGgNQwkBqxHsaBy5FeIT2v9c9AhQxTxTbTbnEq++BBWwKJNqiGDmgqi7z4MrYQcMG5+vYoH5C9JblcJguIwS9XaDY6YZr9oYJjP4C//x+49kwUmRB5UhS5B14TEjs+A73mjXlvOXPfJvsw/ePXAeMnS2rtWbBAKDL+MrxclgmAn5wV9KLN0BveAm/lrUDreo6AsEc1mgsuNCSZpEyZgEpOpuCEQ6juyY9hGBg9iYAcHSlaguKTKaSSnCEn+wDK/kjFqOQQAhVNYL6ffZvVVdUvARqXsgOhal7NkQZkHeDaBvWLOVcL+xqEdWVsUcTIdSBKaVxxzgThYM/sDffMGATjp3kLMzj8HfZ7MsG08w/Lil8sQjGj2VNSta5H4tXf5XHL12pD0Qr+81+C/+SnSz7jRSAUaggSTTYssvsO6O7XcGxx9kc338lTqOaWw3nZ+5gsDBO9MKScx88gGD8JNXYKwehRmLHjMBN9UD4lb8oYXkPTaxSJ7X4ojZGxHEhKG8qCgPOn4UTlkW+NzWZKS3qUe4zWPJ2EqlsM1dIN1bwWICfo5jW2nkHzKnv/qGuNoWRwWZDJqREXskRSHQJz+n4Ex+6BOfMQgsm+vBfinBqR04syD0QJ8ke75s/nnfcgu/AeRYWlH3ofDEUuzFdX5tTe3F8kAiF3Vvm9smEJ1OIruQCU7n4t4CpFikA4H+eMG4JzoDb+NG89cIGp6UG2KnCY5fBh9lbmstZTfVxrgkIs6SgXZ0fZesjvI1Mt73LLRsbr1iYLYSdmnWwDmldAtW12FoG11rGwoQOoo69WKK8xsgW4XfM21S4AABtoSURBVIaSmpuLPi6hLxMbXwME/ZTs6G4EvY9aJ0TaiiyBlWBODiqJ5O33QC/eZtf1+RSiCvsaTMN/6rPw9/09EEza7JQlfNIRgVDIWR860pDXMBc2uRqJre+F6noJFEVAyDGTgKsnH4WVhnuvYbQD76n6gJ+2lSqDCa5yBsr0OHIYweBzwNCzCEYOAxMDMEhVrGFVpkblE3DTGSbZBE3bA5SFtWMb5yBA8xrrWEh5B/irjuPnrcNuZkVg3x3nvjsjXXrl43nRHtj+AgFZEA98zVoNxk+xUyI5a4aYSrh+ch+c7oNatgPJV/6TixKZn0Bg6ylZlXoeRXrXxxAMPV8W9y4RCC86TeN5AQ2/pkmdaIBe+0ZbArRlrZtetjBKZsKXesrH0+fSnMVwdARoj3J4v3WEHNgDc+6AvbmwpcGVlaCnOVbo2m1Y2Oxr9qacdZNm73Fn68uyUliPExmr0oxzvFcNndsuZNPNLkESrUtU9ZTGn81EgavWp4FkM3+uOU3xkquhOq4EWtbY7YNSPgrGiyu+s/GT82yvCZttBv4UgmPfh7/3C5wwqFyPUMAld3wBesOdFzKNvngkAnFIjSC959NsJeGw8TI4RCAUcRCyw5VU0wqOePDWvBGgVKeJ+ixrmSw6uQ3LhTbo7K2el+7I8kChUL4tSDV+Cubcfo6ksE6RZwD6Pe1t+inATFkLBTlGcgjmLN9SZ/KzxiHKdZFZWnJrs7yqHAmEOfSpsp8dWRchSNEDZAHUCRjtQelGm0uAfIzqO6FaVkJR4iGyDpBDctMKqGSbSxLmqqe6DotAuMDa6Z6co7+Q2JoesrVgnr0LQe9Ol5m1HGeNuznQlGnuRt3t99hslHkc9FBDiZ38XZ+AGT+RxxkK8xYRCIXhet5Zw/1ILpSUVe1MtW+B3vBW6OU32xtMglKdikDIf1icQMhOfxmeLDsxnDMjGErBSr4N42fZt8HQ3iZtWUz2AFODXNHSpMagKGukP+aExDQLiIrMNJc/2Op+J4uApDX3J5uARCsUWQMSzbZQUUMXVNMyax2g7YLGZVzYCByhlBGqoQiwZdWtpSoKvRMLwvn3xXAbloQB+RcNPIXg6HcQHKeiStNOqZX/LVFveRcSV33U3b/n/1Exo8eR+sVfcN2IcjpEIBRzNLKDdLOvS08pHVdDd98OveLlrmJkJid6MZtYfdeKXMmzbtSz0zVG7mSZfNLBtI2oIOfIqX6OS6af7dcAMD0MTJ/jME0zfQ6G8ziMsm8E+0VEyZ+qj2j59CgXF++s17AAaIQiAUBOglS5sG6x9Q+ixZ5C0+rauBCbIkFABdmoVC+FG3p1tko6a/fMxlKYFtf+OlvYh5as0I+u1kV/5uaXKSFFFhZnMejZyU/Qwan7OcTZRim5LbxchrmUk7JuERI3/S3X5lE6K211Tm0ybLkkH4v0nr+GSY+X1VaUCIScBrGwL4qsColmqEWXQi9/GfTqO6AWbXFxzvb6YqIs7DjkdHa6oVGClvQkFAmI9BjnajDpESA9bpM9TQ3DpM5xeWwrKIaslYIEBb2eqmDSlkaU38Fth7gbIpm5M9aJbFU5qzofP6SGqXbDmInIwSJTwZs7Fu6U5tTLPF+UJbTCuiW0V59luYm2bOw6m7GVhZ5ebNq3VrZMWXIKBHAcMk4AWe9V1vxPmQPJ9J9stU/39R02Hr2+3S70LAgWudc0s5MgCQVFyYcoYoAcBTldcbYEyBOFvC1DwHnohw6X4XQ0wRTM6Z+z82HQu8smBaKaAxV26BWvhPeSv7SWpRx14IywxsGnkXrwPcDIkbKrXyMCoSwmY7amBkBCoWUN9KrboC/5D1BN3SIQymKcbCMycew2vp1/F5qTTWDTR5MFglLAkpmUboT03VB66RRvV3DoJiWBIusDi4cBYGIQJjVkk0ex6BgH/HErRiivfEBiIHycstcOFC9prl1hIzgPb2bvNvSEzxhTIvGQ4/1sXvSteZ2uT+KAagNkGpBx/nT9CH06OFeAVQyRr45OcKgfefob+k5P93WLuBqhIrM/JQqqp4W/A6quBUi2c/li6Hq3XVDH7+VEZWQB4NTEFCkQFiPKEh7ZPWSBMq8uy4svQoAiM3iWsrmFJm0apucR+Ae/AdP/C5iJMy57agVi1HXwrv4TeJf8Foew5/oQF7Kgz7b/77+D4PQDVlKXWX0sEQhlMCftw5O9mUbPVHTjpOQpjZ3QG38deuPboJuWlUFrpQmZ4GT7lDs7rzQviFF4mnsSnvFETCMesHnVVqdyxa745hn+jr77oMQwSE2yUODQTrJG0FYGCQwSEiQipgbs60hskIWCIjVSI9AUO+6Ps1CwAsXWvgj8CZcrgtrmx+TxotnaxXOZUgKTOZ9+TrTAaA3Fi3a9XcDJz4b29ukpn5742Yzfyt9p358WejL783YAv76RTmStafQFzZEntIqzEZrMurY4gVv8MxaZGY6koT+AE0/ZiYrCAZv5O5nrcRCwgtGw8y/5GPjPf5kFgpk6x58BjlmoUEWmFm2Fd91fQi+9Hoo+zzw/X/wILQj+059Deu/noy1JG79RPuo0T4FQXp148eGo7Fdw+ubmbrYm6LVvgmrqsjdgl2udb8QV+gGr7JEp/9azCOFKmyQQaIX02aLBB4kRskxkhVTxvi8JDNoL5YmV6aO90Wu7cJMIyPojZwIMc3uwOEjYNZtM9xwJkNuNs/yJSgsvRIDmhhVXs9YGmlv+FMzIC/Cf+zKCEz+yfjqVfERVaDW8DW9FYvufQVHp7Kguz4U7l72tQELAP/NzpB98D0x62FrPSnRcLKFbngKhRD2pwcuGyULsvVlzeWmalN7KV3E6Vt5HjfyjSjfJanBoKqvLYZngyKQ/13OK2+6KHupmKASbrdLlijj/DKFjnr3lSI6IypoiC2ktJ3hyWzM8CygXyWQ/gnPP23oJx39krVkLuUiZvDfyCmroQuLqP4Fe/5acUivP8DsYPoD0zo9wHYlyPkQglPPohHVHMjmUoj0qKtai17wOatlLoamiG+3JylNamY9mKZsX7vnbyTTn006U/i/cDA1vh7btUXLQi1msoqRSzl9DrFulHPjiXNtZEFgYjB63aZFP3gf/zP3stFtVU4AtCAp66Q1I3PAZWziLn9LY1jsn71AgmImz8J/+LIIj37PbhmW8wyICoTgfn8JchZyuKEtb1w4b+bD8RoCSt2QXNCPzrrt6raVqLQz0Sj/rXLG2s/sl24iVPtIFaX+WJcouiM6NhvbOz+2Hf/oBBGcfAvr32HDgKLi4IK0pyUl5QU80wbv0d+Bd8QdQ2stqx0wbiXVoDjOzGnZA9g98HQH5YTCf8j5EIJT3+Fy0dVFQmUoCDUuhFm/hrQe9+rVAAzk0zgyRC08m/goVPOjSdCFQIgLZJvKoCVQXYXAv/GM/gOl5DGb0EMz0cFVsJcyN2UA1roL38i9DL7lqzq2083iZaQTHfoT0k39lQzor4BCBUAGDdLEmhiZfq+Y9jgE3zcvgrX4D9Ppf5djcKK5enBkrfLSl+UKgdASiMEVqAjmy9u2C/8I/Ieh9HGaqBypNdU6yc3iUrq2FvDLdc701r0fiprs4BfecD1zZ1Sjpca3/SaQf+QCC4cMVs+UiAqGQM6nA545ytYXOQRm1YNM513XAW38n9KbfBlrXWgGRlea5wM2T0wsBIVBFBDi3Ie2/n7oP/nN/B0PCgHwOogRflAPE7cFXgzfiHGNHQil5693QK17hFvo5OsthtfYuraaGMP2TN3Cl2Ux0UPlDEoFQRR/gObuSbIXufg28Db8BtG2waWU1lZfNlCoNk9PI9kMtTAjpoxC4MIHoPuAeNgyVV0+Nw0z2ctZD/4V/hBna77xca4di5EhI/geLLkXyl35oc3PMsspyXgfnLB4lQxo/hfSD74bpf6rigIlAqLghy6fBLoUepZLtuh56zR1276x5rU1Ik13auKrcjfNhJe8RArVLINo3p2yg4ye58mlw5iEEJ38KjB1nYWBrJBT+uFh8fuGvPvMKGZddjcSOz0Kvf3P0grkeqjg3BOV/2P0p+KfurbCwX5eaffLuVTPjmIpNXq5XFAI2W6N7Pkg0QLVtglp2I3TndVBLtkM1LXd7acX46Bely3IRISAE5kmAMnCaoWcR9D+FoOdR9jMwk/0uAZIrn1SDt4gwAky1bkDy9nvsg5VbOc8XCDZlZ0BRHc/8DYLjP8okJ5vneJT65WJBKPUIFPX6s0LXqMRt0wro9i1QXS+xe2rtW2yWRrYkZNeqndlQSYJT1IGTiwmBBRGwJvKwZsesU1G2w4nTCM4+jKBnJ8zg0zDDhys/4+GCiM2yILjcHolt70fi6j+e8Ud+7IqqkNn7JlleWBycvNemQ6/QQwRChQ5cbM0OKx9TSdvGlVAd26C774Be/lKbH5+T6tgEIFwoaE7VHFuL5ERCQAjETMCmyXYnzbIZB/27YY7/0AqD0eNcOIwLg10k4U/MTauM0/GzlUbiFV+Bt+pVMwVCWIQqxDv8Avwn/wrBmX/nqq2VfIhAqOTRi6ntbDjkYlGGq91RVTK0rEVi7Rug1v8aVOMKV589U+VOLAgxwZfTCIEiEIh8C0jwT/bDnPgp/MP/DDP0vC09HkxnlRjPKk9ahLZVxCXo2Uh7SN72T/CW3jhLIFBhNToU+2mkHn4fTP+eiixdPXssRCBUxOwsXCOtOKCywVwjz9USc5YCMh94ddArXwm9/q1QS64Ckm1cqEeK7xRuTEp2ZkmeWDL0hbswVVFMwaRHWQz4h7+L4NS9AEUluCx/YZlhqZ8x9yiEJcwT2z+OxKXvitLa2+0FW8IawweQeuCdMOMnuMprNfh7i0DI6ZMpd05OCNK6EXrVq6CWv8ymeG7otKV4s91cOYV/DXox5TSP5EVCID4Cmb1vu3uQ+RiSKJhkSwHGT1nfghM/hjm3z1b1lM/nvAchFFOqsQuJGz4LtfgyWyjPpGEmBxCc+hn8Z+4Cpvrnfe5yfoMIhHIenTJrWyST6tqhOq6CXrYDavHl0G2XAE3LoFSdtUBUg3QuM/bSHCEwm0C2QOA1n7Ibjp+GGX4BZvBZBL0UhfAkTGpIRPtCp09kVDVAooWtqpR8jnNE9D8JM7QXJj1Vdfc+EQgLnTg19H4bKmkfQKwQcFEQiy6DWrwNesmVAAmHxqU1REW6KgRKQ4DN3sa3VoLBvTADTyMYfAYY2g8zcQbGpJ1lwWXzixS+WPjmPWIcIp5V+M4VO7XBDa4gE0eKVBdbEQjzninyhgsS8BpB5jdybtQdV0ItvRF6ydUAZW2kw4ZD2B+dD1SoNMjzQSwPREa2suTTFUYNUUnhGWVZs/5BYYk9nOqYow/OPY9g7CT/DsGUbCHIJIqNgAiE2FDW9okySxtVMmmASrZxjgUSChQWpDu3w+j6KA+5Cyu20MihhxbHKlPftT0jpPd5E3DOBGEef6ewgak++Gcfhjn5U05khOkBIDVm/QpEW+aNW944NwERCDI7YiPgknNGT8Kcl5yWfq2gmlbDW/NaeKtfD3RcCWjNBgU22rknpWozz8UGVk5UUwQyZYINO70Fpx9AcPQH7Gxo/HEW02zu5hwm1vAt+qCmpkjROisCoWioq/9CLk+bc1II2CLA+RXodsY7DApKK7sNseIW/lJtl9jiUYlmDp+UQwjUJAHyhk9PAukxmMkeu3Vw8t8QkANcagTKBFYUKFtRkaW1VGatyalSzE6LQCgmbbnWTAIqAdWyGrrzWmDJ1ZzyGY1LoRq6WDBQ5rIofivaj7VbERJKKZOp3AlkJyeaMX2d1cz4EzCTfdafYPQogoG9QO8uBEPP2jTHYhYo9yHOtK9Kx0oEQuVMwapraZT9lawLtOg3LINatBm6/VK2LKB1vc230ESZHDPewbIVUXVToWo7FHq582JPEQdTg1YMjB0Dhg8iOHcQOPc8DDkZ+uRgSK9z9RLd7lvVwpGOlT0BEQhlP0TV20BrKg23H0J/BLo5anZyZGHQvAK6dSOwaCv04sugWtdBJVvEU7t6p0XV9IwtCORASEJgaB9HG5jhQywGgonTUJMDMCA/Hfv4GW3RcfhCZopXV+Bc1QxvTXREBEJNDHOFd5KqSybboerbgcblUIsug+66lpM0sYWBbq4XDAmjRzCbSposFFGuOWcOlG2KCp8XRWp+mEWPrVxhyXR2qnFOgs7Pho1cAeUlOIlg4GmbQGfgKQSTvVDT52Cmh52VIDv1aJE6IZcRAnkQKLBAqNKNmVxB13j3c8WUy+vCNCU2X0IS8JJcllqRw+PSHVBLd0BTrQhK/+x8FMgpku/i2eLB5WPgpzIJq8wFfc2/JvQlCCub2gmVlSlnspedCYOzD8H07YIZPWZ9CIIU4FMhH3IwlOlWyRNpZirrSu7J/NpeYIEwv8bIq4XAXATCZ65MxWm7NWFNB842kGiAbt/ETo+660ag4zKo+g6ABIX2AHKKVDpMy1R1Wc9k9hSGAIXrUs59RUWPgjTMVL+1DPTuhOndBTO8n4v1ZERsdsBvmBxMNgoKMzpy1kISEIFQSLpy7hgJZJtjKNTLbh9YzwX771AvhGpfUcIm8llYtA1q8Vaots1cM0InWoC6Fij6zqGVcvOOcaAq/1RU6IgSEFEFxNQoMH4WAWUrHNoLDO5DMHrEbhWEaXbDUF7Wq24ehqWTXFU/MSZW/rQoTg/Ka6aIQCjOqMtVyoEAVaRsXAlQaGXbRqC5G6p5FVT9EoC+Gjqgku2AV59p7exdiqxqleX1US4HwOXRhjADIUtHKmmc7X9igwQiSWjIiXB6CKCKfFN9wNQAMHoCwehRYPQIgpEjtjRykBIZWR7DK60oIgERCEWELZcqLYHI3sCLBv1LA8lmqIalQOMy9l/QjcuBpuVQ5AxJURRNXVD1S4FE03migX4hIZelHdMLXz3akHIhg+5V5Bcw2QczcRbB+Cm2DGDiFAzVMJg4y9/NRC9bDqIkBFkqMOus5dhpaZMQiJ1AeQoEeTSLfaDlhJaAswqHrgvWh9GGOTjfM23FQKIVqq4NqGvlCArdtBJoXgnVvJq/rIjogtKS/bHc5hb5CZAlwIydhhk/yXkHzNgp/pmtBalhG1HAUQXjNj9BWKKUVZ/zaWEhaX8h4qDcRlnaUwwC5SkQitFzuYYQyJmAAnQCIDFAPgv83YZe6hYrGCgjpGpZBzSthGpaxZYJm1/aWhmyy8JGGfKyXdtd9aqoQE9WKDybxN1CFT7Zsmd9uN3BteqzTOmh2Mm5fzG+cHbon7OyZAL7uLGZBJkukiSTE2PWtoDriw01pHBWK+Y45bCfAigt8dgJYOwEzPBBmLHjMCPHYaYHoNKT4C0E+vLpeyq7PGKMnZZTCYHqJCACoTrHVXpVQAI2vxMtV4EzPITlc2jt01AUfsmlr9dZ8RBmhGwmK0Q3+zwo5WVyN0T1qmwBHrvc2yOskh1Vy458IGxO/kwV7fAkVANDF3m/3DmJRnUCQlEUpsV21puohKfrXSh6QqcA13dOse1Kg5MzIG8BjB1DQBaA4cMIRg8Bo8dgRo5ZJ0K2AGRFHkJBG4PAOQwWcCrIqYVAVRMQgVDVwyudi5/ADBc4F03hnoijstX2QdWmYZj1pE8reqLJbk80UN0Jco7sgmpcAdS1QzV2QtUt5p+RaOCcD4bCM6nIFTyugglFIZueWxG1FRtsTqC/OXHAT+bFis6glZ1EAmUO9N3iTqGB9LPNA0BhgPyz8WHo94EPFUyxqd+QEyA5B9LX+Gn2EaBQQvYLoFoFZAlwlUHP6xIlLopyW7iEWaG4in/w5YxCoKYIiECoqeGWzsZCIHRZyPpuFy4rHqwuIDN4+OTsfpfl6zBj6c42y4eFqGhLg3whkuQL0WqrXVIBqyT5RLRC0RaG1wDoBvt32vag3yXod24bhIzy9DOdUyVYPEQR+rRFMp+DcgBEoXtusQ9osU9b0z0nBRoH0uNAagImPQakRqx5nyoUTg1xVULQEz+HD44A0yMus6BLJBRV/sw4IVlbA2XDJPGTsZq4XzsLTsg9Q9WeQZyZ5jPE8lohMJuACASZE0KggglYNwayJmi2LhiyIJAYoFBNQzUtKGST/kbJohLOEq9hSEjMKJV5IQiR3LH7+WQJoIP2/kkY+NNOIExzGCBZB6gsMVkKyEpQ6Qt0rWbPq+CPQ801vdBzVARCzU2pMuuwPOQteECyPBYy8f1hdIaTBNkXCV0BXJ6pi18/2iqxL4u8LcKH9Ww/iCyzyOxn+QV3Uk4gBIRA0QmUTCAUWvkUnaRcUAiUBYFs47pL/ut8AsNIB1dMeEb43lxNDxNZRzqOtgFmCYHMxkooIqIsAlk/lAUcaYQQEALzIFAygTCPNspLhYAQEAJCQAgIgSITEIFQZOByOSEgBISAEBAClUBABEIljJK0UQgIASEgBIRAkQmIQCgycLmcEBACQkAICIFKICACoRJGSdooBISAEBACQqDIBEQgFBm4XE4IlC0BCTkt26GRhgmBUhAQgVAK6nJNISAEhIAQEAJlTkAEQpkPkDRPCAgBISAECkhALGdzwhWBUMB5J6cuFgH5hBeLtFxHCAiB2iEgAqF2xlp6KgSEgBAQAkIgZwIiEHJGJS+sFgKS5rtaRlL6IQSEQCEJiEAoJF05txAQAkJACAiBCiUgAqFCB06aLQSEgBAQAkKgkAREIBSSrpxbCAgBISAEhECFEhCBUKEDJ80WAkJACAgBIVBIAiIQCklXzi0EhIAQEAJCoEIJiECo0IGTZgsBITAPApIqYx6w5KVCwBIQgSAzQQgIASEgBISAEDiPgAgEmRRCQAgIASFQfgTE6hP7mMw3B4wIhNiHQE4oBISAEBACQqDyCYhAqPwxlB4IASEgBGIiII/tMYGsitOIQKiKYQQgn+tqGUnphxAQAkKgLAiIQCiLYZBGCAEhIASEgBAoLwIiEMprPKQ1QkAICAEhIATKgoAIhLIYBmmEEBACQkAICIHyIiACobzGQ1ojBISAEBACQqAsCFSZQBBPvbKYVdIIISAEhIAQqHgCVSYQKn48pANCQAgIASEgBMqCgAiEshgGaYQQEAJCQAgIgfIiIAKhvMZDWlPBBOabxrSCuypNFwJCoAYIiECogUGWLgoBIfAiBMR9SaaIEDiPgAgEmRRCQAgIASEgBIRABQmEuRS9KH2ZxkJACAgBISAECk5ALAgFRywXEAJCQAgIASFQeQREIFTemEmLhYAQEAJCQAgUnIAIhIIjlgsIASEgBKqUgGz5VunA2m6JQKjq4ZXOCQEhIASEgBDIj4AIhPy4ybuEgBAQAkJACFQ1AREIVT280jkhIASEgBAQAvkREIGQHzd5lxAQAkJACAiBqibw/wGSIQAnRXxD0gAAAABJRU5ErkJggg==;strokeWidth=3;imageBorder=#9456BF;" vertex="1" parent="1">
          <mxGeometry x="430" y="104" width="60" height="60" as="geometry" />
        </mxCell>
        <mxCell id="Ob93-fBjF6r9dra6HDRD-8" value="" style="shape=image;verticalLabelPosition=bottom;labelBackgroundColor=#ffffff;verticalAlign=top;aspect=fixed;imageAspect=0;image=https://www.laptopspirit.fr/wp-content/uploads/new/2019/04/Cdiscount-logo-carre.jpg;strokeWidth=3;imageBorder=#9456BF;" vertex="1" parent="1">
          <mxGeometry x="422.99" y="177" width="60" height="60" as="geometry" />
        </mxCell>
        <mxCell id="Ob93-fBjF6r9dra6HDRD-9" value="" style="shape=image;verticalLabelPosition=bottom;labelBackgroundColor=#ffffff;verticalAlign=top;aspect=fixed;imageAspect=0;image=https://upload.wikimedia.org/wikipedia/commons/thumb/2/2e/Fnac_Logo.svg/1200px-Fnac_Logo.svg.png;imageBorder=#9456BF;strokeWidth=3;" vertex="1" parent="1">
          <mxGeometry x="358.84000000000003" y="234" width="58.15" height="60" as="geometry" />
        </mxCell>
        <mxCell id="Ob93-fBjF6r9dra6HDRD-10" value="" style="shape=image;verticalLabelPosition=bottom;labelBackgroundColor=#ffffff;verticalAlign=top;aspect=fixed;imageAspect=0;image=https://f.hellowork.com/blogdumoderateur/2018/10/aliexpress-logo-612x612.jpg;strokeWidth=3;imageBorder=#9456BF;" vertex="1" parent="1">
          <mxGeometry x="488.5" y="235" width="60" height="60" as="geometry" />
        </mxCell>
        <mxCell id="Ob93-fBjF6r9dra6HDRD-11" value="" style="shape=image;verticalLabelPosition=bottom;labelBackgroundColor=#ffffff;verticalAlign=top;aspect=fixed;imageAspect=0;image=http://a.mktgcdn.com/p/7nY6KB_w2VRluEBEMvBtMOppii1ejkNaPHM7pR6IPX4/2362x2362.jpg;strokeWidth=3;imageBorder=#9456BF;" vertex="1" parent="1">
          <mxGeometry x="530" y="70" width="60" height="60" as="geometry" />
        </mxCell>
        <mxCell id="Ob93-fBjF6r9dra6HDRD-15" value="" style="shape=image;verticalLabelPosition=bottom;labelBackgroundColor=#ffffff;verticalAlign=top;aspect=fixed;imageAspect=0;image=data:image/png,iVBORw0KGgoAAAANSUhEUgAAAcYAAAHGCAIAAABhALx+AAAgAElEQVR4AeydB3hbx5XvoTg9tiSSAG4vKCRIolwApFtckti7STabbMrGlh3HTVZkWxIremFRsSTbkmxLIgGQkthUXBM7dpxk3a24kABYRdlOnH37dt/ufrvZt5u376XYIon3nQFIU4USKF6SlnT0zQeB4OXg3v+d+5szZ86c0WTwHyqACqACqIBKCmhUqgerQQVQAVQAFcggUrERoAKoACqgmgKIVNWkxIpQAVQAFUCkYhtABVABVEA1BRCpqkmJFaECqAAqgEjFNoAKoAKogGoKIFJVkxIrQgVQAVQAkYptABVABVAB1RRApKomJVaECqACqAAiFdsAKoAKoAKqKYBIVU1KrAgVQAVQAUQqtgFUABVABVRTAJGqmpRYESqACqACiFRsA6gAKoAKqKYAIlU1KbEiVAAVQAUQqdgGUAFUABVQTQFEqmpSYkWoACqACiBSsQ2gAqgAKqCaAohU1aTEilABVAAVQKRiG0AFUAFUQDUFEKmqSYkVoQKoACqASMU2gAqgAqiAagogUlWTEitCBVABVACRim0AFUAFUAHVFECkqiYlVoQKoAKoACIV2wAqgAqgAqopgEhVTUqsCBVABVABRCq2AVQAFUAFVFMAkaqalFgRKoAKoAKIVGwDqAAqgAqopgAiVTUpsSJUABVABRCp2AZQAVQAFVBNAUSqalJiRagAKoAKIFKxDaACqAAqoJoCiFTVpMSKUAFUABVApGIbQAVQAVRANQUQqapJiRWhAqgAKoBIxTaACqACqIBqCiBSVZMSK0IFUAFUAJGKbQAVQAVQAdUUQKSqJiVWhAqgAqgAIhXbACqACqACqimASFVNSqwIFUAFUAFEKrYBVAAVQAVUUwCRqpqUWBEqgAqgAohUbAOoACqACqimACJVNSmxIlQAFUAFEKnYBlABVAAVUE0BRKpqUmJFqAAqgAogUrENoAKoACqgmgKIVNWkxIpQAVQAFUCkYhtABVABVEA1BRCpqkmJFaECqAAqgEjFNoAKoAKogGoKIFJVkxIrQgVQAVQAkYptABVABVAB1RRApKomJVaECqACqAAiFdsAKoAKoAKqKYBIVU1KrAgVQAVQAUQqtgFUABVABVRTAJGqmpRYESqACqACiFRsA6gAKoAKqKYAIlU1KbEiVAAVQAUQqdgGUAFUABVQTQFEqmpSYkWoACqACiBSsQ2gAqgAKqCaAohU1aTEilABVAAVQKRiG0AFUAFUQDUFEKmqSYkVoQKoACqASMU2gAqgAqiAagogUlWTEitCBVABVACRim0AFUAFUAHVFECkqiYlVoQKoAKoACIV2wAqgAqgAqopgEhVTUqsCBVABVABRCq2AVQAFUAFVFMAkaqalFgRKoAKoAKIVGwDqAAqgAqopgAiVTUpsSJUABVABRCp2AZQAVQAFVBNAUSqalJiRagAKoAKIFKxDaACqAAqoJoCiFTVpMSKUAFUABVApGIbQAVQAVRANQUQqapJiRWhAqgAKoBIxTaACqACqIBqCiwyUi/9+kPl196PBRVABVABtRS49OsPqQbI2Ve0yEiVKjdiQQVQAVRAXQVmT0LV/mKRkVp+7f3qSom1oQKowAWuQPm196sGyNlXhEhFMxkVQAXOKwUQqefV7bzADQS8fFRg0RVApCJSUQFUABVQTQFEqmpSLnr3iCeACqACi64AIhWRigqgAqiAagogUlWTctG7RzwBVAAVWHQFEKmIVFQAFUAFVFMAkaqalIvePeIJoAKowKIrgEhFpKICqAAqoJoCiFTVpFz07hFPABVABRZdAUQqIhUVQAVQAdUUQKSqJuWid494AqgAKrDoCiBSEamoACqACqimACJVNSkXvXvEE0AFUIFFVwCRikhFBVABVEA1BRCpqkm56N0jngAqgAosugKIVEQqKoAKoAKqKYBIVU3KRe8e8QRQAVRg0RVApCJSUQFUABVQTQFEqmpSLnr3iCeACqACi64AIhWRigqgAqiAagpc2Ej90hbp0vVYUAFUABVQS4HyL22Z/camqv3FYu+QikjFHgUVQAVUVQCRilYqKoAKoAKqKYBIVU1KtQYOWA8qgAqcuwpc0Egtu2arWLEBCyqACqACailQds1W1Tyjs69okX2piFS1mhHWgwqgAlkFEKlopaICqAAqoJoCiFTVpMReGhVABVABRCoiFRVABVAB1RRApKomJfbPqAAqgAogUhGpqAAqgAqopsCFjdRrt4iV67GgAqgAKqCWAmXXXsALUsuu3SxWNmNBBVABVEAtBcqu3Tz7cFLV/mKx41IRqdijoAKogKoKIFLRSkUFUAFUQDUFEKmqSanWwAHrQQVQgXNXAUQqIhUVQAVQAdUUQKSqJuW526/imaMCqIBaCiBSEamoACqACqimwIWN1Gs2CxVNWFABVAAVUEuBsmsu5CAqRCr2KKgAKqCqAohUtFJRAVQAFVBNAUSqalKqNXDAelABVODcVQCRikhFBVABVEA1BRCpqkl57vareOaoACqglgKIVEQqKoAKoAKqKYBIVU1KtXo5rAcVQAXOXQUQqYhUVAAVQAVUUwCRqpqU526/imeOCqACaimASEWkogKoACqgmgKIVNWkVKuXw3pQAVTg3FUAkYpIRQVQAVRANQUQqapJee72q3jmqAAqoJYCFzRSS6++j3c3YkEFUAFUQC0FSq++T7XN+WZf0SJv54dIVasZYT2oACqQVQCRilYqKoAKoAKqKYBIVU1K7KVRAVQAFUCkIlJRAVQAFVBNAUSqalJi/4wKoAKoACIVkYoKoAKogGoKIFJVkxL7Z1QAFUAFLnCkbuLdDVhQAVQAFVBLgdKrN80+nFS1v1j0uFREKvYoqAAqoKYCiFQ11VSro8N6UAFU4BxVAJGKSEUFUAFUQDUFEKmqSXmOdqp42qgAKqCiAohURCoqgAqgAqopgEhVTUoVOzqsChVABc5RBS5opFqu3sS5GrCgAqgAKqCWApYLOYgKkapWM8J6UAFUIKsAIhWtVFQAFUAFVFMAkaqalNhLowKoACpwgSN1I+eKYkEFUAFUQC0FLFdvVG156ewrWuQFqZarEanYo6ACqICaCiBS1VRTrY4O60EFUIFzVAFEKiIVFUAFUAHVFECkzkrKyKT3Pcq6oMxfR0rqz37d1LdEVPq6BlKPWrVNnd6c3mTF5F1R/jhVs5OH0UnZs2c+py/KX8OpW3z8KZ39t2crPOE1ez7Zy8++Cs4TRDj7b8z/Ymd15NRtOr1E6j0gcN+nfxc/KdEpxcxeC5zk5GGzujpuDn/IuaKI1Dzba4RzksfbHeRdId7ZIDgbBaWBd84XWEWlUVAaeVeYtAbAH+9sVOPZjrDuMOtq4J1NghPOX3BFefgkTx3O/jDWFeFcYc4d5eDNcfXwrojgDLPuMF0RYdxRxh1h3RE4zB2CQt7w7hAo7wqTgxt4WKNxXCVq/QhEg0exgbyJcO4IOZ9ZRIaAmO4GKHCGk38IbeZUxRUhVwTXwjvhVVcZpSty79W6KLXq4QnaaHeUJvdRUMKiAneKroiQh4LcEfhVVHA1iHDt0N7IHSc31BVhXGGG3FyeXHj2VXBFBGgVEZb0qYIrmrsLhIm8Kyw4I4ITPuRcII6+Isq64UcRJI2KSlRSGkT4bQMHrbqBdTdQFQ26yihVAfpnHxwemv3pCjwRrgbaHaUqokxFlCEXwpEvzV9ARCppBGd+OMOcs4lzbuTcXs7t552NAjSIAO+MCArcVFVLg+CMiK6QAGflZ12NHEEer6znAet5nvBMh2WR2ghIdUXg/J1NLDwPuSar6oWcKIsI6ITCuKI0PJwNnLuRcTYC4t1Rzt3EOZtY6Dmg8yBcC3PkgQTCuqEbgDJvMJ2uLePOPqhwAoBUIOzpnsbpz6rgahDI05t9nfrVKZHKusMMASjtjspK1OCAh1mNvnOmBjCnz6dOjOAswlUATDl3WHBDJ8S5GhigbYSFHoUQEDrIEOcGYgpKiLcHOUeQtQc4W4C3BTh7gFeCnDPEOkOsOyw6oxJBZJatnDvXr9CkDfBZzroApnRlVFcJ/JWcDRKxdeiKBqYCkMo7Gxh3A7lfAFw4JTirxmx7A6rOXDg33GVJydlJuUbojDKzaXKI1HxaWAPnDrIVHs7VyFWEWXeIdm6k3FFdpZ8G2EUYeOpULBHGHdRXBih3lHJHGdcG1h1kXQEOSohYPfmc86mPIcZXIw+2Q4Bx+9nKIPmWBsYFRqKqV3FibWxFhCFmCDxsrqDoDgpgfUQFV5MA3VWz4GgyOhoMSgOxOCKiEwpYMc5GQK2rmXU1M65Gxh3Rg/JzlWI6QKe/pyvADqLAaMrawvAKRhNQI7/ijPDOMEDEGeYnC+cO05WnKIISyRqndEWUc0aNjqjJDq85E2muPeipm8H0653Ve5ZwTVLADKQroLDuqKREZXuUc0d4N4whCPsinC3IlPvYEh9v8rFmn77YqyvxMmVB3gb2rK6iQe8G9tGOMF0eYMqC+hKfvsRDl3ioYnilS32MNcA6whwZNHDuBraykSWdjeyImJQGUQkx7ghVAfijKqLaS4HgRkdUdMLtAyPaGTE4ImZbWHaEGVeYq4BBEmnnZAxERkLsCa9wTATIrkSl7AAue8dn40BApObT5hrATqwIyRUPai2BT9J3fEpf90l99RJ6nYZZp2HWzkdZQlcv0VddRK37pL7qU8ydlN3PVzZzMGLK54RnOqaBhxYT5twhtiIsVNxXYAkuYe65iKqevwuZLs4SpkrDVGvo6k9RVZ/SVX1Cv/aTzJrP8vd+wbhueUm11ual3GHKFQFzA8ZcDWCuOhtEZ1B0hkVno0BcH8QZQrwBc5JiJomAZbwrKjuiReX+AouXKvYJRh9r8haWenSWMxetxQNoKK6nLV6qpJ4qnizT3099WFzPmL3LS+o4W0iqbITurSKqrwRDbG43er7+POsgYmF0DCVLWOgSnBHKFWJsPt7k4c0eutSvr2xkvnwf/a1HmJv3Civ3C1VPcP6nhejPxIafGTe+IG1+Ud70onnTS8bGXxiCz5oCz8r1T4tVj3Gruqhb2pjv7uK+up354n16VxNTEhCNfsbsp8oCtCNEucI0GZIbHCHWHdFVgiVrdICBzxOfAF0BbOVdUb07ogXzP2yyByV7iLf62XIfXe5jrH7G6qfJa/b9R6/l5PPyAF8WoMr9rCMsErs725XmeUcQqfk2PtrZdIkQ/PqNj+xsf3rrw89sfeSZLTuf2fLws1vnoWx5+Nn7dj67ZefTWx95esfuZ7fGfuq8fkOBpZF1NZ3siMzzTk8eFubAIIXh/3Jz/ddufujh9mce2PVjchXPzce1ZOvc8vCzD+z8+eYdz3ojXXWhfTXNB2+vb/vequ3fvO3hr/ztI5d+fWvxleEii+czUv1FfLWGWqspuudT/LoCS1hva2IdjcQLFgbb1hUEr4jSPDX853Muy3zv46QOMx5vcEZkW5hTGsRb2tm7DzB3dVGrurg7u7mV3fB6xrKyh7+jk/lBO/2DNvoHbdTNiWyhb0pwN56isDe1U7e1c1/ewpcHORcAnYIBLEDhjKe6KAfQ7ghTEZGcYYk4Q2lXRFvm1ZbUUyUB7tKNwjd3cXf18KGfiltfNj3yZknbQMm+EVPniPHAqPHQO+KBI3LPiNw1LHUPi6RI+49IB0g5dFQ6OGroGTF1DJW2D1pj/cUPviFsfIkP/FRYvZ/9fpz/ygO8s4G2+HTmOr3FK9jDghLhwLEARmXWrtdX5qx7ETrFCG3xFVk8hXZ/YUUDfeUG9urNzNX30Vdtoq/aRF0NrycUhnyuv3ojfdUG7Zc2MZc18Qp08Fkfbp5qI1LzabjgSqPdzZov3BrZ+OTsVzSo8BffumXbRVQN654jUhuyEz6sq5F1NX6i8O7mbU+rcHJzq+LDscx//tfEP/zP/x4c/l8vvPZO16HXNjzw6F21sa/e8LC50n+J4V6Nfp2mYNXnjGsLrLWMK8ABcZqmHCCsc46W+4kNgHeFKVtAd2mTbduvbI/92tw1YugZMXeOmLqPmLryKubOYfO+QXPHkLljeHop7hg+uVg6hmyPHhVu3aM31skwzQJDVzLTcuKJ5flIz9Nh07ou4jx1hbgyH2Ws1Zb76eu3iLfvFYLPlzz4pqV9yNAzKh0YFbtGhPYBsa1faEuz7SmmLcm2Jfl4UowlpViSS8D76UVMpLhEmmtLc4k025bm2/ulvUOmrtHi/aOG7kFT56Ah/ra09UWx/in+1n36bzxEuZsYk5c3eDglorusgaoE6QQlylWAd5Ut8elL/dx1D4h3dYrhZ/nNL5q3Hy556A3z9tdJOWzefupi3H5YfPg1445XbYmk8MO2wuI6Hjy2s+jhEKlnbrgwy+lu0FeGNJfc6oscnBtAZvXXH2Yy4+QPjv3Vio2f5tfNyk0+w6MFIQSsu5F1N1xUtC7Y/DjUPzGrs1Ll4KmvnJi8xhOr/TCT+ft/+o9X+kZ2tv/sR/X7rvzLB7Qmn2bZ3Zqi1RcX1xMpGllnZBKpc5+4g5bAO6O0K6Bz+KlLm6QtL/PdI2x7mmlLS7EUn0jmWcRESoKSFuOpqSIkUnzbySXNtaeFg8P0Le2soV4io1dwenwMB/5uMm+uRHh7SGeuLSypY67cIP1grynynCXWZ+kZEQ8c4ToHKUJPLp4S4kkpnjTEknIrFCmWFOJAUjaRFBJJY0vS0JqUW+BzPp7kyK+ytJUJc6UYwFeMw1/BAYkkvzctdw2bu46UdR0pbktzD75K+Z8SvrXTaI3IdvAAiM6oyRYVbeHlJfWFX77P7H/GEk+V7D9i6Dkidg/znUN8xyDfmSvCtPdTH3Kdg2LHoLRviOscKP7Jr/lVXTpDHfCUTJnM8ECdCBBE6omKnCwcCRxp0Lujmovv8UaemWTQxATwbmKeyjjU/GFmAtAzkZn42o33f5r1wOz/SRFIJ5/waT4hUwfrWfAQBZboVvs3HILLGZ/HCzlen/GJibHMxPjExMREtrPICTg2kRmbyMDnuePJhU+n7B//ODY4+o8t+372/VVtsiOgWXarRv+jgtIg52omAApPOrxOCObNxmzlbclC8EaAt/p4V7Nhy6ti57AQT4mxtLGlj0u8LSR68yrxPiGeFAhE4HWyiHFgxAlFiqfknmH2B3sYQ73gBC/qojhSs9FLJ3sbIPSNOJdFV5SxBbXmuoIyr/C17SXVT5p3/sp46Ch/cJTfOyjG+uGS431iPCnF+qRYUor3iSBXn0AQKccAr1IsJcYAqVAILuF4YrrKwNBeMd4rJvrERJ8Q7+VJEeJ9Uiw1SdiUEE8xiRTXli7ZM1T81HvlO9/iKpvk0qCWRJ6VlzfoDXXLv7nN1tJbfHCU3psWWpLG1jSXSHHZr0ukBFLEOLyZ6vCyb4R4So6lpdYBpi0tPHGUv6OLF+skJcpUZAO/zswKjEvNd40/64oyrqhm6Y/qGn88+ZxnH/7Jn1T/fwJISvgCUP2LFTsu4mpn5dM5JVhJZFKURH1GNfp7fBsBqROZMdVP/7QVTpmoMx4F1B2fgB4lR9/jzvBf/te/dR762fdWttCltZqlqz4veSCKAKKsIoI7QIJtm0VnI0ybQARPgPRD+ZqxvDPElfm5iiZp68uGziEwmshjL5xEwxPgOPVjFhbZ46e/nzpg+hshnjZ3DQs3tenMdZwrJDqhb1hIqma/js6FeQI1aDKNLjmjIokqZdxh0R6kTHWX2AP0d1u5pl+aOodL9x8VOwbZNrAfCUZTEpjkhI/ThJriZvaSs0qC7TkNqVO/ysmSSIqkzukqZd8L2b6KdFdSPC10DsjbXmUu3UDbgtAZuBt4i6/wmg0lsV5Dzygd62UB1v1MfIDak+I6BsSOQeLGHRF6hrmeYaFnROw+ReG7R6TuYen53/KrujmhDmJsc6G1iNQZH9jcL/JPm0KQGtEsu6uuccqXOsW7M33N2f3+OKSOX79i+0VcjTBnv2E22JMgtWHxkHpmRQCkJxiqE2MT48fAyJ327+h7v93w4NPOazdrClZfxK6jXA10xQbwFDtDgkLwBJPR64njNX9DNcSVB5hpSD352VbxEyGxyEjNToUJTpjYycbwZ6PoBWdYcIYMSoQt8S4v9VLffMTS+Et757B5/yi/p5/PkTTH0Kx9qqIsp6wK7NnJwiXSYueg8YFXuMr1lC0oKlHeGSky15ZWP1X66HsscTVIrX3UvgFjzzvWPYPm3W8Ztx82bn1V3vSiadNLpvtekje/KG554YQibHlR3PyycdNLpl2/4lfE9GYPnQ2eyzvg/4Ie+JdctSHrjDvjK5O1UpetWlyk8gq4DudSOCXCOUl0nrKIVuo0KM7i7XgGrOlxsFwzmYnxsUkTPvP7//f7RM8r13xjg6bwTg0XpN3NEHLrDHBKE6c0E7nC+YvGOUOcdcGRejNYqawzKCghDpZCzOku53+x2SMZZ4Qm38gp2RUfYVil5gwzZf4CUx117dZi73PFncPCwRGh/W059nb+BvsUAdV+k+LjKbFz0JRFqjUAj0apj71ivXXHG4Y9g0JrkmpLmvcNmPYOiLU/Mf71TvrLW/RXbmAqmxhbRLBGJSgR0RqeXiRrmLdFOHvUXBoVrBHeAXeBckckewSm/vN79Equ2jCLRq32oYuc3O+skPrEpAiLYKVe2EgFp+8URscy4JQlNusYQW1mbOzY3q7DrmsbNMtWLDX76Yr7IJjc5ROcAS6/hyHLF94ZYq0BphIG/sbOoez8idpE+Mjaylmpi4rU7IULSkRwRHglLLqivCOiM9YucwT4OzstsX7Tod9w7YNkvuhtIf62BF7Ijy5hId9PffXJSOWN9YXffZjrHhASaS6e0vYMlMX62L/ZRUn1jLGWtniYch9vDXKOEK2EdM4Q5wiJ9pAwrfDkPW8Pc44wZ4dumHFFONLf5MlT1hlBpOZlDjDOKO2MaJbeVdewSAP/m7Z/kq+dJ6TONOc+2Xl8HP8fBy/A2ATM4H2QGQe6Zs/yj3/4w6YHni4036spWql1NzIVDbwzzDlnYaXyzjBrC9AVjdKWlwydgxcCUnklKjjAUGVcUdkekcuCF5trdH9xv3nT39l6RgwdQ1w8LbekjS0pEbyZfdMH4AvJ0+nfdQqkyrUFP4ybO4dMrQNcrN+w/wizqrNQrDJYYSEf6wqxrhAMQZxBDlbBBhkXrCuhpxVYZuKEQrkjEPRKkCo54D2LVmo+GJiFlTqJ1NqGRbJSEanH3VEyczU+npn4c2biGExhAVYzY5NhBOnR3379hi2az/9wuTnIV0YZeJDy6jvBMHGGYTlNRaO45SW5ayGQWkymp7SmxRn4E3BE9ZUNOjdZi2n2FZV4uFv3lbb3m/cf4WEWHmbqpdaUHAOkkrI4JupxSE2kpSlfanbgL9Wwt++x7hsW4v1821Dp7hRzzWbOVK+tzHq6oGflyPpgEbK9hDkAZZQ7vrBKlHFG9G6gKuOC8X7WjkEr9bjnb6YfziWkrth2EVuDViq5lRMAz8yHEHdF/Krkx2MTEJw1Pj5xLOsHyGQy9z345EXUHRqxnq1ogufnRKpGT/oEjmHIwJ+uaOC3viR3DcmtEDU5f95DIZGeRGrtQvpSGSdYYRDVSwa2lDtqsEU4Y93SioAx+BPb/ne4jiEBGJpi2/q4RK8c6zPE+rKxotPRtljv+UmkspXNFEEqZ6jT3dhi6hrW7xlg940Ytr/BXNrMWHzEMo2yzihDCuuE96wzyhFcwuzCtELyB0VER0RfEWFd4AnJ4XVSrlO2mekf4sD/5CftFJ9MDfwXzEol8ahTs95jf7li2xK2Jn9Ta/o9nv7+o+kp5/TpqVyM6Ex9z8fvczBLiaUKU1XkH7hZJ8C5CqYqcJX8+9nLg4bytZrCtWxllAUjJcq6woyzAUZ/ziB5tE683YwSZMsDFEGqYf59qXxb2twNQVRa0wIhNesfFJQIjHMhkQ3kVDRaw5xQs+yqDdKDr5gPHeXaUnw8KbSloS+J9UpkvJ8b8pMI/MUi6dT3TiGVuXS93haAsbnFI1+z1dKa1Hb2U53DbKxPd9UmfZmHdYcgrSpJv8IqUdrZQDujrNIwBdksahnCWfADuEOSPSI5oLPRu0Al0QHYnf4cneY9IjUvpRYdqV9bsW0JV3OaG5nnr45H6t2TcannHFJzxDzhvwlYtPABIBUA+ydYK5HJ/MP7/3zp9QFN4SrOvZGGpysoOBp5SODmmwmpTLmfrmgUtr5knH9fKt+WNi0gUmkymJUcEdoN9hfppIOiEtIb6rR/eX/prj7x0LtcPGVuSXEkCHQKYR+3NycjVbAF2bKgtP4Fcf8I25aUDxzhb2zTCusESLsTkZSwoIRYZ5giCVsFJcwrH+UJyyYM45xhkgE2yLjgyKwZm+t7ThzizMgNROqM0kyHFOT3dIbJ9NQC+VJPsFK/Oh9I1eWQei5OT50A08kfJ2DCKrtIApZiwYqsTCbz+z/8vy99c6tm6b36yqDg8sv2KOtsosByOcXdZ5TgeYzU3MSLEtG5wUsIZHEEtNI63de3l8b6hIMjHKwgSokw5M8tCf24wTR7PicjVVQiy4vr2JvbHN1H5VjK0jlieeBwkTNKiVXaiiDjDgkKdB6cy0+7AxQUv/74onP7IYmEEtS7gzp3iCXpAYW8J6ayzQmReoqH6uQn7XxFqje7IDWXSWCSS+fy/4ShJGQVPK6Z8fFjmcwfM5nMf/3fD7/4ra2awpWQQp8M4mhnLkXACbf7/EZqNjCIzGuDRWawhQsM6wq+8UBJa4rvGWISSRNM66fptqRMlpZ+PHkqxpMnI5VzRgRriCnxmhqeNz/+LtfaK+8fNm96UfvlrcstdQXmGspcz5R42HIPb/Px5V623MNYvdMLa/XSNp/W7mfL/ZTVz9hDkDAQB/75A+EspqcWLIjqeCt1/Ksrtn2CV3XgPy3U/zyyUrOu1XEy5B8Da0UgJ9sAACAASURBVHV8IpM5RsCa+f0f/uy6pklTuJq5FCKrBFfglAN/yDBvhSAqMvCf97jUBR74M5AYOyopEcYVYpQQLdVQX7u/uC3J9ozw8aSpJW1oyWWNMpKcJh9vpA6ZHnyVubQ560vlyZYtrMVz8dXrzTt+ZeoZLdzbJ+0fLo4nTbVPsTcm2K/uYK/ezF2xgSb5xTlnAwuda262KvsGPKquqOSI6l0wfwVprtx5WV1THTNaqXnpRazUiOaSlXULFUR1AlK/tmI7IjWvzhKEyyKVTFGRBRnHJsbGJ8Cv+o///HvGWr2ErxYrQ7zTS2YkTm4A4fMYqeBAdABPJSWiNdZefP0WWyxp7hwWY2nT7pQUA/uUI5mijC2LHyl1GqDz8ZTUOWR84JXjkOqEfROKynxae4Pgf07oGBRbk/KefmPPkZKuUXM8bdj1lrjzDWH769K216Xtr4vbXhe3n1BeE3a8Kux4xdTey/2gTWvMBoODa3UKmqd/g0g9+Yk6xSe5gf/iIfXriNS8gHpCpsLsCreJMbKMlSTcyrz81nsX6e5aWuqFnE/gSw2TMt2vCkil3A3i/S8twOqpebVSswtbpwJFIHAKpmiCrBIQ5VptZYO0+w3h4FHjLkgTZWjN5d+TYklDC6TUm7/QsdOwMs9fEaQOGh94eRpSowzs1BIWTN6CYj9b9ZR572DxbrguDvK5pIxtA4Y9g3zHEN89zHcNSZ1Dho7hk4vQNUztHzI89xv2rm5KqJEcIbDo814ijEg9BUBP7oWmkLpIQVTjX12xHWb8847kOPkSsp+QGf8Q7MDj+CiI6jwa+MMwH9iby+I1PpE5Rsp4LrVV5s+ZTOaB3b/UXLxSC1sHhlilgYN4muAkXglkrf7zA6kcmVqZwgGEoLpDelfQZPJqSzzG5l+YH32HiaWF1hTXBpNRhlYosGAsARmjP+5I7Rg0TLNSBSWirQhLxjraFZW2vFR8YBRyu7T06dr6+HiSrGRN8ZBaEHK5klyCkChAmFYA07G03DrAJ1KGx47yt3UwQi2vEKSeaibzlE/ZBY1Uy5XrYTFvHgVYpkQ0F6+saVygGX8Chak0AuPX37T9E1wNn8epnulyIqwSYJUgZ4todHcHyPTUgif3y9fgVPE4Atbs/D/EAPz1TQ9qCtewFQHe3sjbm3mlnlHCpARhjU25n3E3SBBENe++1Fyo/81tsHpKCfKOIOsIs0pezXKme8074FpoJSJbI5QrrHOHBagT7FNeCVAOX6GxXlj7pPzEb/hE2tCSlFohz+k5VmIpqWNQevAVurKJKvcLjjDjDEulfs7i5Tf9HffjX0OX0Npn3A35Ven2FLcnLewdEPcNSB2DYvcw1z0kdA2JXfA6vYjw+bDYNST97Dfcyi6aq842DNhYML9iuXK9iu12tlUtctqUWSDVEWEc4fMKqXZAajYF9fmPVEjofQwuE8IA/pTJZEb+/l+XGe5dXuLjnT7WHmaVIOuIMEojp/hhAXh5gHEtHFLNXcP8TYkiUy2rBFRBKucIs44w44jwjrAeRiQws085Q1p3iHaFBHYd8+1dlu5RuX1QiKXklj4wUc99pHJKWGuooW9rK91/VGgfMLamzLv66L1puWekrHPI0p4y737L/Mgbhu2viVtfku5/Wd76smnLy8bji2nLy6bN8Hlx65vijXFGrONn2cMhUvPqfOB5Ow+RmsvqfyEgNZPNsZLJZMaOTWQ+yGQyGx96RnPxHQJJA8g4G1hHhLc184qPUwJsWQAGjwtopfIrEkXGWrWs1Kw9BbnplDDtDIv2iARIDevdEabEw7kbSne+wfYMSy25+FP+/EBqmb+gImx68FVL5xE+0W/cnRT3pfhHh0tCz1tW7GG/sZ360ibqmvuoy9fTlU1sZTPtbqTcjXTFR4WqaIRdzV2NuorGgsshxs5QHgKT3zmLcQMiNT+kKojU2Q5BPk7HQxjAMbIKgGRZGf8gk5n47z/+2XJF+LNsPeMO0M4gB0ht4h1BglT/YiC1RkUrlXOEeUeYt4dFexhi113gCjBZgnqDhw3+2HhwGHbWA9ch7CAC25CcB1aqqa7wr7cbO4YMbQNsLM3vG5Q70/wP9miL/Vq5WmeuZ4q9XImPL/ELZQHe4mfKfIz1xEJbfVq7r9Dho60+xh5ilYhIxvs48M/reZ7FwP/8ROoFM/CH5kDSqk5kxo8Rg3UcYqpaOl/XfHo15fLTLi8Pw2QoMCde5qedC2+lqolUVgHDSrSHDLag3hUocodER1Tia5jvthp6hoX2lEhyoECkFGwVdV74UuUa/oYE7GXbOiC19osHjlD37C9i13HlQcoFRjrkiFEiYMJDXtSw4AgJkPP7uMKDuznIKyEjbDwe0bnC3Cz92milXshW6gWFVLBUYdIvF1gFP/352DHn1Q2f4ddB9j9HmCceVZjGOceRmnX/6WHIn0VqkHaF+NJAoSskbXutuPsImdNPGVqTRpjf7+MTkMHvHCsnT09J1dwt7Yb9RwzxAW7voDmRlK/cxBs9EtAT3MogiwPYmi2sEuLskIh6euHtIckWMlhDsi0s2LOzfGHWDn+O01NnNlTRSr1Apqdgf5VcxCrstkJ2YyWEzWQebHtG8/m7accGTgnxSpBx+mGq6jxAqiOsc4Z5R0i0BSlXyGiPUGJ10Z1tlp6jchx2DBVjKRMJPuUTfcJ5gVTOUFv0tzvZniF+z4Bh7zC98zXm8kbB4uWUsOCI8vYIFEeEmypgsR5XYBGEEtERY1bvirCOiGCHT3g7sW3zoypaqXl1PpDTe1Gnp65bsU2lIKrs7HaIdXw04w97jszPP7AIIdHeB2S/00wmAxn4x8l0WHZ7k+wGUoC37F6oGbLZNvw8Bn8FGfxU+DcVjAZfA3TNZQLMZDL/+r//Q7DXf87YwDr9gj0IPHUGFhSpbanirmEyPVXNwIx/iCXhXHnaRDMdxjvAi8ooEVoJCY4Ab6mjKhqkh9+Uu48IYJaSbV+z22KDfarmwB92nJ7caJqPJ7l4iie7TBtgW+k+PgFJrCGnNeyomitCDOJDRQgXBdtZyp4Y2Y6F7CAA2QVJgsFeYlD3SrFeAVZPQVwqXdmkt/rBiizx0lduKN79NtuZFvf069t6dVdvko01vOITgKfwpDNkjSlvBwv0ZMMza92zCvyWcsLxoh3m9zhYcpYXKDhHGJGal1LnF1JDrCOHVO+Gg0Cs+UTq2Ph4ZgyyQkGO6MyfMuMfTkD2vQ+JU/MY+fhDACgkO/2AZOknW00DTD/asE8FrJ5UBWwFQIC92tOuWbqKdYZEB2ykAWH/C2mlzhtSBXuYVqJgZCmhQsO90u0dloPvg306udPJAkTyw4qsWC+XgPVLdDuw0ry7j0+kmL1prr1f3jto6hgu6Rgp6ThS3DEidw7x+wb4vf1cG0Tji/Ek3Zak2/qEWJ8Im1T3ibE+ubXP2NpnaO3LbpRiJEjVEaTy9hBtrDPUPm56bFSIJ8373xG+myiU1tCKn1FCsFlDtq8ifMwiNesNmP6andYTsttPOQCmFPFKI1JPeoBO9UHxF9dPBnjn5J7pR/rjYKWy1aSbPcOpznQJ2c8hXFGBfBlZKzWHVIDXvPyDZNATxybGIRR05n8TYL3CFlLHYM0o7H364TFiT8KfqGKmnvq7x8nuKpmfvjryCf2dlLVZgBUysA5i0ZFKTz7/p7+bp/8t7QQLi1EiVLmXVgLyjtekriPybsDTwrhNhXjS0NprBIuyV4glxdakoX1A6hgx7j9a0j1oivXKO14T73uBb3peaP65tOmFkq2vle7sldvT8oGjpoPvmPYOFUPmgaTcmuZjkHlASIANKxMbliNW6nFIVSLaknrtNetLY72GzmFu/4hl6+tF1tByUy3xpZLtpOxgTzCuiN4Z1jtDU37V7Bu9M0yTySjeEZZsEC9Bk/CprPV6erWnflv8xQs41P8cQupXbnxwCaMCUmFRjZOkIFIiGv3dnqyVOm9IhWE2BIQee/6lvvDWrm2tjz6064mHEk/vefzlx5/vfWvo7//pd/9nDNycH/2byPxhIvNHYsnCh9kFTx/9Wr13sAMAmff/v2MfKl9u+BzvpxwhhoT6nwdIpZXc0BWgIFRLK2L84yM85EKdL55mI7EEkhmAj+dSBAiJpCGW4mJ9dOeA6eA7JZ1D0pZX5B8dMnx7p/7Lm4subQC02YJae1DrDBdUNOqv2iR/7SH5lg7W9xNhx+vlHUOl+48yHUNia5+pBUK+GJLVRYwlJ9f4w8A/a6UKjrCuIlwgrZW/9kjZnuHCngFD9xFb08uFV21aZqwqKq6jiuv5Yi9n8cGuDbYAXe5nji8s+bHQ7tda/VSZn7YHKXeEJbFoU8Q84xtEal5GH62AsrB6aqEyUZ2wIBV8qWpYqccjdbV34yHCqOOpph62pmq6a21Mo/mi5gs3aj53q+YLd2r0N3+Kv6OguN6gNHz5G4/cXdfR3vPLo//wb1PHw0r9sYmJifFj2TX7H/1CtXeQoHrizyT7X6Yq2K1ZupqC/YXCsIFKmW/h4lJPNfCfu5VKk+Eqp4QZW1A0+8Tmn7OPjhpa+uZvsD+FVA78p5AfQE6k+ESabu8v63nH3prmPE+xX9/BlweWG2s+X1xdZPEwFp9o8cvlQaEc0n7ry31FZZ4iS12hvE5rqC28tEH3vYdZ/4/NsWT5/qPyvkEh1ifHAKxZF212Oz/m0uYsUiHayRmSy4OFRs+yGxKWR5JCW794cNS2q6907aPU93cVXHdf0RXNVGWj3hnRK2G9M6JznVj0zojWFdE6I0XuSHbIn3Vt07n1ymfGBSL1zBpll0tnp6eqGx6ffKanzXlMfqTm/+Dom/qKcbWQevzAf/X8p6DOXYJvw+OaglU02WhW64rqHR69ta7A4rvE7LuIr9Is/6Gm6HatteaG2x968pm3J2UcGx//44fjf5q3of847AlIepMnn+37BHVPoSMEOTeVIHOOI5XwNMLZg7QSYE11zPUPGNsHmD3peQ3pn0Iqn4DsJFI8Zdjdx3cOyT0jkv9Z6pothabaZSU1RQ4vowSyS2bJYoQQSUsKI26KxIQKtgBvC7D2AGX16401WmOt/ov3ST86YNn9punQCNPVz8d6jbuTfCwldQ0eN/C3h3WmWnrVXsMjr3PB5wwPviHsGdDHe8W9afOjR4xdA+Z4r+mhXxnvf1Xa9IK08QX5vhdPLoZNL8r3vSBveqH8oV8JN8YLTbUkHWJelMgasIjUvMSCPsoe1nzhzvMAqRzMTWV9qfOP1EkcejY8pVl2Dw2L6IOUK8A4mjl7M8xHu0LEpQWvy0sCmktWaQpvv+476184PEzAOj5+7M+TdUySVrX/x8bJHquZTOb9//kvlBL4QpmHtQc5R2iBkVrSPcLf1FZo+GjGf+5WKjzeEIkZoKR11L095gPvMWSmSFZ1cn+6T1YmuQEFGPJD/IDUmjIceNey+03m29sKDdU6Yy3nCFGukN4NfifGAW5KygmRXjpnWK+AW5N2QnIimiyizTqCeSUiWoO0oaZAqiq8opm992BxImXcP8K0pbjWPqlj0PTAq1RFo87qFyFRQ5hjq+W6J4zPvW/ZOywn0izEhyW5BMyP8W1psb3fsG9I3jckd45I3SNy17DcmSuGzhFD54jcOSx1Dstdw1L3YPGz7/N3den5apiYgumHvEDBKOELG6lXrmcgu8SZC+0I0/bQxwKpeZztma4oyDiCLKRNWe1biI1SwA70bnhKs3Q1bY/ytiDrCMITBa9+RvGzjgBnD/PWJtYeYF1eva1BU/SjT1C3BDc9mYPnOLhboRaAKwkPUIOqE5nxMUj5B1NzY5nx677/oIa+l7GFWPtCD/wnkVqVC6JygMl2ppt4hgNYqCTAlnu19gC/+QWp84gQSwuxXnXjpaaQCi7URF924gjCm+Lpsp5R45ZX6CuaCsV7dA6faAvy9iBjh+h63h5i7SHGEaKUkF4J5XwU9hBjD+sVICyMuB0hxg4goxxBGhJ0hRhTPSVWs1dvNoR+ajg0DNsQdJHkfhXNRVY/TYJwWb5GWPMY9eNRsJFb03w8XUzWMrDxtBRLG2JpIZ7m4mkBXAdpEfL4peUYvOHjKS4OsboQ3QWHJZmnRrnbOni2lgIXQZABK+QMmmdvWfGFnImq5IpmltzdM77C3bWDL7U6ujgDf5ieYquzbfGMZ3vaA8KU4qcdAdYW1mhzaVOyvFIDUyfXkY0DzfjXP6lZupIGlAcAqfbwqU7SzzkCjA3SuV5S4td86pYVd+3O1jg28eGxXE1/gNH6lEfk5C/M+xMS9D8xFUDmCe7RXLKacURYB4lLXbC0KW2pku4RgViptMPPEe7AA5xfy5zpMN4eZO2eouJa7V9sN7b3S+392SyowvxM9wvxPra9V4ol5ZYkm0hbDrxb3Pj8cls9LVdz9jBnD5Mn6BQXxZ10mSd8AvFM9rDWGaKdQWO5jzbWXlxWy93YaokPWJ76LbXjZcbVSJX6C9wh2h4yUlWmqscKf/EbtmtY3Dci7hsROoa4zkG+c4TpGuS7BuU9g9LeQbZziO4aFDuGxH2DTNcg3TPEdQ3ynYNCx5C0b0jogCI++1v2jm6KqQFzivD9hBObSfmSK5rzboPqH7jIyf3OOaTmeVNnutks2AhhxrFYSL2LBlKcBqkhFpapRFm7H7hvDWo++e2b7mwh7W5sYmws6/eEH1VGKli/e3t+dZHuHgqMET/M+J/jSOXsQd7mLTBWc7d2lPYcFSanjObPncrFe2WwDVPCo+/IW18ptAULzdUMkP2U3ecp8HrKdsvbwrwtVOgKLXMHdS5wy7ClvkKpRnvVltL7X7O099KXNgnFkOIEAjbEmtJV+8s6+s2PvFXy0Ful298o3nHY/NBr1m2/Ktt22LLjcOmO10t3HC7Zcbhk+2HLdvjE/NDrxdtfK9t2uHz74ZIdb5geesP48K/MDx+27+0Xb27TitW8LWdWn/L0Tv4QkZrXrV18K/WGBzRM1dyRyhKkMo4Aa11YK7X5Sc3SMyCVAVsmytkbeHuAdtTTzhBV3qTR/KDpoacAo+MfjmfGYTUVidGfu4MVnAlQ27FsnNZrb77zWW611koWUJ0PSA0JVl9BSZ3g/4m5G0LfmTaItJ+nICoegvlTpY8khZ4RJtFbdPl6Sqo12kK8baYRSV7PHRgBhGiMPUSDoyDM2IOiNWQsC2nl+qUVYcNdHdRV63XlPrk8xNtCRc7g0ssizGWNbGWz7vKmoiuadJc3MpUR3WUN2ssaCy9vWP7FhqIrG+nKBs4VpS5r1F7ZpL08ylRGucpGprJRd3lj0eWN1GUN2isadVc20s6wYA3yNhLKepI1fTJMs58gUvO6tYjUsx2iTB/4nx6pYdoRgLBQe5iDRhygXX5aabzE3KjR3/p26tfE4/kncHzCOisVVgCcgNT3/+FfZFdgaUk97Hpw7iMV5tlKPTp3WHzgJblzOItUOdY3T9NTZEoqbYqnpf3DRX/bQvFVoj0kwQ4FwZnQk8/nHCEprYTk8pChFGDK5jywQdYZkot9uuL6worw8go4QLCGCirCWpufM3v5Yh9n9nAl9XSph7bU05b6wvL6QlMNTa/l9GsoZg3FrVkurb1YWkMZahiLV1fuLSr3sCX1UrGHK/EwFg9fUg+bO0BQKrh9IdFffgWRmpdSi4/UGx9UxUrNDvynrNT5n56aBVIZh49Rajm7j7dFGXuEUryUs452RTTL7vnOTY+Q4f4HkD16giTnP1vGT/3dpPMgZ6X+4U8fXPmNrZ/k72XOE6SG9KZa6vqtUvxtsS3Ft6WERFKGJH5qLuefmp4SEyl5d9J4YJSL/JSR67jyAOcI6Z1BPcn2lCeMTj6MI8N5rQIWqGCFqS3KAeYqAatftBHI2oK0khuba12wKl+0hbXuIOUMCDa/YPPrrF69oZoz1ouVG6S/epi9Mc7fvpe+Y0/RD3bTf7VNrljPmTzLTTVFDj/tDLIOP6UEaEj44KcdQa0TeHryiZ3mE0RqXnohUqdINMs3+SOV3AiHn3PUc/YIbW+kHD7WWccp/oLS0Gfo1YdT75Ov/iCbEGDuZipxIWQyEOuf8yJ869YWjf5uBhakLmio/3xMT3H2kN5QS//tbmPnoNwKo36SjqSPb+sjiUhUX0OVEtr6LXsHqL98QBSqOCVIO0JamLifkyOVkCtIO4IkNoBEAtgBr5I1yNr9tBJgyI9ilrZKUO8MiVZAKgw1nEHWHtSLVQVlHuZ7u4y+Z4zbDhfvGzJ2DRu7R0o6hxztA/ZY2rz9sNH/DP83uwot9Xq5mrcGSILUXMY/WoGwhNMA9ORfIVLz0ut8QioH08q5Gf+slTquUsKnU9E2f6QGWFsTa2viHHWcPUDbmyhIFRyQrCFOqdMsva16aiNFCHtSwVCdRCrxIhCo3l7To9Gtzq3xP8enp1hbkDbUind1GLuHTS0pqj1ZvBusVHZ+kCrEk9KBUSH6PG2up20+SvHztiBvmytSCTGDog1imBhHmCVTVaw9pFcCtBKAiSNrSOeMMPawYA0x9iBtD/LWiNYV4pSwZPFfIq/lrt9avOEXhv3D5v2jYscw3T7ItA2I8QE5lmLb0+yefr5zSDp01NQ9ZFz/PHPdFogOLg/wEM4VYsGNS96Q2K+T6XnKTxCp+SEVVn8HNRffXh19bBIckwPHyZ9V/v+41VNjX7nxfg2zDpyM+Tl0ZjqMDPwDMPC3BzXaVb6NJBPVvK3xn5qb98P01CoIonJAIOoMninI9QthoXCN4WzhIJ2S7zPMauX6jb//EPaMIvn/5j47RSrKoRnyYGUymeimJzTae8jA30M7F2o7v7ZUMYT6JwoN1TSE6Aa4nAJnf68Ze0i0hihzLeV5Qu45Yt6d4hMpKdZriM3XglSuLWnef0T6fowR1zFKgHYEBBtEcZIYj7O/kGwznpqVnXoDUU0OkkDaFqIdEKGVfTQ4W1CwB/RKSFfuX2qs1t+2t7Rz2HDgiHZvnxRLmlr6+fiAvn2QTaQNrSkpNsDHBqi2fiaeluJp6dDR0s4j1G0dECZR6mEUP++IUPYGPSSu9uV/UxCped1v6CQXGakPLGGq5gGpB0hPMF+ZqGaJVBipTcbc5KY1IDhGCdJlwYsNd789/C6c7dRAfa6dGOkUobbc5W9/+DmNdjWj+JmyhUUqyZdaaKhSC6msPSSVB/SWOqbhWbln1LQ7BZvXJ3qJL1X1IT9UKOwbMLT0Mldu1JXUcHYfZwsC6Qj4Zurd5/L5FFtJXGDuEWYcIdkagvUjZT5OquVWd5kfe9e4d5hvBZ6KsHgsad43XNI9at4/atl/1Ngzqu8eZhPp0l2wEICOJ6W9w2U974p3dBYYq8RyX5ELVsRI1rDe6SerY/JixYWN1CsbIa47j8I4gouL1OtuJEi1B/M529McA5HkjkkrVbfKt2ExkArnkPeFwBDPz9qiS6iVXU8enkSqKkOEHFJzMQSZzN7uNzT6H9EOP1NaTzmj4paXjJ1DECE/n5uICJNpU45Hat76zNB6+XIfZfeJG34h9YwaWrIJnucRqVLPiLzxl3SZv8ju4ew+wRbUwZRRkJvh9E7TROf4K1oJaaVq003tZQeP0h39QmuftLuPaU+bekbK9vUbtr7Ae59kV3cyd/cwniflrS9b9w4Vdw3r2vrklmTxzqS8d6j00XeFFfECea3O6ZfKg4bykM4F2RLyvJaSKxvn2tfP4e8XO9T/Akeq9q6PP1LJwgQfbQ8vKVq1Yccz2cY2uS3AHJreZEXZjF+QSxCi/d/Q6FZCxuIFRyq3IlFwnJU6V6SypfVMRdhw/8tC9whZYZkS4vOFVCEOc/2i9ym6uI621UMXaCe+TljWsXCFswf07qDOWKO7bqvcNSB3Dpt29YktfcLegbKuo/KGX9Lf2s5bfaKhmpWrC021jNHD2cP67+8St75g7Bni2tNyS1psSfM9R8xtSe216xljlcEO69lIjEG+F4JIzUspRgkySgh8qQ2L40udBys1pNHe5V04K/WJXKi/w8/OxkoFpCo+yKy4dOW93u5JEma3WZkTUsFGzRm7uTjXp57t0+hupxw+MvBfeCu1mvnIlzpXpDKWeuayqGHbq1zXkECWrovx3nnaCVVIJIv3H2XWHCg01xhLvTqnjwJfapCFBA7gOl+wIpT7ikrq2eaf8Y8dNexMGnenxH39pZ1DppUHPm/16sS1gqWGs9Vzdj9JdhViSn06cV1hudew7lBp9xF6b7/YkjK09PNPjJrDz+jM1Zy1XrD5GPAL53tHEKl53W8GgkKCmi/ctljTU/OMVJLhbk6AmumPc9DyN58lUuFphCczqFm2cuW6LvI142S901zPmWyWmp3mmhgnVurPX0xpdLczSmCRfKlqIpW11NOXReVtrwidQ3w8LcPmTpAzZT4WpAqJZMn+o9Td3ctM1aZSv87ppx0wP8YovmxanIVBKqMERLGG/cZ2Y8+QnBgo3tnPJ/qFx0bEOzqXC2v1pV7RDm2psMJfUOFnFNiLm6TsCRSV1hcaayx3P2o6cISLJw27+9iOgZKOQd1Xty4zrTFY/TxsRZWbWT3jtSBS80OqYwqpj07CIweLyR/V/v/4GX9VkQruVNZOrNT1+7OQUvvsp+rLqeRrfkJzyV00bNDiJ1mI8u3zWYhU9XOOoGbpylXV2YTZxyYDSae+5WzeTCF1AmJTAdDP/7JPo78NBv6LMz2VRWqQTC7nr88MDTiH1JfFjiGuDSa4xXgv7N00D1n9hXjSdHCUvrtbZ6jR2320EpKsERYySHnBCbBQVipvDxQZqwy1jwqPjwqt/eLufv7QUTn6nNZYxVpqJKsP8gSSvFa0I6h3ZsOwArzNLygBvrh+WXEt1/xz+eAwl3iLTqRKD75nXPvoctNa3h7grGQZWH4WNyJ1hhZ5fDtgPh5IhQnx409stj9y9gBMiZ6IVFVikk7Jjs4G9QAAIABJREFUtSmkPg5IhXUvPtZOTiCvC/Gzdj8H07hezbJb7loHk2lky+hctr9TfmWeHxKkkq1SM7n9W5994e0lujtgXeyC+1L5FdkgKj8HzjtIwDzbO3vi8SX1+ssbDNteM+wdFmKAVK6tV4LMJurP+MMeUwdH+ZrHGGOd1uGFXhBCwaCl6RcQqaylnnKGTQ++oj04KLWmpfZB074B5kubGX6dYPPqHV4dLA0IiuUBiOe3+nlrgIFsEn7W6tW7QpRYzV93f/G+tNie5GJJoWvYuPUl2hagS+tZm5e3kUndPBrtBY3U4isaGLs/n0I7AtmBf1V0Ma1U1hbI52xPcwxr89N2D233s7agpmilN2el5kmhszgsF+rva35cc8lKCjLXeRkbnMBpTnLar3yMLcBbGymlXlN484/WwsAftgiEeNI5B34B7WFfLLgqSB2Yee7V3k/oVtL2IF1aTykRccuLCzPjD/lSVyQK5CrK7mNtHtaWpzinO4wtrtNd0WR48LBpz6jc2i+3JiHIP/a2ND8LUiF1f9NzeouPs/pYh0fnqBesXtoW0kHnfbrznHav53oYZaoSvrzF2Jbm9qXl1pTxwKgh9GyRqY4CPeHBIWfio+3+bPMjT4Gfsvt5q1+rBISyEF3iYZueK+46amxNMh1pfk+veNUWzljDKR7W7svzVIuvaDiL50StP1nkGf9zCKkQ6k+vUwmp3sVB6sUrKciU6mVscAJ5NlAGTLaQzuHVFK2KrP9pNkCfZJCacyPMIXUMaAo1Zg7+9M0lRXfCI2epI0hdoCCq45HqVQWpjKVeVxk1bnnJ2HFEjKel1hSX6BPjb8/TDJXUOSg9/FrRpY1ssYexe3mrl3L4dI4gTViW973Ov1Wc4khaXkt/+2HDvkE5kRYTaeOhd/R3dGjFdSwYp6c4niFszYFVCYi2oE6upu7pMuyHxF1iW9qwr5/9xsOUXEvGDaeu4eSaEal5KUXbA5Tdr/n8rdWLZKUSpK7l1LFSzy2k+im7r0jxawrv2dMF21JNZMan9k+dE1YBqePEjQBvMplM28E3NUUrKbs3i1Rp6zmMVLbMU2D3Gzb8Uu4a4WMpQyzFJ3rJpL/6A38I9W9LmbqHtX+zU8evA++kDZCqX1ikMuIaekVM6hnlIN92unjfSNFN8SJDlVQ+o4FJOfyMDaxXyubnyv20oYpbEZd6jvCQYiZl2D+ivzFeJFaxtgA3A5QRqcc9g7OwUsHnEiAz/osz8J8XpBau9G7ITk8dJ4uqP0wb+F88NfCfhZXK2v16h3eZzf95bvWbve+RczsGQ/+5u38BqRO5Ta0nYPi/a++vNEV30Q4fbYGB/zmNVM7qW26pNYaeNewfze41Dfn3YJe9+UFqPGneP8rUPaUz1Allfsbm5a0QnapX8jJZTgbTWXxCC/dyNyeMB96h2mH7k9I9w8tu2F1gqjKeHqmElZQNhv96aS33vRaZINXYkjIdGNXd3FYkVtEEu3meElqped1yGpF6lqCdK1IZO6wC+gR/76XXhf/0pz9nrVR18vsBUqfIDEhdv/1FjXYV4zgfrFTO5teaqw3VjxthGJsNooKNoD9Kx6fqeymekvYMyLvfKrq8WWuuoR0BuTzA2vx6x4wWYp6EmsVh0lr6uzuNHcNSol+Mp437j+pv61guruVtM54DlfWr2ohH1RYoEteyK/cZ9o+K8aQhnjZ0DOi++bBWqgE/1cyVnHCGiFRE6lnCMr8/my1SA8zx8wCszQdBqV+4LZAzqI9BXP5HKMzvLE59FBi6hKvZXQIzNcGfaArvhOm7c99KZW0+vVzF3LHX0HNEiKXk1pQYS3KqYvQEOrOJfsuBd+R7Dn7GuEaw+Xl7QHeqwfIcZ6uyXvhTVkIbq5i/uL+krV9qh+35pENHRd8zRYZaemYagtva5met/iKnn7MGteZaLvq0ueeooTUp7u2XEr3cl7bqjTV6h4d15AUKxu5HpOal1MfDSl1HfKk+Ap2zfCUz/jDpCTP+Hw385z6KPjW0CLLATQkz/mcY+Gdh6mUgKiAHVtYOC6sLTN7PimuOvP+v5DuOQcSTOnn9AffAZ7h6sFJvuCOm0d5JOTzUAiKVJ5mouBWJ5XKVHmb8VZqesnn10pqi7z5i6BomW4EmxRjkDZm3gX+KSqTFvf32RIq6fgtN8lEVOH08iV6Ymo2kHH5wX54KtTN9SCboIfAui1HO5mdtAdruh3S6dj/5EWbwIX2qpZZ2RY07DtNdA1K8n+8YtOx6m718vd5Yw5NZMnIaMFVFZ8PUCE9hUG/zFTmDWkON8MVNJbFeMLdbk2LnEP/Qq7B7a0mdzlGPM/4zPeHHff6x9qXCmU5lR5647oYHllBVEK5o97J239kXCKLyQbEFNEV3TPpSjxH2HSeOSj/kb6UGGIeHtdXB4j+4TB+sW7UFYCnqJ2+rjbbB+eRSm46ps6Ur0PSDscyfs4P/DzMfXvPd+5YwVZTioyx1jCMibXlZ6hyGuRdYdDQ/yfDjyRxSb0osMwBSuZwXEriT5cjZvcLskLmKufY+Kfamsa1fiKW4RIpkoZ6X4T/ZLrCPbe0z7D9i2fLq8jKfLNVSTg9l9wjWIOUI6h3wStmDOkdQD/nG8gerj7J7dIqPcoC7UygP0LZAkRLg7D62zFtormPLA1qnT4SYLb/OUCt6n5AeGzW0pqm2tKVnlKt99BJpjVzi5cAL4dfBpFmAsQU5W0gqD3E2f5HipRSvWOJZKlaJdT8x9RwRY31cIm0+9K7ofbLIuIYt81CQbXLGsIETOgO0UvO6tYtgpZJB6aT1OP6VGzcvoe+GJFKzaIsnX1qAzG/WsxDJFNAU3ulbTzJRkflulRh6QjX5I9XH2CKstYG117E2L2cL0fYaxu3V6FabKmv+47//CNAfI1tPZY6pM/IHpI6PZcYzZGnrP/3u30uvCn5OrteDlbpwSBUSKUv3iHBjolCq0pObS0wwGJDOrfiEkjrKHhS2vCB3DXOJJJ+AlFrz5E6FamNJ024whIUnjrKhp7XSOsFQrXeCUSlYAWe03S+X+aUyPz2bwFtgmS2odwR0il9n9+kdPq3To3d5jWLtxVYP+91dwmXNRbZ6zuaFxVFiFfPth8w9Q2I8zbdCIJSxe5C/oWUZd7e+nAzeISaaRCMQq0KwBhirjyv1aNl7hZva5AOjuo7+kl1JLpGWDxyhv7lDK63RO7ysLZR//CIi9WTunOKTRUIqGZICo8a+smKzhvkR5YC+eg7FB0MeeFYDjDWsKVjtayYBDIQpJ7BQpR/zRyo5K2Kfwuk5Aqzbv4RbpdHf8WYatkiZmPjj5N6oH055QOd0ksQnC5dOepS3h969RL63sMxPObwLidSslSrcmCiSqmC2xOYHdpCJ8mxQ+lm8UgTNUplXa6wR6p40HBglCZhhr5QTHKBq/SjFksYW8CqwbSlqb9p86Ahb++glhmpRrmPt5HJsPqHcz9qg9dLHu8tPbyXAo2cLctYAb80OsDyS1ccwdy+1+uSGn9l3v01f1swU19J2L18eZCzeotJ6w6ZfMI+Pirv6uFjSsG9YaRvkvr/704Y1vLDOWAKGc6HLAxa0za+3BlihqkhYU3Rr3NAzZNgzWNySFnf3Gg4clTb8sqCkji6rpxQvN7M39uSTR6SeAqAny7QYSM16+nLQ+MoND2rotaRhBThYTnc2hbcGWGtA7/DSDi9t82mKbvNugNxOuRVEc+LTTH88E1KPM7dJnn8y2Ld5dXaf1unVKU2a5TWfKrrliefTpOoPJsaBpBCUCjv6jU9N1c/0xXl8TvyoMBAA43f/j/uWaFfTkPF6QZHKtadMPSPCioROrCKrJKFrgQj5uVqpsDXTJYYq3U0x+dARPpEytQBP58tKjUHNsPV0Imna1Scl0tLjo3zdU/oSj05aS8HK1IDO6dcqfh1pfnkO/Gnwlvo4W71O8VAOn2QNUIbaS+R18pe2Gu9/VfrZ/+B2vq53NYgmD23z6u1BneIvNKyhvrmdf2yY2dcvtiSLd6W4zuHSziGx5vGiqzbQZg/NraW4eynhXh23tqjYW/jlTZL3CUv3INMxILYmxd1JqmuwvPsI95cP6qQqmrhiaIcnfxcwIjVfpFL2hY1LzYxNZManFl1ed8P2JfoazubnrPWc1XN2hbd6WGtA5whANLvNp9He6tkISzzHMh9OehjyANHsDsnNqJ80PXUcUqEPc/g5W4grD9POwMXlXs1nb5esdW++9Rv4tokPMuPHIBQVQDo+kflQLaTCNNckUr1NT2qW/Yh1BMj01MIN/Kk9KfngCHNTYrm0jgJ8AFIpW0Bv95910YG16+NsAZ25TvfFjXKij983YIjBDlRs27zMUAlgn8Ko39SSNLSAh4FtT5YcOCrf93fLvrxBx6yRDB7KEdQqPsHqkcp8kGjiJBcW7DRO7MGpfAVkKsnL2GsFm4c11RZx6woqmpmqJwzdQ+LBUd3+Ifn+Vxl3I1NSx9i9eocfEl+Ve4oM1dK9BwxPjOr2JLl4StiVZNv7DY++Y2jrk/xPm2/t4r/bWnRDC3NXV7n/WWtrr/jYEchPuBtOW7cvbXrqPXFVT6G0jrP6xHIwjfUOL/RwJ53wKT9BpOalFFk9tcBIhSj0SaROfPGbzZqLf3iJqeazpvrPmerOulxs9Cwz1C4z1Cw31Go+84PqMFk1P29AJbNeUHsOqZMLUilbLkHRVIALbffzjqDOUqNZessnCm7+4d07//l3/wk8HZ/cZXocPKjEOM3+N/eTzoZjETM9k/nGTTs1hasYxU8rC+dLFeJJOZ62do4I32st4NZQZR7O4uEsXsbipUvPvlClXtbi4c31gsmjl2ql4E9LukaKdyX5WB/Xpv7YH66CDPzZtqTcCu4Fpg02JmHbUtKBkZJYH7WyiyoPsbo1nKkOFqoqHwWKZumZYxPZb4KyQUQK44BpfVoJ0LBl9DqtuJZyhoXbOop3vW167D1m76ChJWncN1S6+TXK3aArq6UdHjI8D8jlft7s0ZrrDMGnjU++I7T1y7uTQmuSb03yeweYQyPcE++IB46Yu4+YHz0q7B80tKfFWJLekxZae+W2dPHjvxa9TxeY6/RlNTrFI5cGtQoM7Ni8x/6I1I8tUmGYO4nUP1+/YvOnmR8Jdg/v8PMO39kVLvuHSo2o1IkOn0Z7p3892c5v6ntmZ4Hmc3QOfNOQSqKmyTwbiT3w07ZAocWzRH+3ZultnxJXfeeWza+9Npytemzsg2OQKyrrO53cGBVy+qs18h/LRrj+8z//m2ituqS4nnHA/DJlqaMXasZfjKfNncPMDa3LTVVFbkjdRClByhmklbMvjBKklMByt6/IGSiUqgtuiRsPDplbknJrSkjMC1KlGMCUS4CtKrf0GVvADyAkklJLSto3LD3+nrjjNeHWdsoZKpLuLTLeqyuuYco9xw//fXqbT2+HqHtduaeouKbQsE4n3Ks31+mve0BcfcD8yGHzo0flzgEh9rbc0mdqTTPdQ/IDgFTKUks5PLzVRzsCRRCWH6DN9ZeUeaTqx2w979CHjnKQ1bDP2NpniPcxbUmmLW1q7RfjBP3xlBhLM/GU3HXE1v0eU/1jrTFgFKt1rpoip5e2h2l7cFZZFy5opJovj9I2Xz6FzBv4NJ+/tSaS3VJ0MkI8H6rM4Rj4momJ8fEP3v/H/xp+9z/fe/8/fv3+v//6/d+ddXnv/d+989vfvfvb3737/v8eevff/+Xf/g8Z/JJsTHM4z5n/dCKT+TCTyaz192g0N3xSWPMp6dZPi6sv4lZriu7UFK7WLL9LU3grVXrvl769qeH+J94a+KfJqsbHj42NjeV22iNyTyb0yxF28sA5/D8OiVIB+o/9tHdJwd2UNcja6ih7vZ4gVdz8ktQ1v0FUUpxgqD0p7Xhd3vh30uYX5M0vyptfNGx+0XjfnIrhvhfl+16QN71gbP475v6XmPakmEhJ8dQ8+VLBS5tIwj5dBNkfzYPFUlxrkm5LsfuHSvYfKd/2K2Hd49R3dnKXNheWepcbq4qkKr1crZOriuR1WmkdJVXTci1d4qUua6K+/iB3+97i6M8tiYHig0f5nmE20Se19krwXX1cPMV2D0kPvEy7InC/bF7G6tXZAjpHWAvpK/2yXPMF41rhO7vkRw4bH3/X1D0stiflRMrQkjS0pvi2NJfo5xMD9L4Bc9dI+YFR045Xhe/sWiatZU11nM1fqHh1MN736u0+oSzAWiHXRD6sMF8enUOTnOufLnImqtkg1UfbvJrP3VoT+f/sXQd8FFX+HyABQkmyO3V7352yG+Ds7c7TU0GxnNJJCKGkbZudLSFUqYKgIiUFkF5UPEWxnO28swEhgUAoonennuU4vbP8T2kp8//83myWTQi6nGANn/kMk9k3b9783nvf9+tP2f/ue4JUEEpbWppQsqTvSuyzPN/c3JxwLDhLke9wG/AK8HrOom1aW2jA9bMH/C424Dezr7rpnsEjFuaXLp65cOuWbTsaDn+YLMbDKqKYjgDyLqA7AjL3w5tLytdgfYs14CsTonIkyglc6vcAqcYq0GyaKneb1uwzbTpk3HBAOQwbDnzHw7jhgGldg3F9A1ysrlf2B70QKf3b+QwooQQJXhj8VSt3GStRoEFVrWX1fseGI641Da4HXjfNeFYXfEQzYb0m9yFmaIVmZJV27ENM4Xp9aKvp7ucsD7xmW7nHtvGgadNB3eq9+upaQyXkKADmF4hWC4kL1uyzLXiZ6T+FdIUB8txR2h1j0IVRiNjYMGRQ1ZWS/cv1Bevts160rNht3NRg3nTAvuGAY0MDv+6gY/1B88o665wXzHmr1L8qyzRONLmCGrdE55QZ+Mm0J0q7Q+p+EdpdpkVK1U5I/RYsOAdX/5wfDFK/5Rt+5D8jt4WWlhNffHX8X5+d+s+XJz778vh/Pmv6+ljH7U4G1o5LnMe7gNpNstxy/OsTOVeWdTf5UBBOWdyJqt/35OrfDpLO158G5IVqRFpOC9JvWipA43m+6k+xHnPlbktlrbEKLD/66lpwjK0Exlyzdo9pY4N900H7hgP2dQ2Otfuda/fb1zVYNjaYNh/Ubz6gWVuvWVFnqKozVdYa2ysrIOwCQk7X7rMueFkzYCrFxpPMUrBPVJSwBVSmUpXNR9pFwiYS2tJMbSnlKad/O083vEpfuFFbvNFQvNEyfp12eAVz3T2qnFiWroRhSnVmUWMJZjr8akvQYJL0QplqQDxLIQ3ufSkpCX/Rgn8npJ5HgOq4KjCxtTQnzGxtCqGQLaTaADN+q1ivMOZtCl6gP+DVoJR4+plDXfsWqD0hZNid/D37paaITf9DMUAxxAWbKxEjjPi7Cyf4d9hCxVqlQKpO0XKsAEg1VAJc6qvqDJDbtNZUWWuG9IN1uuo6y/I667I66/I6U2WdprpWtwIQGdj56viF8ueZkArmLD5msIWJa2aqbl5A3HCv9vqF+PX30Hcs1l0zi3KGNKYgafCrrYFMeyDL6s+0+rKsJWqbl7EHjdfMNtz6AHPdAup3C+jr5ulvuE93+Wy9I6IBJyrwnVBcfTs08be72QmpKa08kPDtBxL8LxCefD/VIkQ9AcI7gNdxueVkCyTQP9kCQIsSnwJf2oKSlp5EW0l/P+1CbwFIBdE/t3g11nMi01+k+0U07p8PpCYwDkWLguFIs3K3vqrmAoX5J16XfAE6jbassaLoAFWAgrDVu3UrAPrhKdhzEC6UKC9zFYQPnI2z7hhSbSH6kpmWZW/Y1u+zVtQ6ltfkrG/wLPyL9vJppFPU8zGdEGHADTFic4Y1fARMZEKYsgWoK2e4lr5u33LIVL3bUbnDuXavcclr6kumMQ5R64maOUgmkMhU0A5D2/3ZCamdkHpBUQzgEjATXKDACbQR3BhOAZSBKf+U3HIC2a/On8kp9a9BKuS/f3xUZS/KskzSeiQazBHft19qMgCd32sFyxQ81a2ANFSmFXWmFXXKW0A1eSETU7WrXMFWUyW4WFlBEbHLXAl7Yemrd+mqwbULWFdk49Ks3EWu2kWv2qVdAWUsZ2nnmZAK2U8MPmbiBtMfjlhW7DWt2Ktfv9++ek/WjQtUZi84/AoRcF/1hClPWOMOa/mYgSujPGCG0mt9Wb+bb1y7z7L+gG1FnWZNne6Jw7oRVbjRS/SP0OA0nRJQdGaiSn3vqU4uNXWsSi7ZAumikYUK5TxBCflRJql4MinwhkKhUAkn0eSnL+w1cMjT5z6K9R5B50zWC5Mo2L01DKEyLul7S5vSDnrO458KpCqOTcbK3c5lu22LdxpW1ulX1JrjRp4L4vZ/tk9QLEutQVa79K2bYJsrwAELkj9V7jIBhu6yVuyygGUfAFcP+7sgHrbtuRVSX0roUrVcmGDD2jnPmTY3cEvqjJV1tk0HqPyVKk2RCeKMy4gcCKDQeaJ6cH0Na3ImaYVJejf0uN4dztIXM2NWO9cfNFZBLkTDwwdN07eT1oCWDZGQ9fWM4JSzqFY7udSUFp9Owf9/BLe4ZwQS8qGKUzIKJ22WG5tBgRoPBUClIFrsf3zLuTwWj5BF7/r0sy8sXCDNXErlSAZ+MkrnEUmC1Je/h0xUHeLFeblpQvZxSJiCjFTcyv1MYCsZe8K+/oCmapcZmYlaVasdw9Z3b0ay1K/odnUoaBX2F2hFUnNlLRL5kfGqCrGxKARLyZt1tjYYwDy133LvKwyYpyTIHmAPUlfOdC7fYVlVZ15eq12/33T/X3BPxGTyaT2TSA/EDWo8MYMQ0wkxsl+E6BdTDyhjPJLBHSIHhHX2EOEu093/F8P6A45ldca1+4zLXtddPM1oCer4SGcmqpQm2f9gngpM/b6dqFL6ks5C30wBwGyUJQX2Qm0BvQOKbphx/+NY95FEvyjTX1TSJqA0dBLtEjU5k03zXzSt26co+JKh4WyT/Md2X4FUQ9Vua0WtoarOsOmAoWSTasAUfulOzYZ6UwX4IWlW7DZV1pgqd/3YGv/t7akESDUvfE1x9de5I4zZjw9ebFy734L8BCyPHNKVbMw2ePVo+8hWez1sNK0cOneU6AebURvcUVqIkJ4YafBqSjdZNh+2La81rKo1PlSruWGR2uo38GEDJG1Jif36hXOpU1NM58zkRGh3BOuZ6++E1G8Grx/nr8API/0DRKQ1t6Cdpo7++3MdW9TbKOGQy0PSCuVad4TJCVE5IdopMjnlpnt+XpC6scEceaI3NUE3qsr+6CFICboM2EMj7En1E4TUqt2mtfvMC1+lB0ylXUGdW6KMJZohleb1BwzVsPcUbMY3vJLQl8KmvJD76owD7eNCQrBpRCuESU+UNnrxYUtN6w/AOrqy1rJ2L33L/bjZpxPCeiGCEmidUckZ1Tou/0W7+k9m3OFUDtoTpoQwQOr37ur/48Son1qrmpvl5ma5ScljBXkDZLmkbCWWPlqTMxP3hEmPqOXLNXyMzvFSHpFCmUaN97zws+FS9ZW1xk0HTNFtWqMXN3mNU7Y7H35bV1lrW1ZrhsD/nyCkVu4GLvXev1D9J1Muv1YIkfpC7ahVls1vaVfUWqr2mFbtoW+6T2/w0R6JdksdTfMo44mQHsigqhfCeI7E6IuZQfdCetkVELlr3dKgHVKBG0opt6QROqyhA/SwXzb5B5wdP3j0VCek/oC9/32+uqkZsangcdD0lSzLf9r9dlc8D3dAqnmyn0h6gowwSSNM0nj8CUg1/Ywg1VBZa9gIkKqx+0ljMZFTblu2i9lyCNLZVdboV1woXeq3y+9tjU7nUP4MSKUMxfSQCvO6A5pVe8wIUpkb79MavJQn1BGehiFljwAOALQnrOdDRE6YMRbpBy20rDugWVlrrK61bNxH/X4prishczqAzrPUGe6E1JSIBak0kF9qp+D/fQLheXxXiwyoioIOTv332HHhyskYWaLpFyM8QSonSOeItDuq4cs1HonKEamfn+APkNpgijyBO/0aTlLpvfhN9zrW79Otq9dV1Vor2njRnwOu/c+A+N0fPA2pUxQulTKXUoPut6+q167eY6naY9vQoB1aqTaUaCGVZQfTHHpciNDuMAmbAoSpnAhhLNGOqLBsOKhdASFb1jV7mEH3UQYfBXq/Ti41helov2wK446kctAepEvNyOuE1BTo+qMr0tzc3NR8MuFQUBpZjXXPpfpNoT0i7Qlo+JjGLTEeETGqMcoTopw/O/OUAqnRJ1SuIOwL4g5n64sMIyqcDx+yV++zLKszVP3UGFWAVMhERfWfSjmDWkGirD7i6rlsRa0JJZO2bj6kD27tY/EbuCgDO1O1PyjICRDRCGEKAa6Oj2bavZroo5ZNh8GLdtUeS+UuzZVzNZagohw4s4YO79gvm/IDToAfXPBPPRNVJ6T+gOPku766RT7R0tgoN0MClzWb/4z1HJHtChE5MdotadwhDTcd0mHk+BkhphHKFEgF89TPyeLfyqWSdolmw7RbMjoCjK6UKt5oe/Rv1uqGnyakgsWf6j8FQWqYcUp9PTHTPS851jUYK3dT6/YKS3bSF01jjH7YP7V9zrkYjdz+NWCYClOeCGPyk5dOsS5/3bhmn21ZjXXtfu29fyK4Mr0DkpOd8fhZs1L9ojNR2S6dQguRVA7KHaaReSowZSOa33F/y+861zufP68UaIGwgcaEu6vCloJNqqlRboZw/pd3vtOTLMgwFGtzojQ3lRIk6H0+Bmc3uoYEcRLpCDKeKab5LyPzFEp91Daq8scvGkPUaSWEnxqqdlkqkOPnpgZzZJvaHtK4JA0X1nERoyWYYfdqI1suWXfAXrFPU1Wrh3D7GsXH3gCu+B342P9IbkL6gnX7rfe+SvebQjgDDB/S8OE+phJ9yQbXlkP65bWa6j2ujYes/od76wopZ0AjRCkhRgkxWoBsVVouDFyqEGP4COmOMK5whtHL+B+xbjpgqNhhWl7r3HxEW7KZ0JcwvKTlYgwPjlapHLYemBuJAAAgAElEQVRLf8FcaieknldA+xFUBpiqZGg9hdIDynJLI+yCCnpU+dDf/qUyFnYhC7T9yzRCGQj7QpQWojSslxG4QHOG9EigS/1ZQmp4W7ZTpDiJEqKEENEKUY092MtRrAs/bH/4HcOqPUx1jWV5DcSwVtc4lkF8fWsswI8OWxGk7rPO/0sCUmkhQpl82dfN0q/ZbV2xz7p8L7G6jlu3T5db1Us3nrIFTWxUy0dVOVEVUoxSQoRwR0l3xGQVaXxC9rAK17oGe1WtsWqX6aF66+p6zbX3UKYS0h3WcWUawOJOSP22OX4O+VLdkU4u9dvI+SP4XQmNQrkETsmnGiHBQJPceEKW5SPvf2LkJmKZE7U5U8FY4REZmFdnyoNRCkEq7Zlsuudnx6WGt6kdwM3R7qg6B7Lo67goY/H3dPqp0CP8w4cNK2vNy3YbIU3UbssZGU9+JPyp0oxkSCVdQY0gaYQowYcyrSWm0GP6rYeZKpRT9aE6bl29fcy6PvYgoS00WPxaXiLcklaImJ1hxhHoayrOMpUah1fY1+/RrK83VO4mq2vsmw9bpCeyzaU6XtR4IoxQ3in4pzS9OyE1JTL9lAohXymklWluOdXcclLZSHXfWx8YhQDWZySTE6U8U2gPsv8KkzqcJyD4O0XKXf4zhNTINsoeMrJhHR+l3VHcHSHdUT0f01j8fUzFhrFrPBsOWtY06CsgyB38q37sgn+cS1UglRGipFvSmErwy6fbqmt0Gxtg0+mlNZaVex1bjpju/iM9eFF2/3Cmo1Rt8WWbfH3tftwdpW6cb5j2FL9+v37dXk3VbvPyOnJjg1BRq7toutpSzHiCWrRZAOyIldrxi9alnjOkZuQGOl39f8QI2wLOpyj3KpwalT1annulXm0dh6nytO5pFCTtFylhOiNMZsDm0AGX+nOG1PA2tRO4VD0fNfAg86o8YUaIaj0RwuWF9CJ3VjjX7DNtPmishP2j4iGtZ8kF9cMC7plcKqAeJzGCmG0q1Q9e7NxQr1lTZ1oOuVn1Vfvsaw851u03LnzJHN1q8G40Fm0xhx83z3/Rtrbe8PAB3Yo6fVWtpaLOsqrBuemw8balal2hzh1i3BKJ9kfRpIanjDv6C4fUlJ2oFPNUJ6T+iPFUycFyCsn6cmN8I8T7Vz3XjR7elR6nzZmU0JYy3AwGtn4rRZDa3rfmZwyplvCTma5gdo5IgHN7WMtJpBsii7RCWCOE9M5Qpr4463dzjYtftW95y1Bdq0dg2i738w+LpIm3xyF1AehSFS6VhlyoEVWOpHGFcF0xM2KZe8N+cmO9rqLWsrxeW71HV1XjWF0vrDvIrz1g3XTIuemQ86F9+hV7DJW19qV1hmU12g37zY++pR2zmtSW4HxQx4c0QkzVL4q0CuEOXabOvPmLdqKyXVpOg8332w/FNIx1QuqPG1Ihp/SpE8rO1P/5z5d5E5dhGUMzLD5IJCaEaV5i3AGGRyZ+d4B2BzvsesIdIloFfyOkTfn5WPwt4Scpa5Dkg5n9YMzrOIkUJNwjQSZmLqzlJUoQ+5oKCXeZNfyUfdMR3YYGXTUkADQjDYChercBUuv/KOICYAeqtfutC15lkMWf5kMUH6Z4sHkQOZLW6ae0xcSQZfaH6m2bj+hXwicYKmqMFXXAelfvNlfWaFYCG25bCqmvYUOBrYfMD9USwyoIg09vDxI5EumO6dgy3BMhPEENL3Y4Ws68abu0/AecJT+wX+o5Q2rP3KDiRJXImKw4U3WewXGpNVWfskX06XPKAyyeLOoMaibfSKoMpZZqQUkCmyCjdVJqwMe21zgv8mI9hxNsmHGXgS1YCDOCyAhBdIi0AF5xZ84HWpAYIUQ7grR7kvmely1r602VNZBz/ifoRGVSkuRX1lgq6owVe4wbD5gjT2msQS0bxHMkCr4UDDWEWyLdkMJCw4dot8i4QzqjjzD56aEVziU7uM1HtKv20tW1BpCLd1srdpmrdhmrdxmqagwokyny1oJfFf4R0qEmkrGeJ6Il0lfHL1D99Moaw/q95oWvkP0nq10BDR9i+LDaHdFwYehBt6hzhXqbS7Ovuttets21od6x5ZBh3X56zV561R7IGFu92wippuuNa/Y5H3nbvGGfddozmmtmE7oSxhUiPKKGCxI5EYaP6rkw4QkhpurbeS9akDohNSUyobkHmahCkzcg6GhugjQckKoeQYcyu3/Z59MYehYITEJDKHvmP6CfAquQfU+hJrCcLWhfAPQ3/AXZ+AFDYTfulsYm+A925VPq23/w/eHjFmB9R2BUKTiBeyQtIGmoFT07htHWX2EwaASRdvjJnJhx/ovWdfXGqt1alHD++9xfJCHefrcL8DM1wBb2dYbKPYaNB03RJ9V2P8OJDB8f9gwC1tOfr9zPiVBskNaMJ35Vbgn+wb7uoPbhI/oV9dalu00VO43VO02VKIF0dY0JKgcuT1cNeU5hr2lwhj1vrldof2nw6NJX1yAfW3ijCZxta6wVuxyr6iwLXyQGlFOOoNklER5JlSMxPDo4iB/VeMIqUyFuKWJuWmT0PmJf+Ipt5W7HmnrLhv2ah/dZ1++3PrTXtvg1feQP6sH3ZduDuL5IZ/HTjgDDiVoOcJnySAZWUnsiuAeqPU2os4u2nZCaEpkoQaKEyVjP8cHJW9DUbYpDKjiWn0L7KTX+4s9NCgimdI6z+XHchF2o2h5oXxWAVRk2WgHPUtixSj4G1IY9qZsAQpvllsZTCF6hTxre+aev7KEswwQsY7TKMYnylJMekRZELR8Bqf80qn5Lj5Mg+AfxnEnG+S9Z1+6DBMmAEWhWK3P7p3A2VCOwq9plqNoVD+HfuM8ceZywA158AzQw7jAFQjQsQmqrt4+pSPe7BdzU5x3rGvSbD9IP7TUtr7Mv22tYvlsPKhGUG7Bql6F6J2SVTjrMleDWej7yzNYYqnYaqnfCuWqnEY5dxqoa+9I620P1pkUvEwMmU46ggQWmm3JLoN7hJQ0604IEqab5kEFTqjaWEv1jzLXzTLcuMf5+KXPXg/iQJfiN83W/Ks80e3FtCckUqx2iod8Ujbu8j8WbZfeBSQqEmzDDhRgBav4GuiV+6oTUVMgUpkCUkLCMhOCv7O8BiY1hz/nOAzzsz4ljV3haZSO/JrSdn7KfirIpFexLpZRAbKnyR2OLfKK55XgzULsNi/vGjsPFoYdwWzHWc3QPk0R6ppPucgo8T70g5vOKYSrBqH5Lj1PuEO4S1f3KjfNftqzdZ0JslxFxRpBa9CdyKAGmhupdhmqInoJNSjbtN0Qexx1+DftNkAqqDzDGgmZAw4d0rKjWTsx2+DWDH7BNf9617pBl8xHNQ/voqlptNfCksDcUWLFqNGh7K7Aate50fa6Qeib+gntsxW7b8hpLRY3yIljbQLdQS6/Yq9nQYJ//CpMzOYsVVTmSkZV0LBjcWhnVEA2qDIi+pd0iIQTVbBC3+mhtsUFTYtAUq42luDmgtwYou4+w+gxDlmnnPGtc/Kp28V8cwcfpK2bheq/RGSZyQlohpAFF87eMHAVVOyE1FTIBj6MRRCxjtDgZBaS2cmJI3EyWc3/B19/50xV5vkmR6iG0FDKcQpJT5VYcYk+D6d/f/7DyoT/dPPS+voZ8rMeQPiYfpLXNCVGgEAxqPAFa8AOfIkyizoVL1QgS7RQpcPX/kwW41N16EPxBXfjTOsDqgvhra8UeQwUk9zPEniKQVJtgqc56AeG5koYDx1UiR2JcfkpX2McZwm99QD91u2lljXPLQeP6es1K2C/AUlFnXb4HWNRWjaq+CvY9ZdAmfSkqTEzVcSY3WdcBWoWK08TXV9Ya0PbU5uW1zIo6zaaDwsLX9TlTKHuQcCPIa2Uk46iq8Kp8CJzn3CFSCNGeCMOFKCGE94N4B40Qs1hEtT2gC2xgHz6gf+Qtw9oG7fr93Ka3PBW1WQPvJYxeyi1RHlGD1pizkisJbTshNRVIDTFCWMuVY93HieVI8ActXjPaJBnxUwmG6hd80dLSBFJ5cyPav09BwRTOoCcFTSji9FviO5i0ZUJPg6gsH29uqdlzqPKhZ0aMXW4WRCz7LozI7cOGSfckrRDTCqA51fIhrQCGBRrsvxCzD0JG0qD/5mstL2rj5qkXrWv2AYsHs73WVPETO+JbvFTsti3bY67ca9500BB96lsF/2TiMEKMdpeBo5VH1LpFhg3ixmKVzUf9do6tZL190SuOdftsmw+a1jUYVtabqhGCozPwqpU1JhQscLaQVlN1reKeFXfSQpCqbDENrgXIxwD4XFAH1+qr6rRVdboVcBhX7nGsO2DffNC2pcE19WnCHSMdwHcjOxuI/8mfgK7DFIo81rgjGtAJhGFguKM6IWbgIoymRHvnMsdjh6jVddZl9dySPeaKOnzlbtOjB+33/Zlwl1H2AONGgn8HNZ/5rk7zVEpkUrjUIJY2tGzuo8kzvPP6QlOgsUU+8uEnz/xpx4MrX5roX3v59bPVxhKs70gsM7+vOUi4o3BAWv4wzUc1fJmGizEchAYhL9Qow4cZIZi6IhUUiDliNuvP/tUk05JXHY8dsa9rsG7Yb1vXYFnfYP1JHeYNBywb9tvX73eu3m9de9D+5N9MU7erbT7m2wT/BCQpWe80CuvnCWsESS9IZkdQa/KqTMWq/mWawQ+YA4+YF/3ZtnqPsOGwa90B0+p6w+q9+hV1kHlkaa1leS1sKKAcVXXxi8paE7o2VdWZquoMYNSKlzFBFCnYA7XVYPIyragzP1RvWr3Psm6/c9NhfuNBbtUe5/JdhnkvWEs2EYMXETlRDRvCPYCnSGPeofkxDIOBj2qQIx0N6tGIho/q2RDDBns5g8ayJy1bDuurarUocYy+qtZQDSG59nV79YPuIw1ePQtZ/TsF/2+f7Kk7UaE5GU7HS2/Le/C5F1/d9vSrTzz9xhPbd2x76vUntr/2xPbXf+HH40+99uQzr76+o2Hn7sNv1hzcAedD33gchF93H36j5tDO3W+9vuPAU9tf/cPTrz76xzdXbn7m/uonp96zvUhaf+uoRRddP1mbI3Vj8rFed2Lq3G5MQbYrQHnCBMwiSHei4WIaLkLzIdLjp9x+mg+TbpHM8ZOeAOUGxxqwVKS0cMY5DkYANyNI9Bd+RD/3RePUZw3TnjVOfUY/7emf1qGb/oxuxnb99O3mKc/qpjytm/+CpWA1ZQuAhjE1goAKBbh+ieEjhCeKQ7Q7WGnAAYsLa2wioS/ONJbgOWX6GxcYxq01T37Gvug164o626ZDtoffsmw6bF5/0Lxmv3H1PuND+wyr9sKxYo++eo9hxV7jqnojugO/rt4H252u3W9du9+x4aBj0yHXprfYDYfsq/dbq2pti183zHleL201FazW376EuvJuFR/OMpaqLF69PUgLQVB3QiPBFUz5NAo8w04fEAXARyghRHpEwhOCuFWI9A/oHX6VQ2SmbrdvPGxbCrsb6Kp3gc9cVa1hRa1+017NrQ9QulKlqk6L//mFVInmIRtYprW0KzUaU+dieB6Gj0HnvM4zps7riuf11k/MMpdkmor7GouSjsK+xrMemabCTFNRb/2ENCIXw3MxcizWayjW8y6sz1AscySG53Wlx/UyFeOsSCHfUpgVQogEs0Oca0i4ASETomJ4AWXZOQn7yRCjhMrQXEjlCqjYgNoVVLFBtSugZn9ih4qF9sMnsEEVG8h2+XFXIEWzdTJB4iDVyqZRvERxIRoZwcFow4mEw68yF2caCzPtXqJ/jPrNbN2dS/QTVusij+pmP2u49yXLA686K3Y6qmssVTsdq+tda/c7H9prq66xV+9yVNfYl++wPfia6f5XLAteMN693VD2B71/s3HcGtPwKuq2B8hfz9L2i6o5MctWmmmcmG0uJqxeBjTCIcA4Pt7RKeIdGhjxtZN0SyZXWK0tpkdVebYc1qys1VaDt5mlYg9TXavb0uBc+kbfS6YYTAENGyJTW4R+6X6p1ksmKf4iqZzRwArhrKhyhlROER3B1gvlz1/0We0MZdmCWdZAljWQafWndFj8ifJqZ0jtFNVOkeIjJB8mOInklSNECyGSE1EfSa09lbgAd5/zfcCUAy8iZ+BndTj8pCvw3WlFg1O9RCMjD8WHCAGYPtIdUgsixQZom480edXaoix9SZY1oGJDuBAhBpQzV82kfzsXv24ufcsi7W33a25ZRN4wn7x+nubaecxlM5iLpxI5ZSp3OIsLZtp9fcwlfQyF2bqJuLGEsJRSdh/t8DNsEFQQ0N0iICPqd/I79D4hSLgQou0BlUNylD/lfOKv2o0NlhV7LSvrjY8eFtbv19/2YJahFOdFtfscxpj1kknfzs1dsBI/cPTUOUGq4qn33Ufkz7qG/x3pyFZnyY7oc2a1CsKew0DvqNqzPq5A6jk98gsqjNabxPcmaJWEbhLEhnJhwhXCnQE161c7vCpLscpUjBtL1IZitaGIMBTjxlK1sTjbXKyylarspSqHl3J4GaePcflo1k/xAVKAgxJEUDXwiWUVei3x0kQz/ocLUBYJIcIdVln8WVyYKlpnWfSKe8mbhuWva+Y+px24iNJ6tQ5UBslGKb6iE1LPOq9SpGBnsSQKiMBBtDlSI28r05FUVfKDERS+nbgjUrwfvSVxp/Pi+6MAwNAZ/UUjVUAcpACARIYTdazIcEGaD9IwJII0F6R4yDBA8UFKEOFC+RUKBxn0K+WGklD49HF6+TwvSJo0xoIkL2rYEMNJ2Y5AtrEUzylT/WYWc/kMwhbsYynBQWUMhEVtPt2MpBo6IHsnpHZAlG8mWeevZ6GAAqbBtpCa6kA8S51K70igvzst4imz7rzU3Nn750wBkg+pkTo70SMKnip/4gL8igsixQcYLkBzIs2huCNFVwDwFCJaD+A3OUk5GFaiTmt7lB6XSLhzzi1MNOwbLmg+lJUDI9bgRLoLXtS7QpQ90Ndcorb6NE4RCrhFDRcyO0IkLxKA9Sm1pBNSUyJTitTsLNZJgZ89BQATO4JU0K4iURpHkIoLIi4EVR5J5Ymo3RECXAWQUYsLMQpLG2cAJRylO1G5QVegYSMUBwchRFTuSJY7ooYY0wsySWk+hLtDKhQCoHeFtKD2FVXuEMEDnurYEMWFsj0htTuEOFlYDFLp3E5ITYlMqZCys8wFo4DC/yZ6Cqnq2vCtiZ86L35gCigcK8Mm0BPcrRRlKBoeIiHAQaIjob2hOSiG1DsJsyRiVDlgXS/EuCIV0OQBMWkOztluCRfChBCmkF0Ud4MJjuQBVRE3nSphOyE1VUpdiH7trDM1CnRC6k9mlCYrAaBzEUOa1MtxMD0DUkEDoBSLgzIHvKEWFJ2psodJb0mJXKQQYlh4C/gtAOstadmw0QmKCAJSpUhaVtShNuBuYMxTZJY7ITUl6p9rb3WWv8AUSFWxdYGb0Tl4LiAFSKRGSFHc/t86Gl6BxHlQSsC1mGx5Aw9oxQk6NZFfaUMnpF7AMfG/dXPnU50U6KTAT5cCnZDaCamdFOikQCcFzhsFOiH1vJHyp7uudra8kwKdFDhfFOiE1E5I7aRAJwU6KXDeKNAJqeeNlOdrleus5ydOAcV0dkFcf37ilEllrnVoePwpEbMTUlPpZqVMol8TvZ4c1ZPs6JMoiVI8tAnQVIolakgUCKEAodMVtho642EkyCJ55lNn1pb4nOQ2JG6e60Wi/jMvEjSJt7BtgFPy5ygtEUn+9HE2aCAh0jHxrpCSOeVshb/1ja0P/m+kSP6uNv2ifEhrO5NJCsVI2PpYpCGqUmw1KCe+SLlIJp2y0VNyzyq/tnsk8Wfy61K5Tv4KhbbQNYiwirFbqTkR85bctlToptQPLqVkvOPO7PrkdiZTIPl+4r3gFtracUpV7YLlUiFFooxC2OQKk1+q9BcY+lsbf7ojlL47835S25KrOn3dCamnafGNxAJvtdZZFB9/KFwkMQJQ5DI4WyiO6Eq18YBlJWy5bfCyCI7EsI1HkOIDqOa4qzNqhkgIPkqAvEE0G2ZYiUFR0qiYUrPyuvgZufIp0ziA3iIqXtOKi7Li6IdeB04h3/iZyb9KlBBEbUjMt8RITb6TeAQGaOJdKMowQnFR1JIwCrmJu3kTEK2YeCp+gcLDRdwNYdfoWdiTneDDeNskHYkH4/UnTT+aC9Mo8AZ1AQREInJJEI0DxTp4aaK2ji6UnoXZSEOTEBIJEgEHfAhUCH2X+BAELlyY4KI0LzIoCwHBSwR6Nc1DDDvUgyJzlEAjaBX4t0MNqPFKaKZI8wGEyEmrC3SECMfp1yXeq1wkuub0BeqLMM1FaeiFCGqwQhMgLPqQONbQkOhLOZSeVb5FoVu7F0GroDwQJNEeGLoKTZS+Q+cEkKHagA5KLwTb0i2pfi6c1FmoPRyihuBDH44qFOLh/x2SAlIXQtQAZBiAXQvBK1aZuUlvSdAQBRcQkLIgGO/QeHSsiPIYKH2tLDxK4zuqJFFb60UnpKZEJtR/CbRqHRkwaZVJlTxolDEHIRnter2VZ4Gfkn5NjDxljAYQFiiZJtAM5EIo9jmEIzRU8ji0qxkNVuVxZUrAq8/yuvatOqOq0wWUEYkqVyZ/hOaUI4wgIIRyWwRo3k/zXlRPGB6JJ7yA2ZvIkYF+BSrBEIepdfotyjWkQOWDGg5yUzIsBCZqICGmj4nX3L48ysShoIDyE1y33myz3iTN/PaVnNkMdEeptvWsoKeS7AMBIiqjwF/yh6DlEzIn+QEouRigGBdFi0oEXaMz8LDK+EElASwSQyj+ISSMqxACQVhX4s9yZRRX1mGDW5FawevEud1yqFQu0XyAgf5qfSlah2g2RsYXP7QUCX74ingz2hENrdbxVQoNOfhkHxzQZsB9ZQAoTHorUicqURgIf4cfQgpB9O2nxzCCb4lWiKnUD+coDaRIJn786xBYK5XHQRA1puPXwTrH++hECh4uQrMxGNhx4kCdShBt0mxNfMhZLzoh9aykadvrIuQZg+5UOhLO6E7y6FcmAAxKpSday0PvKvl7cAFkrtZKlFcnuFoYTwiDFOZ0Mu0qR4NJYfHiuSqU+GhUg1IP1EyiHKOKNJdoNgGh1gpbeubgS+WrJTRXIYEQJL+ATELwFHDWKHWbsv7DmQWETSSLUtIOUXwQLf4IOHiR4sJQjI2gIZsMhfGWIOY0zLAR9Ao/IfhJN/DpZx3N0B1+hEcKHdBcjQNBO0hVWLNUPlkpE1/VEJEjJB8luTKgMGIVW+eYhBYVkPERwVvFESFACz7EnAKLF4+3EUJwByQSpf7Wz1cWXQWPEMOLUopEcCFKCmE6nnNEWYDD38BtodQkSje1OVNCEOXH85NAFgVDoRfiQyi+VCAGnAvhiPtOSrnU2ngY820OklNY71CrJIToDzJcEIAYjgD4zPMSzkdJIAKMHLTWto6oJMxKrryVW5TQUlQGyxJgdwStTyGAeEV0g8EG4+TMg+RhzKvdIbU7qHLDCGz98DMLSzRwskGQPuNhr6ipIBdGkfQgtS4Pfob3oY5OaR51QuqZtO7gDgqrEGkBBBO0nkO6ORAA49Il9DEN3YwGFkBqXFREww4Kk4JEAOcYJqFYQl2gTEVY3kkQJ0F7iNJGREnBTwg+mAwwjCCXHQnbkMXFGVSDMrCgWjSHQUYGDEVLazwpGbQwMfQ7+K4zB2XSHRD8SbefVsDLHYA/AShFwu0joW0BYCsgSxuALNI6KfNWeWOE5COEEIatK+GTkfjJRqBwG3k50SqR5CM4H8Xdktrtz87xqTwhgp9E8OVJTUoUTrDkCW6ulfVrxQ40K86mqUyup8NrBSgBI0i3j3SXQhIQPkbA0hWfV7DLA2wZ0qpegPsAfAwPKZlxIUBxfpr3MQCyfkIIEEr2Tx6NIoAJBTJirZxslALYbY3XVPSw8CfAIgFbvfpoGAanW5vIdEeCeiGMuiB+Vv6kuCjSnMB+yyTixRB8RMk4VCEdIsi8QdS2IAGYKMHuCXyE5mJoOT8TRKD7CHcpqQzL0xqJMMWVIxBUlhnle4PIJIDE+bhORll64+qO5M9B2awDuDvOuKDtWIIUYJkPKaAAqZXM0/AtQmnrYgYEac1QLjJshGHLYJIi9SjNhXSusNbZMf4qSyYSKaJoyQyhvvajoCnUETBWJZKPIvngTFKc7ovkD+mE1I7pkkwjuAZGA6YQsGNclGKR8ggmmIKJIuUSEYrBn4wAyibEoSgDFAYZibJGIg4OIKZ1PohooMC0hEg4IUILMZA+XGHC7cfdfgK2ogOwoLmghg0y8UpCAO4KgiMVG1TLQQ2EsrOuoljgELfVPh9+at+Lpi7Jh3E+RsIcQ1wSLAwRHL46RiJOikDZhnA3zAQksinzIYS2+onRrijFR1HKd5GGdgJCEW4f7vEitWC7MSoxvF/LFWtYv4aLgODPhnVsWMuGyDNUKKh3EIQBvwxKCcT8hkmIB0dcPyjUoLOAoQYCtnvXNxNBmfBx9Q7wMnwAsfxhEji7AExyt58UfLjbh9abAJJCQMynuZiGj6EFr1WLByALjSShkQqAltFQBvZtRauUopcMUjysXujwUYJEcJMIPkq4kdITVlzIkJSMIwqUABcf1/Aquj90hmEQZrhJNFdGClGQjWAZA50AKQTUbrROu30EYH2QAPogThA1D1FSUR/DNojtJwK0AXZOPK30RN0Kqz6I54rqXELzIvlZmBeIBYapdMaviZJhQmFNINFqCLKmAozC7EDa2zDNlVNsOYCg25tMilZIlWjezwigg4ItHdkozYUZXuExIdtA22+RSI9f7SkmBS8Fi1YQsSbAGcCaAcsGiEroLILO7Sw6/bZ1wit+0ZBqubiM5MSUDl7CWYkWwlmWwi74SLW9WOOOkLAYhmlB1LqD2dbxmHqE2l4E94FtBDMLZHsE1aGocYsZxrFpxCjKBbozAno3jN4L7AOS90UK9qSLUlygBzmyS+YQrO9YrO/EPkoob6YAACAASURBVDqRZqfQbIwBecRL8n4cqhWV9DwMjHh/N3pUT20+I4gEi5gCAQlZbCidGtFLn8u4RQKS+6b2mW2pQQvRbKfUlRqTTualk6PSqVFpdG5XakwaXtyNKOxGFHSjxgJTLMQIpFxTxEbaLeEuXzdqZDdyeDqV242YkEaMTSPHpFNj0six2TaR4icjyrRpEsWJOC8R/cr6OoKYahyWORbLysfwsX3spbAzJeJEknsKJjYb1nBiL11BOp1LswGalWgQ0iMML2n5YIYuL40cRUMXRM58XXJV7a/5AAkwGiUc4TS8sBte3B33pZMlXamx6WQ+HER+V6Ig2yrSQhnFBUkOOpSATQPDNBvsTud1J0d1xUf20I6nuBjpitFchHAG08m8bmReF7RDFwPzM4AmsxfURJyodUdUVn9X9YR0vDhd7U8nJnanc9OIvDQ6X2XzM0KM5CIEC2sG1dpHcUh1h3sZCrvh+elUQdtjbBo+qpe+gAF0DhO8hHAnAGI7CwRJp8d1w8emkxPSiZJuRGEaldeNHNNDMw53+hlIDu2l+FKSD8Iq1fpG2HnBI2VbAl2zJ3bFx3fDJ+B2ieFBDwsUdk8k3UUk8JVhkouk0+PTiII0sqAbNa4bld+Nyk+j8ruSY7uox2Wa/Ywb8RlJNTNuSWUPdcUnpJHj0omxPegJFGh4JzPCFNwR6EqM6kaO7smMp50xBu4j7xHl8VbOnUZZB7sYxmKqXCw7D8seg6nGYoZCVQ6ska2wG/8cuAM7mEVVdn9Xckw6WZBOTEjHi9KIkjTcn4aXpOHju5FjcWeQdsMKgSjfhhTJZEm+tlxcdsG2Qfn2in/gjVJShtQgyYkEK6rsxfbLJv36rvnGAUG1owgZaiMUG8Cdhc7LY9feea9pQFRt9xOcqOYDOC8CdAKT5Vc7i7hr7r76lvsM7iDpKCFd0EOoG4Ik6yO4IMlGKb68p6EIyx5++U2TxbKqGfO3TPAusQ2QsN4j1Y4QLURxPqTm/Wo+iFAVphbhKqU478U3Luz/23sIVynJ+kk2CMAKu/SEL7txQc5v7iadxSQbIJLGbnL3f9M1G1K7ivQDvFfduuDqwfdcPXjONYNnXzZw1mWDZl5z6/Srb737mjvmXTl4ntbtJZ0+mpVINgJzlQ2pnCW6/sFLbpl3+S2zrr5l9jWD77lm8OxfD57568GzfnPHvZaLJqls3uT3orZBgnfSMwkjJ/Y05N+aN2/S3LXRmWtvHnVPb/NETD0GGLrWT1C+hWIloK2rxPPbmRcPnM/wpaQrSLlAV0uxfso5Pufa6ZcMXAA0cUkkGwIit9bwLResRHIh3Fms7ee7aOCcS2+eedkt0y+9ecZlg+6+fODMKwbOumLgvCtvXmS5OKp2llAuYD9xgFQRdxYZfuX79e33XXXL7Ctvm8P++u4+tmIYBmwJYRsPpBs87Zo7Z1980yy1YyLqpjDBhik2SrOSyl5ouSh01W3zL7955uWDZlwxcPqVg2ZeNXD2r66blWWeiGWOIJ0BLR8h2dPrENTAiSpXyP3radfdPgc1bFby+ZrbZrl/PQ13FqMVJUwCOy+SbIh0BDS8/5Lfzb9m8D1XDJp5xaDplw2aeumg6ZcPnuO6ZlpXOh/Dx4AWi4sSMErb0C3bHrRcErr69mmXDZ518cB5un5+3FkEdQLco5JshHCFKM4/4IbZVwyecdmgGZcOAhpeChczLh006+pb5zovi2Q7fO16Idvh0w/wXzp43qU3z7zqttncNeV9LGNxXlQ5IqYBUy4ZPPvKO6b3v3EqwxWTLh8MfvT5rZUEGbfU1+bDsnJdl00eMe7ekvDi0tiDIyfea7t0MtY7r6/Vx7iBA02aCEHSFcFtQXP/8FWDF1w5aOaVA2dcMfDuywbNvGzQ9CsG3X3VzXMvG3iP0RMk7F4aVuVUh1AnpJ4eo63d0/EdivVjGXeIM7bIsjxkbAWmGk26AzCR+BjWc3R0+jZZlu+auATLGsmwMZwDzRQBi1uYdPkwPH/T4w2nWmT2iliadjwFkzaAxrek5kO0q5z0+LrrJ6jpMavX/1GW5SZZ/uLzT2RZPnZKLi+vwLJG9AbGIcS4ImqoFtgimpN6mSYacyL/d0L+S+1HXfHRKmAr/AQbyzCJun6R/zsuv7rrH13pfNyu8BoBNOhTWmlhCeGkrupR1982PXllPH781MlTp2+clOUBvy7toRmtBnZGYpwSwYa7kLm/u3PR8Sa5RZabT5eNX+X57sN63YlWmpAKkr8FNM4QJCH2SFjf/Cuvm9Zw+O+yLJ888e+vT/1XluUjRz76zS1Tsayxarek5kSaDTKwCAUA9RzB7poRf9n1/pcnZG1OcQ/TeJwXKTaWafOna3Jfrfnov6dkii3ubSkiUflv7t+kX0GA6EKNuWLQzC9PyCda5K+bGo81yaea5JNN8slT8qlm6KA87xosaxTOeyk2TLtiOOfvZS1RWUrfOPRJoyw3yvJH/2m2XT45TZuP9b5rZNGy403yCUSOmQ++ifUaRXB+ig0DEvFBmg1gWSMmxtY3yvLxZvmrppOn5KZmWT4ly19+JdfWvzfRt7xr39G9+VKQ/eOLMfiBqB0+jBj78NMNsiwfPymfOCWfbG4+2dQCRyO87NmXGrpmj1XzQTVwjmHGFaQ4fx/TRK1Q8vbH/4bXHYdHmmW5sUVubJKP/vvUcy/v+82tM7C+JRQ76cx1COudWxhe1yTLJ1vkY43yb26fhxF5iLxBtKZGSS7U0+xj3EXvfvifU7L8VaN8vFE+2QjfDs07BsNgyoKHscxcIml5IDkRy84bNPKBY81A8EZZ/sfRL60XBbprx2OqUYNGPnCiBWh+6N1PjAP8GYZCig0ysJhJhOCluQDBx3pZxR7ksHsXbf300xNJg675k0+Pz5+/tTs9oq85ANIeK6k5KVsIwgjkg1j2kLsKljfK8okm+Vhjywno5aaTTc2nGhsbZflks3zjbfO6qAsJvgwxqh0jQ9LIgQKdkJoKmQCSaDaKpY2cNAcgNXfCCixzHMhunF/Nh7Cew6fPhvujvEuxzOGgCQXBBACX4CKEy4epxj/9x72yDJDaVVuINGt+ihVJNpwtBBlXSO0qwdTDH398lyzLS5dvcw7w6oXiiwbF9r79IVRb9CDWdwzJh7UuEUc142DFkjKMRaYc2I7x0OG/d83Mw3mfhvUzrmhvg2j0BGS5peHwOxg9rhVS/QhSQQBM5aA4sY/dZ7i47K78JcPzH7x1+MIhuYtONH39yWefDR72wJ259w0vmD9k7EKLJ6iyBZA5u1Tr8hFsFMPzbh62SJblbU/8+Te3TrpjwqKhBUtG5C8dVrB4SP5i11WxPpYQyYoUG8oWJIrz6RySWoh2ZQos3IT/++qkLMsjxt7vZINmt3dk8RJZlr86dtzxK28ak09yUQYg1U+w4FmpcgS7Mbn7Drwjy7IuJ9BdX6owYln2QDd6zL5D78pyM8MVZlhKzxFSgUQYMe7qm+fJsC50/C9QthHrOUwt+GiXxDijhOBVuWNYxtjxoYWJB2bd/xSGDemSnf9qzV+Vm1/890tb/0BPDfIWQkQgeB/DiljmGO8kGELoXwcvLQwsw/qOwYUoUjUocqiEO3yYeswzLx9AT525fsn7j7yP9RmdzZfAYuOKMK4AxQV7G/wMH/n0qy/ib2vzH9D/q5NNl904uTs9UhF4k0cLljE6WLYp8cT1v1+EqSegAooCRCS5QLopQLsL//vFPxPF2l3cX/0s1nNEe0jNyr0jd1lryUZZlv3lm7EeozHVmNvzFij3P/n0qKG/mGHwgaXeFcTBvu+l2ZCanYT1HTZvyXZUDNb8L4+dUhYwWQaEnTx3M9ZnOMmVaTgR56RsNxAQ5ySsb+6IwlWtL+2AgIOHL8IyC9R8qixqJ6SmrEsF/mgSlj4ufPejsiyPHFeJZU6gXH4NAjisz83ld6+WZXl40QpMNZxi/SAxxSE1jDtKMXz81idrZVl2XRFL0xUhLlWBVEnl9tFsSZesCYNGA3xseOx5DLu5m9rbzeLHet+hNo46+fVXx44fV+lKMk1emi1RasZ5EGZ7Giaa+01qammuqf97l+xxai4KIhgXyLAUafsFmltaauvfxugC3I7EPe6cIZXwSBnOAKbKx7IKsPQ8rPeIj788Vn/kfSx9OJY5AsOHY+oxKnuE5idRSPhl2BDhimF4wU3DYA5MmbUBw27BsotBN5o9Bqm38jItpbRHpLgAxYZVYLUL6Fyiig1hfe7asvUNWZZvGD4Vw4b11Irp+gIMGzQs7x5ZlleseRHrlUs4oxTnozgvgWirckhpzPide440NTcZPOEMLfIVFUqybf50Jn/nnnea5ZMkNyHD7E8GhRSuEaSS464YOLcJmBVZlpuffnFv6O6H737wyZkPPjn7wefmVTx3+eBpPfUTcbBVihQLRnC1W1TZY92yRu+uA0ZblluOfvIF1mP4xTee5vSnzluLdb2J4iYjzQ/SbPKgBcZUowujG9BTcktLYyi68Zob5pbNW/v5/30htwDM/fuLr3TOaE+jt1USD5EcglR87BPP7EMPNv3tHx/PmL9t+qLtMx98bM79zz9Q+dJYcV0ffQBngwrBSVBYi32Mfi0f+OCTz1AbW7Y+veOqm6fdlvfAH9Cqr2DQlu07sOwRBIhTbRZgrFduaWS90k5Zbv7t7fdi+Ph2kNrdGGSE4qNHP0bFWv5ccyg8d/P0+/8464HnZi55bH7lH28ctjhDX9geUrNzbx31oFJzSzPg4Jt1b6XR47HMCbeOiq9S733wsaF/sLfRS4OSwYfDMAiTrlgaXShcG0WICKLRY0/X6KwFORdH9u77Rwvw+vK/Pv+vfkBpd3MJmBbZEGjt0XdhmaPunFCFXtp4qql5+fq/lM35w6zF2+csfmL+kidnLn6Gv2ZSH+M4kmujqmpHk3Z/dnKpbUZMO+ok/QnKPqx7rjQTWInhE5ZiWUW4S6RcUYKLYr1/P2nmRrhfuBLLHka7TkMqzoYJpxcjxj/25G4FUrtpC0HiA7kP7FdqwU+7JCyjYMvTgLnuS8OYajw4CXKiyi1hXUZvWPeqLMuX31qGUePADMIBgwNjghV7GQvN/cqa5OZdAKlj1WwZyUYJzpdhmajtF25qkWvrj2AMQCqSFs8NUpERTKRdIGuTnNTbGKBsJZ99eeydt//RQz8x0+5Fs1QiWTB94KDklWjOS/I+TJ1/45D7ZVme9eA2LDOPdIHWDK0i4PZAsMAowWaZAKmgqtOwwR6mErJfqSzL+/e+h/UemuGKqN0i4S5JMxT20efLaJb3pCf2tYHSgwTrCqwcKkc4jSnaufdIo3xCnxPoqQ8QyHzXxxbtRhXv2PNus3yS4ib0Mp0rpIokF8TIcVcOmtd4qkmZ5AWlSzHsaqz3MKzPnVjGcCzjrr7WsRpPOeGKUAiwcN6vEvy0J4p1Lxhe8ICCJrIs35E3b/YyGBuyLL/3zy90jvG9dBNxPkKAN4IfeCU+QLsiWPaoopgCqc2y3Oy+RMKwmzHsN9EpCfySB4+aj6nzW7XwIZINAZdKjN0Wh1T5hTfq4an027G+t2AZeVjG7zFqKOOOIc/iUooN41xYzUu9jV4d7/3wE9AsybI88/7nMGww1u0OLHPCnkMfKTdf2/kWRuSpQenf5kgNUgM0X3T0aJxLnbNwO4b9FusxEsu4E+tzG5YxshdTwngi7WvOzr11xGLl7XJLC9J+NV17+zwMu+v20fcp99+NQ2opxQVwkBGDSIcbxnoM9U95CJVpOtXYcul10zBsCIbd4IuujFcoy78bsRCj8kEmcIFSSy0ECFjI838/IV6msVG2XFqMYddivUZgvYZgPYdivYZnOwMatwRToK2aol3jk//shNQ2IyaZNMnXCAW8WI8R0sxHQJc6vgLLmpjtiuKumIqdhGXkRe/eKsvysKIKLGu4xhlKCP5xSFWP26pA6uWTuukmAqTyfiTBSWo+qLKKWYaif33+34+O/rsn7ct0+lXuEq0LtOl9zKF+V04bPmGB9YriDEc5wU0CGRYgFWZUhrHQlBNtkpt31L+LZedlw87pMTUnwmrsKW8ESH1L4VJTgdS2+n6AFaTuCFOcqOZCPS1+wlH8b4DUD/toi3FrgHGFaFeYho0tgwRfogbXMR/J+zF8zI13wRyY/eDjWN/RhAvxyGC/ChOuMAX7tcEjFCsh0w2AI4aPvXHYvbIs37t4O5Y2Ahe84GDoiqqcgT6WcCBWHZuzSu30ZbFBtSCRbIxiRZovwR2BNKrozT1/OyGf1PQLpemCal7MZmO9bOVd6NI3695vkRsZrri3Camt20JDcud2dB2H1KZWSC0RV2HYMIzyYcx4jCxKp/0kONLFSDZAwZITIrkIfI7gzbaFMNXIP+9EnGNL88dH//Pxl18oCgTf5Gqs2zBKmKQGjZCkQCoBMmwEyx5ZHF2H5j9I/VffcjfGFGK9i2+6fQYCF/hl+Pj7MNWYBKSCZACQmp+A1Jd3HcR6jwIzN5PXlSztQhZk2ryUO0KDd0QpcGcc6O57G/06LvzR0S8VuFm08o8YPqIXK2Lpo554rk65+ec3j2DkSDUIPW0mSEqQakrmUuUFS54C0hGFaXQ+xhR0YYoIJzjYtq85O/fWkXEutbm5BWmS5VWbXsGwgbflwgoNa9IHHxv7i72NJRQXQMJ4iGZFFevFMkdUrHlJKfP+Rx/SzkC6NYyph9zWyvbKsvz78dVYVi7OiRoXLORqwU+yItZn9O8nVCsPNjbK3DWTMWxYF7qwGzWxCz4xXevHkbsb7WxDhHYtb/dnJ6SmRCwKBP8Q1n1UeObjsizfdOcsDLuqi3poN/wujLgDw67whith0BcvxzJHa5yRDiB1G+JS20IqsJyC1EM/lr1KkmX5+ZffwDJHk/xUnAupnKFsF8SBpGl8WK8xKluEcYPLjlJzK6QWmfpFWuSW13YcgdWVuLOrenRXfBSWcXsandfU1FS3/x0EqWDaIpHgT6BJAm7VSQZT5VrxsEsaH8ACUK4ykgvggjfDOpFwFP7ni+Nvv/1RumFib4cfBwUT2LspNkSxoKKi2RDBTsLwcQOHzZdleerMNRh2A5ZdgKmHYuo7sOzhXYgJ4JfuKSLBqoMwiIMYFSxjVABp6PL91VjmSJot0jmjDBtlINZAwnqOxHrdSnsChFtSQVgB2HNovljt9KbRRbv2/KOx+XgPzTAs7a4u+LCu5F1Y5u8x7No3dh2Q5RbG5e1tUlavlDoaff5pwR9ZKWDGzV34mMEevejauRddP+mKGyf/6tqpJBfM5vwUUBUtP2wYOYSXUh4v1nvsTXfNRhM1zuTKsvzOux9lmUf3NUrgbQoLKig9kBkwCIJ/1ujiiAKpoDFgLylAXOqgaXNOKy5/N2QOph7bHlLxsU88qwj+cu3+v/W7PNLvqqkX/3b6xdfOunLgNNuvYiq7SEA4kEhxIDyp+WBvY6mOC330r88VKJm7eDOGXYNhvx9wtXT00/9TELxyw5+xzNzvAKklR/95VKl/9ZYXzR7pV7+9+9LfTb30hqm/um6azhNQO+Hbkw8sO/fmUaD7kmX5wIF3XnhtjyzLn33+VXcy75rBs5T7CFJB8FcgFVZWVsziSjB8zIZHdihlDh55J9NY2t0R6MsVm4Xy62+bN/CuqYPvmm67YnIvR4Bio4wrTPCgO4K1vO+wIeMr0IMtpxpbhhU8YM8JXnLdjMt+O+2qm6Z5rikn2QDo/flSZDhpvwwktz9x3Qmpbfo1QZe2F0i+cEWxnkP8U0CI+/v7H+88fODA2+8cOvzO/iNH3jh46OgnMICGTKjGMvNpF9LUIH0fziJdqnrc1tOQOgFxqT6YjYBrYYwZ2++GKbIsb9n6MqYaRbLTKLa4uzGvj3ZMlnZ4T92YrvrRWa5SjTvAcF7E3bRyqYaJ+n7lH3xw9NSxr+oPvFX/zqG33vrb4SN/3X/o8KEjb8ktTc+/Uo8xBWpbEHkg+UhwUJWAsQLPnlC2I6hyhlROUeUKqEEaiifmaJVxYDGnICzST3GB3qZSwlb02ZfHjvz1/e76oj62EM6FAVX5gKIBIHgfzXkJNobhYwYOBS61Yd+7S9f8aeXWNx/a+saaR9/cuK1+xuIXMu35fVkIwaJdYZwP4hz4XWHdR5XPACX1nfkrsew8LeujnNOyhQgllFCcH49v9FZMuWI4KxFCEQk+FdEsV7AbPeHFlw/ILU373vnr3sPvHETHviNH6g6/dfLEV5/86yPGGexp9qP5k0pHK2UUSC24ctCcxlOgS21paT5+6sR/T/73+MljJ0583dx06u//+NyaE+luyEc2xggpFJF8KeWcQrFRQvBlufxY1thN296Eudp8oqW55cTJppGFS7Deo2ihXAXBmn6a89PghyCpuQBY/DPzSsJxXWpTS/PsRQ8PHVMxc/HWr4+fkGUwk7//3pdq6/gMUwmkbgAwSuhS8//w3H5oZHNLc2PzseMnvjp54quTx4+dOtYsy77YKixrmArJ+6RQDMsYF+xlLNZy0geK4N/S/Nquw5PnbK1a/dpH//wUfC1Ofv3GnsPOSyM9taXIiaoN3b6RS1V89QLdgUuNQ2qT3Hyq6fjxY199deLksZMnGxtPfPHVyasGzutCjWs7xcDif1NunEvdsaN+bCTOPN6ct4i9MqbA5bsffIS4VC/FBXE+wLCgM+nLBrpRRdv/WK+UeX3XoV76gt6uUtIdIi1BDM/F8DxMldvH4aU9QQbYHUnlLqbZCOUqw/qMHjZOeVFTk9x07ETj8WPHvzr19bETx5vl5j/vPpJtys20xCCGKr52tqFGu09Q/uyE1G+nEfhys5KajWAZdwanwrivqf/74y/s+eOfGl58+fBzfz689Y973vormOaHjVuJZY2J6w25AKg+WYlweDH12K3bakCXevmkuHkKnKKQOxQrdqXGeW6YIcvyY4/uxLLyuxKF194165+fHv3PJx9/8uk///7+33buqb9l+H09iAkAweCYBbZOkhUzDBP1ObGjR//11fFTTzx/ePsr+57906FnXjn85EsNz7/a0NIiv/iXeozKB0iNuw0GISBKCFNCJNNailFjulC5XciCrkRhGjmWdEgQ3QxBCj7FLQY8FsAtKUSykQyjX20r/feXx99+5x+9dONVVi/NgsMDaO6RThBggg3gXAQjcgcOAUj98v9OHPrgPx98+PkHH3zx4Qdffvzxse0v7VObhxF2FOYEemHweSC4ENY9NzYN2LHR49ZhfUdRbp+aL8t2+ymulHbFVHyU4MposGiBhwApTAS3RC6W5QqlMeNefmV/S4v87F/2b3t57x9f2ffinw4986dDT76w/+tjX//73x9TbKCHJQAa2LY80Tf+qUDq+CsGzm5ELmMtTaeZTWXeyrLs7B/rrhkPyw9E2ZaC3cwZAx9VPkT082HYiAlBEFzkFgDlTz/7L8OVpNNeJR6X5BUrEyx1BLL7Y1kjSyJrUeUtJ2WwRyX/OyU3DR21EOuTTwlKhAiCVFax+Of/4VmEJh01cvo9m7CeQ9RsFOfKkBbeT/K+voYAw5V98Amy+J9s866W5uPvvf/x5deVYFgukTMVgkTa0u0bIRV8+0gu2N0k0q2Q2ggifPt/v7ttAaYe064LgEsdHYfUI3/9UO8OHHkfFLtbttVcfsMkxRj/HkBqqLfBS7FBXPAzrgDtkjKdoe6M78XX31Je88Krb2Vo8vs6/QQPHrK9bWJPi5Rpima6AqTbqwEn5YhaKGFcYcoVwTKHDpmwFB5saW45g+wffHqsrzY/0xTBYfq0Z6vbtT/x5y8aUq0XlSFzrZjKmeAkrMeI6EzQmV5/+1wMuwnrm49lFmBZ4zDs2sIQuGLkTqgAr2xXDPg7UGkjgynydHnsSXCQcl0R7a4pQW7DEuWS1CgdQzo1xn0DGIUf2/Im1ntUuq74ohtmbX1y18NP7a5c9/rOPYdkWS4NPIJljcSRwEixShBBsJeh0NAvKMvyazV/w7DbQY+WPRzLGo11HY7hYxub5N373+6Cj1HZAjSY0SRcCALXzJZ3x8fcdOfsHXve3VH39pu739q1++iTLzcY3ROy9D7kMxAi2RhKZAWB6ooZrZepBLeWfPbl1++8/WGGrjDbCvfRAVI/8vLzMgCpEkbm3Th0rizLcxY+jHW7pY+xKMs8XmWcoDKVqIwoKEAIEJwfB99AiQFXmCCWNnrS3WD3GzFmMZY5XAXR9AENWwgaQHcoTevFiHGEMwyxjDBpAzTrpVhJ5QykM+N37/lbY2NTF/VorOsw+PbMPKxnHobd/OqOw7LcTHJFPc2B1qam1NFKqBVGTrhy4FzwEEX/nn15z5Q5jy588Pl7lzzzwMpnJ937hN4TUJmhMch5M0o5IxSEt5XgfCjd7O+lK9i3D9n9WxrlZkDkaQsfxnoOAxd6p59kvQQXAy0qqGJDpKsMUw0tjoLTiCw3NTV/faoF3FJPnvr6r+99/si2ndfeVo5lDyOcZYqOBXk0i6QrpLZ7MdWYbXHBv+W9D/81977H5y5+csGybYuWPr10xfPX/35uL+0EkkWqD9cUhTvO1AU1gv+jf/0H3tbc/O577/3huZpnn2/4L7gdNcnysSOH3ndfHknXTSBYsE8mUw/LGN3W4r8gYfEnkC8zxYkZRpHhS/55FAn+LfLOmiPTFjw6d/lL9y55/sGKpxYse4q7clJvY3FytRQrYlm5dwyPQ+qHn3yBdR19z5KnYGH+/Mvyqcv+9Tk4Kb//j48NOeEMYykoMXgYPxTnV9vEdHLio8+Bk6Isy6/s+Gu2riDLFsTZKO4KZFoK1OYCyjo+0+nN9pRqXKLWUYZULn7KFcL6jrhjAhL8W+SWplMPbX55xoLHFy7Zfu+Spx9c9ZR36sMqS0ht90HwSHy0t6FGhzetF/2Co6fOBVJB2sJ6DI3eDeap4QVLQGcK9hmRX7JgkwAAIABJREFUZCUs467ozM3AZE1YjmUOI13RMyF1axxSI+l0IYItEfkqg4tlT43PeWlUluUX/lyLZY0g3BHCUAw2x97DMWzgwJHg41lQUo31GQ6vA7YxCVJzxJbm5pr6d7GssZQjgHN+ghX76Eu0HrG5Wd5Vf6QLkauy+WlXBHhtXiTZIO3y9ySH33zX7Jo97+2q/fuu3W/trv3gyVfrDDl5mcYS0lVGspNJFlSo4JagrA1cqJepGLeVfPZ/X7/9zgcZuolJkBofZAQfgpWfDWPqgpuGzgPz1KKNWPqQPpayTJuYaSvNthernX5gkyEWBWLACE5kWGgV1jOvRFohg/98BdZ7KO6KkazEOEMkG+xrH5dzdfTa28t0gkTYY6SrnOS9NFdKspLKEUhjxu6qPdLY1Kj3+HvoSwmXn3IFsqz+dCp/Z+1fW+RTJFuYcc6QCqwWWPxPO1HJ+f4lGHYV1isXLOm9RmCZw7NZP4R+I+YFhXKBKxWYHIUIljZKmgaW+mbEoipT/f+OH7NfGvz/9s4EPq6q3uOnbZJmz+xzJ2mSppmZe2eSpoXSDcT6EB9WHlvpkmZpmiaTdfbMpEnZFMGHPPGxPFFAZUdF4CEqCoK7qFWQAk9APihF6ZqmSZOUtjSZ9/mfOzOZbG2AoZfe/PK5n2Ry596zfM+5v7P8/+fcOToX3wk3ZBLJQUJ2pzPQXGpVa4fcSyVz9/q6K4sXb1x8bqDQ0cFy6uZotvBNvGLPM/XuRyX1MbmXGon87Hcv0eR1ynqWXcXSq1l6ZcY8v6nsGgN5njWbxU4zuWfQwF8oa31nX4+csJtufoyx1Yxdtnrd9UNHjsnzDNff/COWs84wVk9J+DJq2kbnfIf/7ZIbmF4ewvMeNxkevRlFPouzZXfM4n/tTQ8zdj7LqiFu6etZZmWOLWApC47TI5ZXc3FldC71nT19c/Lqz7pg2wj3C97xys49+ym1O3fuIm85Mk+5iTZN4gd1opfpqu59mDzwuI/2q/r8DXklHXPzW8pW+H67/c0dr+x95fU9NYF75xirzKJPoBknavvNop9lV67ZQhWPvEqGI7YzguT2l7uRZa9nOauZfqPB0UmWZDLuxeCf7AMkdbqkjA4PS13XeQ1J6vott7C8asHOHYykAMtc03mtLKm3k6SSl09CL9XuZvpNsqTaV4RSzS6j5Bckv2DvMNHYuSunJKAprNp9oG/3gf2pRc3ZC9yCzW0Rg7ReK62yg3ff6hrvYlnVXFJ9cUnNKGqaV+EfGTm+/aU3mGaz2e43iH6DFMwubM8v9x4/PvzHF19jxmptqZuLHd1olNr1jkbLwmBeSRvTVjFdJdPWMk0Dy6sXrNtMYhdNjPJhrJmqDq0y5InkkrqguffQ4JSS6gjxWAJM2/i5tWSeuvbmx1l2vZ4Wg1JvzuhwGyWP2RGwkJ9AdJBoljxkJdBtWX05qfB/3vIEYxuoByeGDbbuPGuAaWr/+MLLxyNDxWXurMJW2pmJL/M1SF6t1TPHXPP7F147NnysYGFbRoGbzwJ7cks9KebNf3zhzZHIeyZ7cyY3T03/kaArHV5mrD9n9fXvvRcd8geufpBlbdSX8SkRu88seQSJXPTJP4mMJD7qropBk6MzzdJiFpv29RySH9RHnvrTa2/LHpqRux/6BZtzWW6ZX+cMC5I8Mx42ONoM9gDL2dTWcbd8SyQSqfhEJ2MbZwvN6YXkq0f7OZEjWuxIlFRd3eM/JktOJBL53Z//T1NYl7MgqKW1ywGdo13j8Gsd26i+0RRK0Cz59U5velGz4HTv3h119b/59qdZVj0raEoxbnjpb9Gk3vfwC0xbb7DLQ5BYvFFJjUp/JDJy3sU3MN0WnjCqXSYpaJa86UVeS1nz3t3RoG6786cse0ue2GZwNJrsAYOt20A+G/L1CSHn1V4YM0/t2tWnK/Wx7HW/3R4dzh8fpgmKt3fuKqwIZBS1UL9bCvC5oLBO8rLsDbfc9awM4a1db5ms7pSiANNvXHWRbCSkb3xX38/SKk20fsxPq++kgNm+lWXXrG2I6vjQcGTFRdczvctA3iZ+C61vDuodXgNN6NNgYpR/vCAm+wBJHS3UEyKjxfgJknor01SbJZ9JpAX1LHNtJ/dXraaB/zqjSBNeNFUq0YYLBrubGWoffoIG/jFJpaEoSSoNe0O68naWfdF3v09+qWetooU02vJOfbnHaAuzOWu//yTduLH5DqZpJPM6H4nraUGqP6OoqWBRYGRkePuOvzFNncnu14l+vRjILnQXLPQPjxzf/uLrs0w1OqubHEckH1VB0tyAUQwZbSF9qUdna9PZWrTWNm1pwGgPUk11tpqcLbQxnRgyiSFemWgWKbO4SV/qiklq4sA/CtDg6BC4hybTNazmkvrFm59kWfVGqVl2maLtu6SARfQXiH6BuJErlVkknc0oajM7Wocjkddfe5tlXJJla8gtb9Y5QmlCm35eO3VPdvVkGlo1VrfR2Uo30mYCHq3VPcdc+/sXXiVJrWgnSSUjmzu31J9irv/9828OR94z25uzismaccLCnVAHZEn97HVxi39D232MXcxya1huHcvZxHLW0bLIim0miTuTUcY9RkfIJHax2ZfceDvNDkUikWMjkbyizVd9JbosaiQSWX5+F9Ns0ZcFLFK7xR7QOYIGR7vJFmI5da2jkjpy7oXXMb2XFomRK5uHt0a0OCKaCy6pBrufBv66ukefjI55n/3dDjb7syytiuVVUlcr52KmXWu0hQTarLaN2khHUO/wZRQ2FUjeve9Enahuu+vHTFeXWtKSU+D63R/fklP+g58+z3TV3OltDJxxvdTzaFa0gVveffQ4SAGz5M0oas8vb967O+aXetMP+axUA8upZdm1LGfDbKHe4pzQS82tXV0t+/NG9uzuMZb5GLvU1yV7QQxHRmgGZudbuwsX+TOLWvhyXt7Np8noIEvZ2BKUjXsjx0ZGlpx/LWNrGPv0pnZ5ZdTRSGTkosqbWFYjtfrkNkOppRtzqjZsli3+kaGRo45lbsYuYjn1LKeGZdax7Krsogba4cVOo4qJzcCklQqSOqbGTMooVo89LHV9J189taH+NqapMck+iVKAzV3T+fnv8oH/12VJNUtyDaO5VO48WPu9H/xBXpCaKjSRzd1Bi5S575FfV97MtHWrL6OJpEcff4r8ovUts+e3M7Zm5afJEyASea+m/UamrTRyx3szdTZJIunZWBwYHh7evuPvTFNPAk17qQRJUiuC7w1H/vCX12cZq3VWt0A7WXi5g72ftgigFriDui32gEBDIa+RzwPyTUY6ZCuQ2SEPdmi+z+jwZpU0G6ytPf1Df3vjnbFzqTFJdfoFyW1ykKv/BWvJyXQrOVGtYpoqmnHObSBvKs3GrGKXuTwk8MW43MvdYxI9VLnT19794NM0Aqi9kZ7Ags2zhGrGPruNO/xuu+Z/WdpmvaNNHi+TKUDq0NncKULdc8+/fmz4vYIKT8a8dto1xuHJKw2kmBr/8Pw/jo8cM9ubsorbpvkwjJZ+XFJli39k5Le/+dvNtz1xx/1P3Xnfz++6+xcPPfpcdcutKbpKmqAQQ7yv3a53dM7R15et8A4eOyKvQXroB9sZW1Vx7lVx89YTP3+RZWzU2FsFyW22h7liuk32MMvb1BaS51JpwuCTF26brdtsoaIJ0A5bIj8SOko0pywGdLZ2pq975Elu8Y8Mv7275/ZvPf21u5/9+gM/veO+Z+574Fc33PpkcXlIW0zdanlO3ODw5BQ1zXO07dkdHfjfcsczTFOXs8CVbXQ98wta3RuJRH76m+eY/rNGqqJjemcso7o1YfXUeRfdOJmkui1lTXv2ypI6vGPHm7fc/uTX7332G/c+c8e9Tz7w8M+8XQ9mFrYZ7GPaOZZXc2HMpX/37v20ZkTTsGCxp/cQzaLyfQgiO3fumbc4mF7USoMn2pTLbXbQGuhUk7dsRdeRkejq/h8/84K1vHbFpwIv/3WXXBD/2r1fsLVkFZFJysxX95tpIVkLy7ukcnPU1f/oyJHvPf7br97+k/958Jmv3/+zb9z7i/sf/cMFG74017CZT+yM4TBaVSZ0VCGp05NUR8AoednsdVdcT9ujbHR9jeVsNDt9RpHM0Czt8m3XPUpTgU13spz1tLeQGJNUya+3u5m26odPU1dCPLt7tsll5MuHBIlkzuQkl2ONPcSyNz3EV2Te88BPFq70FTnbN26+cTgS2f78i8cGewJd97CMOos9xI0z5Odvkvzp81yWCi/NH72xl+VuNtnIW8gg+WjgXxGKRCI7Xn+LGWp0Vo/ZToNZg8OXb/cV2t35olsQPVS3aPUOGYhMtAcdX7YobjWJfFwmhumkRHZ8k8OfXtSkX9B2bCSya09ven6TZoF7XK2idVCiz+D0Ml3N6g00//vET3593mWf39D4rY0N36pxfbPSdVtV29cqPn1VTglZCWgxD/eDsYjkhzBXaCkordnVQ86STZ677IvcjjN811xH0ykvv7ErJ78+vahK52yxiFstUgtNWUoh2vPNVL/j1X9GIpH8cm9GIXlcGZ2e3AWB2botr7xG5hGT6MokS8j7s1DRwN9Q/4nVtBZ2qp8HH3+GsfNpNYTYKUg+vaMtz9bBsi5/7CfkgCz/nHPRtUy3nqVv/s5j1KDKP7T0Lms9beRKqx7IAGiUwixrna97dKHUpy7unqWtJdmV2vm8oZc30rG6Kr/6KWqeqn3ql6/Hwp7kr+0sd5qp1USvVPBT6+hsz5zXlF/mHjg8JF/9rfueY7l1mcWtmeYtz/3lTfnk9hf/mqKt1FnH6wibu9HXHe10RyKR89fcxLT1vCbQTJeJtsLwpBd5LGUtA0PRXvDENP35pZ1MV6+3jikUllN1aW3UPDUwcNTi8KYUUyfmmw9GffhpVe6B/vxF3rmFzUYa3pFRVCC/0Q4trT9cc9WN5Icn/xw5fji+RIK2Cwg/wLI38C2KAoKd1i6aCftWll1Z6YpGGrt1zN8rv/xdxi7Sl7XQKyTE8TTGPQLyv5DUWDWd0Nok8jJKNF5m6dXurfcfO3b40tr/ZvpNBpo+85CkZm30dt135N0j62pvY9pqelRivVSD5DPY3bOMm7790LMDAwOlyzrT8lsNVA98ArWWHqPDU2DtFpzuufNa5ppab/nmj+Qi7eujJveeB58tXeh6fef+uvBdTNso2MMm0jhunZB8mcXN+Yt8+3t6nv7Vy7O0jSa710DeOZ6swvb8haG9+3qf+vVfZpvrNaWkntyQ4jGRBYlePSAvjuKzpfyMPWx0uGnUT6PLIJ9O9ZmkEN+H1Gsi81SrvtT9xlt7/vTn1zLnNWtKx9tAjVKHxRbSOwLMvOm8y27o7+0fGDqy53Dk4ODIwODxwcFjA4fffS8S8Wx7gGWvs9j9JiksS2q+GDA4Okxl3Sxvi7jS95vttK/S4cPD8vL6p372p9IKL9PX6yrcekdXvj1ksQdMTrfB0aazelMtrqd+/tKevQcLFvrS5zUZpVaj5M5dEEg1uZ795cs9vQfMUkvW/OjUW2KBnuAzn0T2zTY1rvjMF/fu2dfX37e/p3ffgb59B3v3HOztOTDQt+/Q0aNHr7v1EZaxlt7vIoYFyW9wts8ybVl5wQ37B4/29R08PHT0vu/8hmkqc5yB2bl1q/79C7v27e/v73v33f4fP/NSjrE1p5QaMz4CcFMnXbu+wXvnwKGh/v7BA339Kz53xWwTN2PSblXUVeSSGtMgPvA3iQGttX2WYfO9j/z+8JHDPT29PQd6e3oP7T/Y23Ow9+D+wcGBI8+/+o+SJa1zC1vloa6F3BLcmbRRwNYdr/2rf3BgcOjol295ZJZxQ669Y1Ze7U13Pjb07uDB3kNv7x5a9bmvpJpoUJ94sKzaBu+3h4YG+vr7DhzsPfc/bphlaOQXUB+CbyrqySj2msvaX33t7wMD/Xt6D+49MNDTe4iS1nOod//A0NDhhx79VYq5UU+O96OBz9Ju+tza/zp4cHBg6NArr76dL/mzS9wsq+kza67s2d/T2zfYd6jvhZfeyF9Ec8FcUj0mcas81DOUNefMb001NFz9xfv/+c7eRFH8xz/f8XfdO0u7OdPellveJIhei61Tns4yiZ1MU3tpzVf7+w73Hezf3XtgX2//gQP9+w4cOtDT39vbO3jksCt4N0tp1POWLzG1J/gMSR0t1BNgitoWbd55Fb6KVd0FC/160WsUA0YaMnt0dnfhokDFJ6+YV+HXibItMhosbY0q0kB7/uIOaeVW2u6BOmhBftB8K1lsyG7gFcqDmUWtLOcyaWWoqvUe9xWPn33htSx3bVZhi23F1fmLgjq6MRAfw5KPqkhvhbItDS9Y0qG3+7gjQZBEnGYqvbaloZIzqStnsMcn1+maUf9tqtC0oysJLk208Y5GtJbLDvzxXNAaZ5PkX7AkXLokbKTwJ3ILyM24XvRayvzS8rDjnK1l53aXn9PJj3D5OZ0Vn7yyaFFQZ203RfMSD4S2qjOXkU9rmlC96uIvNQQf2Oy7f8WF18/WV84x1AtlYVrYSu1BFALNMErUpM0/o8O6NGR2eg20jSY9pZy5v3RJyLa0k549+3j1P2FBR5NksPvyywLWs0L25WHb0rB1aci6LGBdFrae1Skt66449+rCirDOJnOIdl60Vrd12ZUVq64Rl4ecZ3cbbB5NSTs50km+vJKW+UuC4vKt4spwxSevLli4lZcXmbaoHCW/TvQWLAw4VmwTl3fZlm8VnAFubSeLNj8m6R9RKYg+g91XtDhY/oku29KQfWmHbWnYRr+D4tIux4oryKeF6hjFwmc8gybylaYmuXRJyLEy7Dw7WmkpDaVuk9Re9olucVlXxaoviCuv0lnHo9PbfQXlQefZXeLyTvuysKVMTme8HPnbJcgNxmc9K+xc2UXElnZSqpZ12JaGbGd1Os7eOv/MIH8KEu6S/AbRZykL2Jd3S+eErUu55Vb06qWgprTFuqRDXN4trewsPStsFL1UvbkNIz4pwb3EgpoFPpZ+aWFZ2wWXf9kVfKg59J0L1n6lsNzN0tdrSul9E7SjJvV14jC9erG9YGFAWtFtXxa2LuuwUWrDpcs6KdnLOhznduVX+HXW8bMfJ64/kNQx5To1rIBJpDc/a6zUGdHZ2i1OOsMFzm12+vJK2+YIDVqb21Lu5+bIMcEKtFdFW4rQSNskkyjwniB9oA1EaNGbyN+XV0bVJdXSyLTVTFM921xPk56OQJrFpVngtTjlTY9GQ6aXZEj+VMGVWdgiUM+FuntG2QAteefmN2fOazM7SNPjQjx1BuVg47WNpHbixekFLRmFJ3EoERxBndWbYmlMK2ica2lMtTSPHmbyvhKipokxU2lyXJayoNbqmaXfxPKqmKZ6lnGz1uY3O4N8e2nupRSVct4S0FuF/ZmFrWn51G2hd2mQFZgMdybJn1nYlio0TZqLifmaeEagXah9qZbmFHNTqtCclt+Ulu9Ky29MzW9Iy29KMTfllVBGYgVKMZodfm2pO8XsSrW45ghbche4BSd56tALC0T33AK6K8XcnE5bkcmpjTI3OwKCI6BZ4EkRXClCU6rQZLDzN4VEMytfNv63LKlmRzC7uDXV3DDX4hp3pAiujHmtRpGYxDLoow0WqPn0ZBS40gTXbHN9drHb7AwRQGcgr8RL+bU0pQouTak74cZo7IIzkLfAPcfkShWaU4Qmvc0rOOOBx7NDH+YWtMS4NablN6blu1KJXuMcoSGzqHnSkHV2L4+6MZ32qXKTNdXh04uBNEsLP988N7+FN8ZylR6tD0Y7f9UbzTyEMuY1M10Vy72c5a5huurMgjYjvTGFdgOINeTRimeUPBbaPKxdTphcvrHflOAUoUFjbaN3HIzvAYwvixheOg9JPRGdRFK8s0DmV3onLZnd+bsVue7EH2P5+sTqwr8KxB+8+IexIVOFSPiKPwNUn+RNm6JVdlzDLsciSwkfq47JCL38ivpr0dqTmKRxUX9E//KXBVH6x4V/spRQN1wgZ35arymLo3zLyW4ck305Uhn+uAS8r39jkQYoI3KJyN09Uu3xWYvT5heTKwh1iOhppInsiSjGpSSe2likk+Ro3C3yvzKlSb+a7KTcWMq1yxt98S05gYxmZzoJSLx+slgo8dMJZ5J7oysgxoyTphUU9T/oDcQ0hHL4yNQhkf8Z7aI7WeN0wjDHFPf7apghqdOtuISVzALyO/LIYjMV6BMW1STRxZ+lWGNIY73RKis/k/QAj1Z6uYrEb4yPZRK19f0mY9Jq98FOUsJijc37D4GcGYjzZI/BxJPc6jIJ1YlXfrAzCRjj3TFuV+RbH0wVZsJdo2mTT0761VThfFTnqYWgrRvkN4qPiyVer8ad//D/mvkw4sOHM2UI8u4HtGqRXrgpL1+cqi69n4KIF/1oaU6VBkjqyRklsiPN4jMyiSen/zkmeQklRJV7VCvNNCcgHwkJk6Wcd40nj4v3SSd+FYsuIajp6dTEoE7lGXm59HRjJDinIIMBbnWMFdxop/XEUceu/7hhJ2hjKt50ab/fjCSlaHggk03fj8KXW1bZa8VMm6LFzRV835/3m2zqEPDJpeiNo0/oSUHNaEktWbKVz9zLBvRT+ZtGhdGoyZc79pnsBuQgxQ1N4/ZzofU5o3dxC8No4rkJmJsgYiFHz5zCTEWd0idsUDIuqVP/K1fW6PYT8o6/vEKPZjPx3rHbecQ3rZj84sQbP9hnio7v2DAaL7nrjsY7ej6Reaw4PlikH8FdYyDzNEfPfARxUVkkYkn8PFl0fFsM/izIV9I1NDibPJDJQuDOi7TVOh/S8R0qHB6zxJfVTXb9CWsLvTiDX3DCR29CsCUzeY3//CWdZB8/dQcZW3l0boPk5h9oI6IpEuA1SORketJDL/lp0SddSR778l16KaCfMuSTh3nSSCe7wGugt0LJ+fogUURN2OTjSYccBRm1J4cg85n4e6rrP/z5aRUHT+2kBS2X0YdPxocKIQ45TnXimfhXp/gDvS2Y13lee+NVevrYfbQgm97P5tPR4dE5pvsQTZ1TXqtpQcF0kzF/SXQrwkRfrlP2WeGXTp9ySY0LaLyk42cmPifxayZ+Ne6MP6ae5NEVq5QnCHnc7cn6N65uHzDAxGdbH5PRj5OkTj9fcfjxQoyfmX4gH8mViZBlHZl4Zmp9+UiSFI+OvOKikhqt0nwH6OlqGQ8nylkv+eSDn/wwjZmcpOhjFU/qCT7MaEktOZP8FlVw0FYD0YOs/GTaGj0T/+p0+nC6pz9WHKcT849Pmmlzkw9XgeUQPmQgCUCij1XCmSlLtuTMGdxLVY2kTqekcQ0IgMApIABJnbK1OQX0EQUIgIDKCEBSIakgAAIgkDQCkNSkoVRZY4vsgAAIfAACM1tSl9BOxjhAAARAIFkESpbQvppK/SjsRFUCSUWLAgIgkFQCkFT0UkEABEAgaQQgqUlDmayBA8IBARA4fQlAUiGpIAACIJA0ApDUpKE8fdtVpBwEQCBZBCCpkFQQAAEQSBqBGS2p88/sMIhuHCAAAiCQLALzz+xQyoMqEoko7EQFSU1WNUI4IAACMgFIKnqpIAACIJA0ApDUpKFEKw0CIAACkFRIKgiAAAgkjQAkNWko0T6DAAiAACQVkgoCIAACSSMASU0aSrTPIAACIABJhaSCAAiAQNIIQFKThhLtMwiAAAhAUiGpIAACIJA0ApDUpKFE+wwCIAACkFRIKgiAAAgkjQAkNWko0T6DAAiAACQVkgoCIAACSSMwoyW1+IwOvb0dBwiAAAgki0DxGTN4cz9IarKqEcIBARCQCcxoSZ2/uMNga8cBAiAAAskiMH8xeqkY+4MACIBAkgjM6F4qBv4YrIEACCSXACQV5ikQAAEQSBoBSGrSUCa3rUNoIAACpyMBSCokFQRAAASSRmBGSyos/smyciIcEAABmcCMtvhDUvEYgAAIJJcAJBV+qSAAAiCQNAIzWlLhRHU6Tv8jzSDwcSYwo+dSIakf56qJtIHA6UgAkpo0S9/pWPxIMwiAQHIJQFIhqSAAAiCQNAIzWlKLFgd1tjYcIAACIJAsAkWLgxHlfphyUVPMkNRkVSOEAwIgIBOY0ZJavCiot7bhAAEQAIFkESheNIN7qZDUZFUjhAMCICATgKSilwoCIAACSSMASU0aSrTSIAACIABJhaSCAAiAQNIIQFKThhLtMwiAAAhAUiGpIAACIJA0ApDUpKFE+wwCIAACkFRIKgiAAAgkjQAkNWko0T6DAAiAACQVkgoCIAACSSMwoyUVLSoIgAAIJJ2AgluXKLxtinNld/GiIA4QAAEQSBYB58rumSupCuYcUYMACIBA0gko3EtNen4QIAiAAAgoSACSqiB8RA0CIKA2ApBUtZUo8gMCIKAgAUiqgvARNQiAgNoIQFLVVqLIDwiAgIIEIKkKwkfUIAACaiMASVVbiSI/IAACChKApCoIH1GDAAiojQAkVW0livyAAAgoSACSqiB8RA0CIKA2ApBUtZUo8gMCIKAgAUiqgvARNQiAgNoIQFLVVqLIDwiAgIIEIKkKwkfUIAACaiMASVVbiSI/IAACChKApCoIH1GDAAiojQAkVW0livyAAAgoSACSqiB8RA0CIKA2ApBUtZUo8gMCIKAgAUiqgvARNQiAgNoIQFLVVqLIDwiAgIIEIKkKwkfUIAACaiMASVVbiSI/IAACChKApCoIH1GDAAiojQAkVW0livyAAAgoSACSqiB8RA0CIKA2ApBUtZUo8gMCIKAgAUiqgvARNQiAgNoIQFLVVqLIDwiAgIIEIKkKwkfUIAACaiMASVVbiSI/IAACChKApCoIH1GDAAiojQAkVW0livyAAAgoSACSqiB8RA0CIKA2ApBUtZUo8gMCIKAgAUiqgvARNQiAgNoIQFLVVqLIDwiAgIIEIKkKwkfUIAACaiMASVVbiSI/IAACChIUPq6+AAACKElEQVSApCoIH1GDAAiojQAkVW0livyAAAgoSACSqiB8RA0CIKA2ApBUtZUo8gMCIKAgAUiqgvARNQiAgNoIQFLVVqLIDwiAgIIEIKkKwkfUIAACaiMASVVbiSI/IAACChKApCoIH1GDAAiojQAkVW0livyAAAgoSACSqiB8RA0CIKA2ApBUtZUo8gMCIKAgAUiqgvARNQiAgNoIQFLVVqLIDwiAgIIEIKkKwkfUIAACaiMASVVbiSI/IAACChKApCoIH1GDAAiojQAkVW0livyAAAgoSACSqiB8RA0CIKA2ApBUtZUo8gMCIKAgAUiqgvARNQiAgNoIQFLVVqLIDwiAgIIEIKkKwkfUIAACaiMASVVbiSI/IAACChKApCoIH1GDAAiojQAkVW0livyAAAgoSACSqiB8RA0CIKA2ApBUtZUo8gMCIKAgAUiqgvARNQiAgNoIQFLVVqLIDwiAgIIEIKkKwkfUIAACaiMASVVbiSI/IAACChKApCoIH1GDAAiojQAkVW0livyAAAgoSACSqiB8RA0CIKA2ApBUtZUo8gMCIKAgAUiqgvARNQiAgNoIQFLVVqLIDwiAgIIEIKkKwkfUIAACaiMASVVbiSI/IAACChKApCoIH1GDAAiojQAkVW0livyAAAgoSACSqiB8RA0CIKA2ApBUtZUo8gMCIKAgAUiqgvARNQiAgNoIQFLVVqLIDwiAgIIEIKkKwkfUIAACaiPw/+bzulR1yOz8AAAAAElFTkSuQmCC;strokeWidth=3;imageBorder=#9456BF;" vertex="1" parent="1">
          <mxGeometry x="280" y="260" width="59.69" height="59.69" as="geometry" />
        </mxCell>
        <mxCell id="Ob93-fBjF6r9dra6HDRD-16" value="" style="shape=image;verticalLabelPosition=bottom;labelBackgroundColor=#ffffff;verticalAlign=top;aspect=fixed;imageAspect=0;image=https://upload.wikimedia.org/wikipedia/commons/thumb/b/b0/Darty.svg/1200px-Darty.svg.png;strokeWidth=3;imageBorder=#9456BF;" vertex="1" parent="1">
          <mxGeometry x="580" y="150.31" width="59.77" height="60" as="geometry" />
        </mxCell>
        <mxCell id="Ob93-fBjF6r9dra6HDRD-17" value="" style="shape=image;verticalLabelPosition=bottom;labelBackgroundColor=#ffffff;verticalAlign=top;aspect=fixed;imageAspect=0;image=https://www.h2glace.com/wp-content/uploads/2018/10/les-num%C3%A9riques.jpg;strokeWidth=3;imageBorder=#9456BF;" vertex="1" parent="1">
          <mxGeometry x="279.69" y="80" width="60" height="60" as="geometry" />
        </mxCell>
        <mxCell id="Ob93-fBjF6r9dra6HDRD-18" value="" style="shape=image;verticalLabelPosition=bottom;labelBackgroundColor=#ffffff;verticalAlign=top;aspect=fixed;imageAspect=0;image=http://www.aapasso.fr/upload/images/AAP-logo-couleur1.5x.png;strokeWidth=3;imageBorder=#9456BF;" vertex="1" parent="1">
          <mxGeometry x="408.5" y="637.5" width="80" height="60" as="geometry" />
        </mxCell>
        <mxCell id="Ob93-fBjF6r9dra6HDRD-20" value="" style="shape=image;verticalLabelPosition=bottom;labelBackgroundColor=#ffffff;verticalAlign=top;aspect=fixed;imageAspect=0;image=data:image/png,iVBORw0KGgoAAAANSUhEUgAAANYAAADWCAIAAAAiget5AAAaMklEQVR4Ae2dCVgUR9rHp2eY4Z4BHEDQQDgE5VJAMGJ2P3DVKChuongENQ8SvjVLJJroRqNxvdh4x1tjxAQBUYREAQ9iREQxiRrFoIgIRjCyioIHiIwwU9+jnVTKnpmengvQ7+2HR6ur63jrV//pru66eDw4gAAQAAJAAAgAASAABIAAEAACQAAIAAEgAASAABAAAkAACAABIAAEgAAQAAJAAAgAASAABIAAEAACQAAIAAEgAASAABAAAkAACAABIAAEgAAQAAJAAAgAASAABIAAEAACQAAIAAEgAASAABAAAkAACAABIAAEgAAQAAJAAAgAASAABIAAEAACQAAIAAEgAASAABAAAkAACAABIAAEgAAQAAJAAAgAASAABIAAEAACQAAIAAEgAASAABAAAkAACAABIAAEgAAQAAJAAAgAASAABIAAEAACQAAIAAEgAASAABAAAkAACAABIAAEgAAQAAJAAAgAASAABIAAEAACQAAIAAEgAASAABAAAkAACAABIAAEgAAQAAJAAAgAASAABIAAEAACOhHgm5kJbexEUgcr37524W/YhkXQf3YRwy29fUVSBxOxhBIKdUq7gyLx+XyJRNK9e3dPT8+oqKjoZ8eoUaOCgoKcnZ2lUqlIJOogU17WbGjEkmeHqampoYoptO1mO2iw6wfzfTamB+wqCMw5Fpx3KnDfSfrvqTvrWMCuAu+V23rGJ0n6h/HNzFmytrCwoC007L9isVggEKjL19TU1NPTc/r06VlZWaWlpVVVVbdv366vr7/97Kipqbly5cqxY8cWL14cFhZmaWmpLh3an6IoKysrbL+JiQl7eHVXKYrSPxF1iXeO/9SpU+//cezZs0d/I0wdnXrGJ/XLKQr9vmxAcQWXv5CjF/qmHZAO/7uJxFbZAJFIdODAgT9sNOT/d+7cmTJlinKOQqFw2LBhhw8fbmpqUigUSNPR0tJSXl4+a9Yse3t75dRon8DAwOrqatr6xsbGxMREdSHZ/ePi4jCCL7/8ks/ns4fv6ldNTEz279+PCd+6datHjx76GO0wMiYo7ycuslMZxj/lW3HQawwDxGLxpUuXsJGGdaxfv56Rnaura0pKim65nD9/fsSIEYwE6dPRo0eTaW7atEllMI2e3333HU6npaWlT58+GqN06QBBQUH379/HRZLJZFOnTtXNYkogcJ/zH5XC6n/wdMDXuT4b0n02pPfZmO6zLs1nY0a/XQUqAw8ornCa8JwNYrG4tLQUG2lYx7Zt28jyhoWFVVZWqsziypUrxcXFRUVFx58dFRUV6m6Qn3zyCZkm7R41ahSZ7Lp165TDaPRxcnK6e/cumc4777yjMVaXDhAXF0eWByGUm5urm8Ue81YoS6rP2q+c3n7XOiBYaCel+IKnfwIBj8/nC0VmPV3t/meY6wfzAnOOKUd0/WAeNoMhwZaWlsOHD6empu7R79i7d29GRsbQoUNxRsHBweQPkiZTVVW1fPnyN998083NTSQSCQQCk2eHm5tbdHR0cnLy9evXGQwRQmvXrqUoCqfM4/EMIsG4uDiG7tPS0nRuVpLmdY5bIBBs376dga+iosLOzk5bg5wmxDNk1HfPEYeRMewvGXQu5q96un28lBF9QHGF9K3JdACGBM+ePWtlZaWthRrDOzk5XbhwgUEjOTm5V69e7HG9vb1XrFjBUAZC6L333iMjGkSCu3btYlh4+/ZtlgYoaUBXdLu4uNy4cYMuUl1dXWtrK0Kora3trbfe0spcy159ggvOkRoK+DrPwsNbq0Skw/8elH+aTCQ0/zRlK+XxeAwJHj9+XKuUOQZmtP9kMllcXBzHuPRNjnE7bGtr8/T0xCnoL0GxWFxdXY0QksvlTU1NT548oetuzJgxOJcXzDFixAj8k9q9e/etW7fo0w0bNmhVEq/kjaR0ArOOWXr7apUCHVgSEha0v4ROKuTohV4LVlLCp5/cGBIsKSkx+Ke4119/nf4FYiA6vLH27duXlghCqLW1NTs729b2zxd8/SU4dOjQ5uZmhNCDBw8OHjxYU1NDW7tlyxYdaHeJKCtWrMDER48ejZv8P/74o8avXLgAFh7e5CtwSNFF27/+2brCwTg6ug2O7JtV2GfNV5L+YfiTdQdIcNu2bRgFQujbb7/laDAjWFRUVE1Nzblz54YOHcpooukvwU2bNtFG1tXVzZo168SJE/Tp5cuXLSwsGJa8AKdWVlZnzpyhy9Da2url5XX06FH6tKWlJTw8nGMZnCY+1wr0+kzHbw04O4G5Be/5hryxJdijR48rV67QZUcIPXr0aNCgQdgebR3knY+Mq6cE+Xz+Tz/9RBt5/fr1oKAg3C6UyWQDBgwg83ox3P7+/hh6YWGhhYXF6tWrsc+HH37IsRhen23CT+HQ78ukQ0dxjMg9mLElGBkZiQuOECopKeFuG/eQekowNDS0sbGRtvPcuXM8Hm/hwoX0qUKhWLhwIXdLukrI2bNnY+7Lly/n8XhRUVHYJzc3l8u93UQsCfg6D0uwX+Z3wm5quwd0LrmxJUiiQAgtXrxYZ1NZIuopwXnz5uHaSU9P5/F4Y8eOxa/hpaWlLFl3xUt8Ph+3JBBCo0eP5vF4Tk5Ojx49osspk8kCAgI0mm7h2btfTjGWYJ91OxnPUI0pcAlgbAmuXbsW1+6TJ08mTJjAxSptw+gjQYqiDh48iKtm0qRJPB7P3d0dv5E0Njb6+Phoa1Jnhvf29sZqu3nzJv3twMTEhOz8ocvJbiVDgt4rvmAPr9tVY0tw3bp1WILNzc1/+ctfdLOTPZY+EvT19a2vr6eNrK+vpztRKYrat28f7SmXy7m3ndjt7KCrCQkJ+B6+d+9e3NU9d+5cXBmpqalCTcOoLDy8++UU4btg75XbjVEAY0vw888/x6VuamoKDQ01Rin0kWBsbCy2sLCwEJu3YMEC7F9QUID9XwBHfn4+Nn3OnDnY4oiICOz/22+/9ezZE19S6Xg5JLh+/Xpc6sePHw8bNkxlYfX01FmCFEVt3rwZW0g2VaOiolpaWuhLNTU1rq6uehrZQdHNzc1xG6K1tTUiIgJn7OzsjC8hhIYPH44vqXS8HBIkv48qFAryN6my1Lp56ixBFxcXslIGDhyIDXBwcLh69SotQYVCofMQE5xgBzliYmIeP35M23327FnyO5ZIJMrMzMQ/uFWrVjH62hkmvhwSjI+Px0VGCJFPOkZ59TnVWYJDhgzB5tXV1TH6x8kH2vbtRmkI6VNq1XG3bt2Ki5SSksII9P777+Orv/zyC/s46pdDguHh4W1tbbjUzc3N/fv3Z2DR/1RnCSYnJ2PbduzYgRvutEkzZsxob2+nA1y4cEEqfdqr3qUPa2vrc+fO0Ra3t7cr37oHDBiA+78RQq+//jpLeV4OCYrFYtxRRJMpKSkxMzNjKbgOl3SToEQiOXXqFJbgxIkTGVn7+vo2NDTgANHR0YwAXe40MjJSJpPRFt+8eVN5JJK9vT3WKEJo6dKlLGV4OSTI4/Hmz5+Pa5F2GLzvXzcJhoSE4Du0TCYjh97Q9UJR1MWLF7HxS5YsYamvLnFpyZIl2Nzi4mKVNpEfKU6dOqUyDO350kjQ1dUVD3LBfFJSUqytrVmKr9Ul3SQ4ffp0bE9hYSGjIUgbQL4vFxcXi8VirQzr0MAURRUUFOAirVy5UmX2U6ZMwWHu3bvn5eWlMhiPx+sUCZ46dcrgg7V4PN57772HS40dR44cMVS7UAcJikQi3CnC0nM4YcIEbLBMJjPSd011GtDOv1+/fnfu3KHNbWlpUfcBLDAw8N69e3SwtrY2xuhfMssOkyA5ntlIEuTxeF9++SWuS+x48ODB7NmzX331VbLgOrh1kKCjoyPuxEIIjRqlegiIm5vbw4cPscHvv/++DuZ1UJTExERs6LVr19TdsYVC4ZEjR3DII0eOqLPvJZOgSCTCI6Bw8WlHVVXV7Nmz9fn2q4MEx40bh81g+fIsFAq///57HDInJ8cYTwl1GtDOf+fOndjQ7Oxslshkz/2NGzfUzU7oFAmqa8KyFIf7JaFQuGbNGkyJ4bh06dKsWbMcHR25J4hD6iBBcn5tamoqyzfaxYsXY1MbGho0dmthqzrU4eLiglvccrk8ISGBJfuxY8fiF+cnT57ExsaqDNwpEiwvL/fx8bGysrLX/nByclJ37ycLOGnSJDyNAVctdly4cGHVqlXe3tpNjtFWgpaWlnV1dTjTf/zjH6SFDPfAgQNxSITQ22+/zQjQJU6jo6Oxla2tre7u7ixmOTs7454fhBA9QE05fKdIsL29vaam5uLFixXaH5WVlWVlZUFBQcplYfh4eXmRI2gwOuyora3dunUr90ezthKMiorC01mam5vZx0VLpdLffvsN25aamsqYNsAoXeeckoOiS0tLNX56PXz4MC5SWVkZ2Y+HC9ApEsRW6ewg5w7jsig7+Hx+eHj4vn37sBSUc7x58+amTZucnZ2VozN8tJXgli1bcHbFxcXm5mxr7giFwq+++gqHr62t7XLdJPb29mVlZdjEFStWMAApn+Jx4fR8sJEjRyqHeUEl+Le//U25LOp8RCLRkCFD8vLyyLdOTJJ23L17d8GCBQ4ODuoS0XYqu0AgID8CbN68mSVl+lJCQgJp1eDBgzVG6dAAQUFBpH1c6iAiIoKEnpycrGxxp0iwubm5pKSkSNfj8OHDuq3DMmLEiLy8vP/+978kSdJdVlYWGRmpTIn20eouGBYWhtd1UCgU7A13Ov3Q0FDcj4IQUllf6mwzuj9FUR999BGG1dDQwOXBIRKJLl++jGMdPXpU+VnQKRJk77AxNs2goKC0tDSyWxYjoh3Lli1T+U1EKwnOmTMHJ3v9+vVXXnlFY7lsbW1/+OEHHOvy5csaRxxrTNNgAczNzU+ePImNy8zM5NhWzcnJwbFkMtlrrzHXvOoUCZaUlHQ63IEDB37xxRfq2oh79+5VJsxdgiYmJoWFhZg89+HQGzZswLEeP34cHBxsMA3pmZCnpyf+woIQio+P55jgu+++S97blbtJOkWCxusd4YgFBxs0aJDyojy0CDIzMxlTELlL0N/fH3diIYQ+/fRTnCO7Y+LEiViCCoVC5QJf7CkY6+q0adOwZXK5PDAwkGNO7u7uuEWCEMrOzmYMH/x/LkEaY2RkpMrlD5ctW0Zy5i5BshPrwYMH7OPlyCx8fHzwLCfjTYgmc+TqzsrKwhI8f/48+4sbmShFUefPn8dx7969yxiyABKkcTk7O5ONFpqYQqEYMmQI5sldghkZGZh5RUWFchMcp8lwiEQismf1zp07jPpihO+gU3t7e/KXsWbNGq0yXrVqFcaBEIqJiSGjgwQxDUtLS/KnTkMrKCjAryYcJejs7Ey+Be7evRtnwcVBDrFWKBRJSUlcYhk3zPjx48n2nLYLgTGWp928eTPZUwkSJCvP2tqanIhNqxDfCDlKkAQul8v/+c9/kllodMfExMjlcnzXYB8JoDE1wwQgByDV1tZ2795dq3QFAgFegxAhVFVVJZFIcAogQYyCdvj5+ZFvEgihnTt30pc4SnDRokVYQLdu3WLZEICRNX0qEonwCmkIoYqKim7duqkM2UGepqamFRUVuEh1dXXR0dG9evUK4Hb4+flFRkZeu3YNp4AQIj9rgwSVK5IctIIQqqyspGXERYJ2dnbkLJb79+9HRkb6+Phwq64ALy+viIiIqqoqXF8KhULdEBNly43iM2TIEHLMI0Lo3r171dXVN7gdtbW1jOgIIXJmJ0hQudqCg4PJXqWHDx/S7wRcJBgcHEw+RhFCCoWipqaGW3XdqK6uVq4v5S0FlG02og857A//MvR0lJaW4nc0kKBy5dna2p4+fRpDbm1tHTduHMc+YrITC6egp+PMmTMqh5goW24Un6KiIj0LoBz9yZMn+MsiSFC52iiKItdsbW9vp18pNN4FraysjFFfcrmcbDspG2xEH39/f3LcZX19/e7duzMyMjK1OXbt2pWRkUFO60QIzZgxg7bbvKOWNSKHjXSd3hF1lUd2lLW3t9O9Shol6O7uTi8lTf/s6+vrs7KytK2vzMzM9PT08vJy8t4xf/58daYa1z8pKYm047PPPtM5v0GDBuGVuBBCJ06coJMSunmRK2t5r3xuGxmds2NEFIvFL7QEOd4FyYlwCKF///vfDA7cT8PCwsj+64KCAtx24p6IAUKSX0qbm5vxByodkpZKpYxuEhcXFx6PJ/TyDdx38s/F3VYzlwfRIS/lKC+cBMklU7jfBcnVfBBC+ixzyOfzyT2kGhoadBufplwXWvj06tWLnHlQXV2tchY09xQ3btyI76ltbW30SiCCbvb+aflYgn479nHZ64Z7pnTIF0uCEonk+PHjmNWjR4+ioqI0vo7Y29uTHxRra2u5DKhjIcl4E508+fd9hFiiGPhSTEwMpkB+INU5G3J+O0Jo//79dFI+q1OwBEOOXrB57a86Z6Eu4oslQT8/P/Ih2NjY6OTkpFGCjCXXlZcvUgdHnf/IkSNJAWRkZOCuQnVRDOxPzjxoa2vTf7M8Dw8Pspvk119/tXd4OpexW9J8LMEBxRXuH6sYXK1n2V4sCX766adk3Z89e5YuPvvrCLnMJkJo/PjxekJzdHQkxwbcu3eP+0wrPbN+Gt3BweGXX37BIO7evctl2K3GjA8cOIDTbGtro5cFFw6MCD12CaswpKDU2l/z/DR1eZn1dHX7aKFD9Linu4/8cXSABK2srD744IN169bpuYiMi4sL3pqBZvXxxx/T5WCRoFAoJLs0DNJ0EwqFubm5uL7wovZ/QDXy/+Hh4WTeJ0+eNEiG5JJICKHf156iqD7bcrAEBxRXeC/fSvHVbnXOYglfKPJauuFpUscu+afl20eNwRuAGe+N2MzMbPLkyZWVlfQrvz5TLiiKYoxgbWhowCuBsEgwLCysqakJV9nBgwcZ4zJZoLFcIpeKRAhpO0iKJWXNl4y0kcbw4cPJ/p8ffviBnglqNiR64Inndl9/deYCzVY+H4JvauYxbzkp5f6HfhZIn85JM+pdMCwsDNc97ViwYIG2gwPooixdupSRFLk0HosEyRFWCCFD7WMTEhJC2nPt2jXu+7o9XzlanllYWJAzDzQuU8k9eSsrK/KbZ2trK/2hh+ILPJZ9QarnWaNwqcie66gcsx4uXv95bi/FAcUVXovW8p7tes+QoGEX4nV0dFQe85yenu7h4cGdjFQqZTTm6FEq5NIfLBIk36Dlcjn9Bs09d3Uh7ezsfv75Z1KFXObwq0tNC//AwEAy19raWgN+ltyzZw+Z+Ny5c2nLTBydA7OYO1v7fZ3rED1OaMe29Kz5q549Jk/rm8ncoT0gNd/E9vdRRgwJ/vrrr3FxcWPGjBmn3xEbG0uvSerp6UmuJ04X8OrVq4mJiRrb0DY2NgkJCT/++COJhd4s08/Pj6w2dRLs3bs32YlVXl6uw37QZEake/ny5aRhCxcuVJ5XRYY3jJucKUK3ABirE+uTzZQpU8iZUIcOHcKrMlh4+6ncX93v61z3j5OdY/+3+9gpTuPj6L/uYyb1nDrdc8l6ZeEOKK7wT/nW3OXP9UYYEiSZ6umWy+XTp0/n8Xi9e/dm7CZMp1xeXp6Wlvavf/1r5syZHxLHjBkz5s6dm5qaevbsWWUb6uvr33jjDQZndRJkDE3YsWMHI6I+p4xMS0tLbWxs9EmQU1yjvge5urqSP9nHjx+HhIRgs0x7uHitYD6RGQ9ojaeei9YwNrITi8XkUhDKVa6PD16l3t3d/dChQ/okRcctKirq27cvZoId5Jo+CCG86TNj0sm0adNwFP0dHh4et2/fxoVqaWlRt0ih/nn9mQLZ1d3Y2Ojm5vbnNUO48J6xdMEYizgJzC0cosc/3dma+FKjUXZPAxy71C+nSPrGaL4pc51xa2trcjllDNQgDnJtE2tr64SEhKtXr5JTHTjm0t7eXllZOXPmTHW3GXKXSYTQ559/zuPxBAIB3uIVIVRXV2fYreT4fD7ZT6tQKPTpeuYqn9mzZ2dnZ2dmZubm5iYmJhrwKUxbMHjw4PT09D179nzzzTcpKSnKC6Y/7TvuZu84eoL3ym2B2cf6HzwTevSiShWGfl/W/9DpwKxjfdalOf59oolY9TOCoqhZs2bl5ubu3r1bm1E+GsJmZ2enpKT4+jI3kLe1tY2Njf3mm29qamqamprIhgdDjjKZ7OHDh9evXz906FB8fLw68dHcpFLp6tWr8/Ly9u7dm5qailfKmjlzZm5uLs3TGAukDh48OCcnZ++zY/369eRTi6uktA0nEAhsbGwkEomtra1uHxc05igWiyUSiY2NDVu/M0WZiCVWPn0dose/kjDTc8Gq3qu2e322hf7rvWq7xyfLesYn2UeNtfT2NZHYsm/haWpqamtrKzHowW6/jY1NUFBQUlLS4sWLMzIy8vPzc4kjPz9/586dixYtSkxMDAgI4PgCYW5uTpeC/ABuZmZGe9rY2BhjlQiKomg9SCQSxux6jRUNAYAAEAACQAAIAAEgAASAABAAAkAACAABIAAEgAAQAAJAAAgAgZeHgIlVF94x9eXBDCUBAkAACAABIAAEgAAQAAJAAAgAASAABIAAEAACQAAIAAEgAASAABAAAkAACAABIAAEgAAQAAJAAAgAASAABIAAEAACQAAIAAEgAASAABAAAkAACAABIAAEgAAQAAJAAAgAASAABIAAEAACQAAIAAEgAASAABAAAkAACAABIAAEgAAQAAJAAAgAASAABIAAEAACQAAIAAEgAASAABAAAkAACAABIAAEgAAQAAJAAAgAASAABIAAEAACQAAIAAEgAASAABAAAkAACAABIAAEgAAQAAJAAAgAASAABIAAEAACQAAIAAEgAASAABAAAkAACAABIAAEgAAQAAJAAAgAASAABIAAEAACQAAIAAEgAASAABAAAkAACAABIAAEgAAQAAJAQDsC/wefNYu0XBAxTgAAAABJRU5ErkJggg==;strokeWidth=3;imageBorder=#9456BF;" vertex="1" parent="1">
          <mxGeometry x="418" y="540" width="64" height="64" as="geometry" />
        </mxCell>
        <mxCell id="Ob93-fBjF6r9dra6HDRD-21" value="Evaluation de prestataires" style="text;html=1;strokeColor=none;fillColor=none;align=center;verticalAlign=middle;whiteSpace=wrap;rounded=0;fontStyle=5;fontSize=18;" vertex="1" parent="1">
          <mxGeometry x="422.99" y="470" width="40" height="20" as="geometry" />
        </mxCell>
        <mxCell id="Ob93-fBjF6r9dra6HDRD-22" value="Recherche de produits" style="text;html=1;strokeColor=none;fillColor=none;align=center;verticalAlign=middle;whiteSpace=wrap;rounded=0;fontStyle=5;fontSize=18;" vertex="1" parent="1">
          <mxGeometry x="590" y="240" width="40" height="20" as="geometry" />
        </mxCell>
        <mxCell id="Ob93-fBjF6r9dra6HDRD-23" value="Evaluation de produits" style="text;html=1;strokeColor=none;fillColor=none;align=center;verticalAlign=middle;whiteSpace=wrap;rounded=0;fontStyle=5;fontSize=18;" vertex="1" parent="1">
          <mxGeometry x="280" y="177" width="40" height="20" as="geometry" />
        </mxCell>
      </root>
    </mxGraphModel>
  </diagram>
</mxfile>
